{
.appVersion = "1209";
DisplayStrings = (
ABCDEFGHIJKLMNOPQRSTUVWXYZ
);
copyright = "2016-2019";
customParameters = (
{
name = panose;
value = (
0,
0,
0,
0,
0,
0,
0,
0,
0,
0
);
},
{
name = unicodeRanges;
value = (
0,
2,
33,
35
);
},
{
name = codePageRanges;
value = (
1252
);
},
{
name = blueScale;
value = 0.037;
}
);
date = "2019-02-07 17:02:56 +0000";
designer = "Froyo Tam";
designerURL = froyotam.info;
disablesNiceNames = 1;
familyName = Blotter;
fontMaster = (
{
ascender = 800;
capHeight = 700;
custom = Extra;
descender = -200;
id = "0BD0D975-F19E-4ACA-9A31-41147C737F0B";
name = ExtraLight;
weight = Light;
xHeight = 500;
},
{
alignmentZones = (
"{1116, 0}",
"{0, 0}",
"{-494, 0}"
);
ascender = 1500;
capHeight = 1400;
customParameters = (
{
name = typoAscender;
value = 1500;
},
{
name = typoDescender;
value = -500;
},
{
name = typoLineGap;
value = 0;
},
{
name = winAscent;
value = 2000;
},
{
name = winDescent;
value = 0;
},
{
name = hheaAscender;
value = 1500;
},
{
name = hheaDescender;
value = -500;
},
{
name = strikeoutPosition;
value = 600;
},
{
name = strikeoutSize;
value = 100;
}
);
descender = -500;
id = "BCBE6FB0-8B5B-4728-88BC-6AD881489723";
weightValue = 400;
widthValue = 5;
xHeight = 1000;
},
{
alignmentZones = (
"{1116, 0}",
"{0, 0}",
"{-494, 0}"
);
ascender = 1500;
capHeight = 1400;
custom = Source;
customParameters = (
{
name = typoAscender;
value = 1500;
},
{
name = typoDescender;
value = -500;
},
{
name = typoLineGap;
value = 0;
},
{
name = winAscent;
value = 2000;
},
{
name = winDescent;
value = 0;
},
{
name = hheaAscender;
value = 1500;
},
{
name = hheaDescender;
value = -500;
},
{
name = strikeoutPosition;
value = 600;
},
{
name = strikeoutSize;
value = 100;
}
);
descender = -500;
iconName = Bold_Condensed;
id = "2A439511-CA4B-4C8E-8DEB-A9BDC8F58CF8";
visible = 1;
weightValue = 400;
widthValue = 5;
xHeight = 1000;
}
);
glyphs = (
{
color = 0;
glyphname = A;
lastChange = "2019-02-10 19:19:35 +0000";
layers = (
{
layerId = "BCBE6FB0-8B5B-4728-88BC-6AD881489723";
paths = (
{
closed = 1;
nodes = (
"519 -6 OFFCURVE",
"638 13 QCURVE SMOOTH",
"664 16 OFFCURVE",
"699 21 OFFCURVE",
"722 36 QCURVE SMOOTH",
"740 49 OFFCURVE",
"757 92 OFFCURVE",
"764 127 QCURVE SMOOTH",
"773 167 OFFCURVE",
"814 208 OFFCURVE",
"837 211 QCURVE SMOOTH",
"877 217 OFFCURVE",
"871 188 OFFCURVE",
"899 181 QCURVE SMOOTH",
"939 171 OFFCURVE",
"970 162 QCURVE",
"965 126 OFFCURVE",
"1000 102 OFFCURVE",
"1042 102 QCURVE SMOOTH",
"1057 102 OFFCURVE",
"1075 110 OFFCURVE",
"1099 129 OFFCURVE",
"1096 164 QCURVE SMOOTH",
"1093 202 OFFCURVE",
"1034 229 OFFCURVE",
"1034 239 QCURVE SMOOTH",
"1034 267 OFFCURVE",
"1088 296 OFFCURVE",
"1096 312 OFFCURVE",
"1092 341 QCURVE SMOOTH",
"1080 426 OFFCURVE",
"929 454 OFFCURVE",
"929 496 QCURVE SMOOTH",
"929 558 OFFCURVE",
"927 594 OFFCURVE",
"1000 630 OFFCURVE",
"1000 676 QCURVE SMOOTH",
"1000 743 OFFCURVE",
"1020 793 OFFCURVE",
"973 768 OFFCURVE",
"971 826 QCURVE SMOOTH",
"970 856 OFFCURVE",
"979 880 OFFCURVE",
"989 909 QCURVE SMOOTH",
"998 939 OFFCURVE",
"998 956 QCURVE SMOOTH",
"998 1048 LINE SMOOTH",
"998 1112 OFFCURVE",
"968 1212 OFFCURVE",
"856 1313 OFFCURVE",
"751 1313 QCURVE SMOOTH",
"699 1313 OFFCURVE",
"652 1303 OFFCURVE",
"607 1364 OFFCURVE",
"594 1392 QCURVE SMOOTH",
"578 1422 LINE SMOOTH",
"556 1457 OFFCURVE",
"467 1506 OFFCURVE",
"408 1506 QCURVE SMOOTH",
"385 1506 OFFCURVE",
"318 1483 OFFCURVE",
"247 1420 OFFCURVE",
"222 1364 QCURVE SMOOTH",
"219 1346 OFFCURVE",
"211 1331 QCURVE SMOOTH",
"189 1288 OFFCURVE",
"140 1271 OFFCURVE",
"34 1243 OFFCURVE",
"34 1137 QCURVE SMOOTH",
"34 1080 OFFCURVE",
"74 1035 OFFCURVE",
"122 997 OFFCURVE",
"178 1000 QCURVE SMOOTH",
"230 1003 OFFCURVE",
"264 1024 OFFCURVE",
"282 1048 QCURVE SMOOTH",
"298 1070 OFFCURVE",
"361 1092 OFFCURVE",
"399 1092 QCURVE SMOOTH",
"449 1092 OFFCURVE",
"503 1061 OFFCURVE",
"519 1027 OFFCURVE",
"519 988 QCURVE SMOOTH",
"519 939 OFFCURVE",
"455 903 OFFCURVE",
"412 890 QCURVE SMOOTH",
"408 889 OFFCURVE",
"378 880 QCURVE SMOOTH",
"345 870 OFFCURVE",
"275 804 OFFCURVE",
"232 718 OFFCURVE",
"236 678 QCURVE SMOOTH",
"242 623 LINE SMOOTH",
"247 579 OFFCURVE",
"241 566 OFFCURVE",
"204 529 OFFCURVE",
"158 518 QCURVE SMOOTH",
"108 506 OFFCURVE",
"52 400 OFFCURVE",
"54 376 OFFCURVE",
"54 342 QCURVE SMOOTH",
"54 290 OFFCURVE",
"140 225 QCURVE SMOOTH",
"195 184 OFFCURVE",
"253 143 OFFCURVE",
"264 118 QCURVE SMOOTH",
"289 65 OFFCURVE",
"326 16 OFFCURVE",
"384 -6 OFFCURVE",
"450 -6 QCURVE SMOOTH"
);
},
{
closed = 1;
nodes = (
"725 425 OFFCURVE",
"702 395 QCURVE SMOOTH",
"681 368 OFFCURVE",
"681 319 OFFCURVE",
"681 315 OFFCURVE",
"646 315 QCURVE SMOOTH",
"607 315 OFFCURVE",
"573 350 OFFCURVE",
"558 358 QCURVE SMOOTH",
"514 383 OFFCURVE",
"483 382 OFFCURVE",
"464 410 OFFCURVE",
"464 442 QCURVE SMOOTH",
"464 468 OFFCURVE",
"467 515 OFFCURVE",
"476 523 QCURVE SMOOTH",
"506 550 OFFCURVE",
"529 579 OFFCURVE",
"567 558 OFFCURVE",
"607 556 QCURVE SMOOTH",
"671 553 OFFCURVE",
"716 525 OFFCURVE",
"725 493 OFFCURVE",
"725 474 QCURVE SMOOTH"
);
}
);
width = 1138;
},
{
layerId = "2A439511-CA4B-4C8E-8DEB-A9BDC8F58CF8";
paths = (
{
closed = 1;
nodes = (
"374 1506 OFFCURVE",
"276 1486 OFFCURVE",
"222 1364 CURVE SMOOTH",
"198 1310 OFFCURVE",
"222 1292 OFFCURVE",
"122 1270 CURVE SMOOTH",
"8 1244 OFFCURVE",
"-10 1000 OFFCURVE",
"178 1000 CURVE SMOOTH",
"310 1000 OFFCURVE",
"254 1092 OFFCURVE",
"372 1092 CURVE SMOOTH",
"460 1092 OFFCURVE",
"566 1056 OFFCURVE",
"500 926 CURVE SMOOTH",
"492 910 OFFCURVE",
"422 894 OFFCURVE",
"378 880 CURVE SMOOTH",
"314 860 OFFCURVE",
"226 762 OFFCURVE",
"236 678 CURVE SMOOTH",
"246 594 OFFCURVE",
"264 544 OFFCURVE",
"158 518 CURVE SMOOTH",
"52 492 OFFCURVE",
"24 306 OFFCURVE",
"84 262 CURVE SMOOTH",
"144 218 OFFCURVE",
"240 170 OFFCURVE",
"264 118 CURVE SMOOTH",
"288 66 OFFCURVE",
"306 -44 OFFCURVE",
"590 10 CURVE SMOOTH",
"642 20 OFFCURVE",
"670 0 OFFCURVE",
"722 36 CURVE SMOOTH",
"780 76 OFFCURVE",
"750 198 OFFCURVE",
"814 208 CURVE SMOOTH",
"904 222 OFFCURVE",
"922 194 OFFCURVE",
"972 188 CURVE",
"972 188 OFFCURVE",
"956 102 OFFCURVE",
"1042 102 CURVE SMOOTH",
"1092 102 OFFCURVE",
"1128 194 OFFCURVE",
"1054 222 CURVE SMOOTH",
"980 250 OFFCURVE",
"1142 290 OFFCURVE",
"1072 390 CURVE SMOOTH",
"1002 490 OFFCURVE",
"880 434 OFFCURVE",
"942 552 CURVE SMOOTH",
"1004 670 OFFCURVE",
"1000 684 OFFCURVE",
"980 784 CURVE SMOOTH",
"960 884 OFFCURVE",
"1002 912 OFFCURVE",
"998 956 CURVE SMOOTH",
"994 1000 OFFCURVE",
"1032 1356 OFFCURVE",
"704 1310 CURVE SMOOTH",
"618 1298 OFFCURVE",
"604 1380 OFFCURVE",
"578 1422 CURVE SMOOTH",
"552 1464 OFFCURVE",
"492 1506 OFFCURVE",
"408 1506 CURVE SMOOTH"
);
},
{
closed = 1;
nodes = (
"696 390 OFFCURVE",
"698 270 OFFCURVE",
"616 324 CURVE SMOOTH",
"534 378 OFFCURVE",
"414 416 OFFCURVE",
"488 474 CURVE SMOOTH",
"562 532 OFFCURVE",
"592 594 OFFCURVE",
"670 526 CURVE SMOOTH",
"748 458 OFFCURVE",
"718 452 OFFCURVE",
"710 428 CURVE SMOOTH"
);
}
);
width = 1138;
},
{
layerId = "0BD0D975-F19E-4ACA-9A31-41147C737F0B";
width = 600;
}
);
note = A;
unicode = 0041;
},
{
color = 0;
glyphname = B;
lastChange = "2019-02-10 19:10:17 +0000";
layers = (
{
layerId = "BCBE6FB0-8B5B-4728-88BC-6AD881489723";
paths = (
{
closed = 1;
nodes = (
"380 1526 OFFCURVE",
"352 1560 OFFCURVE",
"306 1560 CURVE SMOOTH",
"182 1560 OFFCURVE",
"64 1502 OFFCURVE",
"64 1356 CURVE SMOOTH",
"64 1256 OFFCURVE",
"78 1082 OFFCURVE",
"138 966 CURVE",
"190 896 OFFCURVE",
"54 838 OFFCURVE",
"130 746 CURVE SMOOTH",
"150 722 OFFCURVE",
"164 680 OFFCURVE",
"112 660 CURVE SMOOTH",
"40 632 OFFCURVE",
"48 496 OFFCURVE",
"54 446 CURVE",
"54 372 OFFCURVE",
"96 326 OFFCURVE",
"156 278 CURVE",
"212 244 OFFCURVE",
"190 248 OFFCURVE",
"214 194 CURVE",
"248 78 OFFCURVE",
"348 14 OFFCURVE",
"448 14 CURVE SMOOTH",
"488 14 OFFCURVE",
"532 26 OFFCURVE",
"574 26 CURVE SMOOTH",
"604 26 OFFCURVE",
"634 20 OFFCURVE",
"666 20 CURVE SMOOTH",
"684 20 OFFCURVE",
"708 26 OFFCURVE",
"724 26 CURVE SMOOTH",
"766 26 OFFCURVE",
"794 -8 OFFCURVE",
"830 -8 CURVE SMOOTH",
"868 -8 OFFCURVE",
"902 26 OFFCURVE",
"902 66 CURVE SMOOTH",
"902 136 OFFCURVE",
"830 156 OFFCURVE",
"830 188 CURVE SMOOTH",
"830 212 OFFCURVE",
"874 220 OFFCURVE",
"894 220 CURVE SMOOTH",
"936 220 OFFCURVE",
"980 200 OFFCURVE",
"1032 194 CURVE",
"1108 194 OFFCURVE",
"1182 268 OFFCURVE",
"1182 342 CURVE SMOOTH",
"1184 478 OFFCURVE",
"1102 488 OFFCURVE",
"1102 526 CURVE SMOOTH",
"1102 560 OFFCURVE",
"1140 580 OFFCURVE",
"1140 618 CURVE SMOOTH",
"1140 684 OFFCURVE",
"1062 676 OFFCURVE",
"1062 752 CURVE SMOOTH",
"1062 840 OFFCURVE",
"988 928 OFFCURVE",
"880 928 CURVE SMOOTH",
"828 928 OFFCURVE",
"752 884 OFFCURVE",
"712 884 CURVE SMOOTH",
"662 884 OFFCURVE",
"592 1028 OFFCURVE",
"590 1106 CURVE",
"590 1200 OFFCURVE",
"562 1286 OFFCURVE",
"518 1376 CURVE",
"504 1408 OFFCURVE",
"488 1440 OFFCURVE",
"488 1462 CURVE SMOOTH",
"488 1494 OFFCURVE",
"598 1522 OFFCURVE",
"598 1604 CURVE SMOOTH",
"598 1650 OFFCURVE",
"564 1696 OFFCURVE",
"518 1696 CURVE SMOOTH",
"434 1696 OFFCURVE",
"474 1594 OFFCURVE",
"416 1552 CURVE SMOOTH"
);
},
{
closed = 1;
nodes = (
"794 532 OFFCURVE",
"786 518 OFFCURVE",
"776 506 CURVE",
"730 458 OFFCURVE",
"710 362 OFFCURVE",
"676 362 CURVE SMOOTH",
"664 362 OFFCURVE",
"468 498 OFFCURVE",
"468 538 CURVE SMOOTH",
"468 544 OFFCURVE",
"474 568 OFFCURVE",
"484 568 CURVE",
"542 602 OFFCURVE",
"594 632 OFFCURVE",
"648 666 CURVE",
"654 672 OFFCURVE",
"660 674 OFFCURVE",
"666 674 CURVE SMOOTH",
"700 674 OFFCURVE",
"774 596 OFFCURVE",
"804 550 CURVE"
);
}
);
width = 1192;
},
{
layerId = "2A439511-CA4B-4C8E-8DEB-A9BDC8F58CF8";
paths = (
{
closed = 1;
nodes = (
"380 1526 OFFCURVE",
"352 1560 OFFCURVE",
"306 1560 CURVE SMOOTH",
"182 1560 OFFCURVE",
"64 1502 OFFCURVE",
"64 1356 CURVE SMOOTH",
"64 1256 OFFCURVE",
"78 1082 OFFCURVE",
"138 966 CURVE",
"190 896 OFFCURVE",
"54 838 OFFCURVE",
"130 746 CURVE SMOOTH",
"150 722 OFFCURVE",
"164 680 OFFCURVE",
"112 660 CURVE SMOOTH",
"40 632 OFFCURVE",
"48 496 OFFCURVE",
"54 446 CURVE",
"54 372 OFFCURVE",
"96 326 OFFCURVE",
"156 278 CURVE",
"212 244 OFFCURVE",
"190 248 OFFCURVE",
"214 194 CURVE",
"248 78 OFFCURVE",
"348 14 OFFCURVE",
"448 14 CURVE SMOOTH",
"488 14 OFFCURVE",
"532 26 OFFCURVE",
"574 26 CURVE SMOOTH",
"604 26 OFFCURVE",
"634 20 OFFCURVE",
"666 20 CURVE SMOOTH",
"684 20 OFFCURVE",
"708 26 OFFCURVE",
"724 26 CURVE SMOOTH",
"766 26 OFFCURVE",
"794 -8 OFFCURVE",
"830 -8 CURVE SMOOTH",
"868 -8 OFFCURVE",
"902 26 OFFCURVE",
"902 66 CURVE SMOOTH",
"902 136 OFFCURVE",
"830 156 OFFCURVE",
"830 188 CURVE SMOOTH",
"830 212 OFFCURVE",
"874 220 OFFCURVE",
"894 220 CURVE SMOOTH",
"936 220 OFFCURVE",
"980 200 OFFCURVE",
"1032 194 CURVE",
"1108 194 OFFCURVE",
"1182 268 OFFCURVE",
"1182 342 CURVE SMOOTH",
"1184 478 OFFCURVE",
"1102 488 OFFCURVE",
"1102 526 CURVE SMOOTH",
"1102 560 OFFCURVE",
"1140 580 OFFCURVE",
"1140 618 CURVE SMOOTH",
"1140 684 OFFCURVE",
"1062 676 OFFCURVE",
"1062 752 CURVE SMOOTH",
"1062 840 OFFCURVE",
"988 928 OFFCURVE",
"880 928 CURVE SMOOTH",
"828 928 OFFCURVE",
"752 884 OFFCURVE",
"712 884 CURVE SMOOTH",
"662 884 OFFCURVE",
"592 1028 OFFCURVE",
"590 1106 CURVE",
"590 1200 OFFCURVE",
"562 1286 OFFCURVE",
"518 1376 CURVE",
"504 1408 OFFCURVE",
"488 1440 OFFCURVE",
"488 1462 CURVE SMOOTH",
"488 1494 OFFCURVE",
"598 1522 OFFCURVE",
"598 1604 CURVE SMOOTH",
"598 1650 OFFCURVE",
"564 1696 OFFCURVE",
"518 1696 CURVE SMOOTH",
"434 1696 OFFCURVE",
"474 1594 OFFCURVE",
"416 1552 CURVE SMOOTH"
);
},
{
closed = 1;
nodes = (
"794 532 OFFCURVE",
"786 518 OFFCURVE",
"776 506 CURVE",
"730 458 OFFCURVE",
"710 362 OFFCURVE",
"676 362 CURVE SMOOTH",
"664 362 OFFCURVE",
"468 498 OFFCURVE",
"468 538 CURVE SMOOTH",
"468 544 OFFCURVE",
"474 568 OFFCURVE",
"484 568 CURVE",
"542 602 OFFCURVE",
"594 632 OFFCURVE",
"648 666 CURVE",
"654 672 OFFCURVE",
"660 674 OFFCURVE",
"666 674 CURVE SMOOTH",
"700 674 OFFCURVE",
"774 596 OFFCURVE",
"804 550 CURVE"
);
}
);
width = 1192;
},
{
layerId = "0BD0D975-F19E-4ACA-9A31-41147C737F0B";
width = 600;
}
);
note = B;
unicode = 0042;
},
{
color = 4;
glyphname = C;
lastChange = "2019-02-10 19:24:19 +0000";
layers = (
{
layerId = "BCBE6FB0-8B5B-4728-88BC-6AD881489723";
paths = (
{
closed = 1;
nodes = (
"599 -51 OFFCURVE",
"682 6 OFFCURVE",
"908 74 OFFCURVE",
"908 258 OFFCURVE",
"947 258 OFFCURVE",
"1068 330 OFFCURVE",
"1068 457 OFFCURVE",
"1007 531 OFFCURVE",
"889 528 OFFCURVE",
"832 430 OFFCURVE",
"832 338 OFFCURVE",
"769 338 OFFCURVE",
"569 493 OFFCURVE",
"569 566 OFFCURVE",
"700 728 OFFCURVE",
"757 728 OFFCURVE",
"850 635 OFFCURVE",
"1029 640 OFFCURVE",
"1096 771 OFFCURVE",
"1096 914 OFFCURVE",
"1000 1029 OFFCURVE",
"863 1029 OFFCURVE",
"755 932 OFFCURVE",
"699 932 OFFCURVE",
"598 1061 OFFCURVE",
"404 1061 OFFCURVE",
"287 880 OFFCURVE",
"50 743 OFFCURVE",
"50 288 OFFCURVE",
"268 204 OFFCURVE",
"422 -51 OFFCURVE",
"532 -51 QCURVE SMOOTH"
);
}
);
width = 1128;
},
{
layerId = "2A439511-CA4B-4C8E-8DEB-A9BDC8F58CF8";
paths = (
{
closed = 1;
nodes = (
"908 266 LINE",
"932 272 OFFCURVE",
"958 274 OFFCURVE",
"972 280 CURVE",
"1006 290 OFFCURVE",
"1034 308 OFFCURVE",
"1052 342 CURVE",
"1082 394 OFFCURVE",
"1070 460 OFFCURVE",
"1028 504 CURVE",
"978 542 OFFCURVE",
"920 540 OFFCURVE",
"880 492 CURVE",
"860 464 OFFCURVE",
"848 434 OFFCURVE",
"844 396 CURVE SMOOTH",
"838 342 OFFCURVE",
"826 332 OFFCURVE",
"772 344 CURVE",
"762 344 OFFCURVE",
"750 350 OFFCURVE",
"740 356 CURVE",
"692 396 OFFCURVE",
"644 434 OFFCURVE",
"594 472 CURVE",
"588 476 OFFCURVE",
"588 484 OFFCURVE",
"580 492 CURVE",
"568 518 OFFCURVE",
"560 540 OFFCURVE",
"576 568 CURVE",
"586 582 OFFCURVE",
"588 594 OFFCURVE",
"598 606 CURVE SMOOTH",
"628 640 OFFCURVE",
"664 674 OFFCURVE",
"692 708 CURVE",
"704 716 OFFCURVE",
"720 722 OFFCURVE",
"728 728 CURVE",
"744 722 OFFCURVE",
"756 716 OFFCURVE",
"768 710 CURVE",
"784 696 OFFCURVE",
"808 676 OFFCURVE",
"830 664 CURVE",
"930 604 OFFCURVE",
"1042 646 OFFCURVE",
"1086 768 CURVE SMOOTH",
"1118 866 OFFCURVE",
"1076 970 OFFCURVE",
"994 1016 CURVE",
"942 1036 OFFCURVE",
"888 1034 OFFCURVE",
"836 1000 CURVE",
"814 988 OFFCURVE",
"792 966 OFFCURVE",
"772 952 CURVE SMOOTH",
"734 924 OFFCURVE",
"726 924 OFFCURVE",
"692 952 CURVE",
"676 970 OFFCURVE",
"658 990 OFFCURVE",
"644 1004 CURVE",
"552 1086 OFFCURVE",
"436 1080 OFFCURVE",
"350 982 CURVE SMOOTH",
"336 966 OFFCURVE",
"324 946 OFFCURVE",
"308 924 CURVE",
"286 896 OFFCURVE",
"266 876 OFFCURVE",
"238 860 CURVE SMOOTH",
"220 850 OFFCURVE",
"204 842 OFFCURVE",
"190 832 CURVE SMOOTH",
"132 792 OFFCURVE",
"92 740 OFFCURVE",
"74 668 CURVE SMOOTH",
"54 594 OFFCURVE",
"42 524 OFFCURVE",
"46 452 CURVE",
"48 354 OFFCURVE",
"88 284 OFFCURVE",
"168 232 CURVE SMOOTH",
"186 220 OFFCURVE",
"208 208 OFFCURVE",
"232 202 CURVE",
"266 184 OFFCURVE",
"290 158 OFFCURVE",
"308 126 CURVE",
"330 98 OFFCURVE",
"344 64 OFFCURVE",
"366 40 CURVE",
"430 -46 OFFCURVE",
"524 -72 OFFCURVE",
"616 -34 CURVE",
"680 -2 OFFCURVE",
"744 24 OFFCURVE",
"810 40 CURVE SMOOTH",
"872 56 OFFCURVE",
"908 114 OFFCURVE",
"908 184 CURVE SMOOTH"
);
}
);
width = 1128;
},
{
associatedMasterId = "2A439511-CA4B-4C8E-8DEB-A9BDC8F58CF8";
layerId = "CC8F4777-255D-4703-B815-2C942187C3C6";
name = shapes;
paths = (
{
closed = 1;
nodes = (
"994 363 OFFCURVE",
"1018 387 OFFCURVE",
"1018 418 CURVE SMOOTH",
"1018 448 OFFCURVE",
"994 472 OFFCURVE",
"964 472 CURVE SMOOTH",
"933 472 OFFCURVE",
"909 448 OFFCURVE",
"909 418 CURVE SMOOTH",
"909 387 OFFCURVE",
"933 363 OFFCURVE",
"964 363 CURVE SMOOTH"
);
},
{
closed = 1;
nodes = (
"997 714 OFFCURVE",
"1055 772 OFFCURVE",
"1055 843 CURVE SMOOTH",
"1055 914 OFFCURVE",
"997 972 OFFCURVE",
"926 972 CURVE SMOOTH",
"855 972 OFFCURVE",
"797 914 OFFCURVE",
"797 843 CURVE SMOOTH",
"797 772 OFFCURVE",
"855 714 OFFCURVE",
"926 714 CURVE SMOOTH"
);
}
);
visible = 1;
width = 1128;
},
{
layerId = "0BD0D975-F19E-4ACA-9A31-41147C737F0B";
paths = (
{
closed = 1;
nodes = (
"590 38 OFFCURVE",
"672 148 OFFCURVE",
"844 120 OFFCURVE",
"852 258 OFFCURVE",
"900 292 OFFCURVE",
"1028 376 OFFCURVE",
"1030 438 OFFCURVE",
"984 484 OFFCURVE",
"924 482 OFFCURVE",
"888 434 OFFCURVE",
"880 318 OFFCURVE",
"836 282 OFFCURVE",
"460 486 OFFCURVE",
"456 528 OFFCURVE",
"708 805 OFFCURVE",
"752 805 OFFCURVE",
"832 721 OFFCURVE",
"966 725 OFFCURVE",
"1034 792 OFFCURVE",
"1034 888 OFFCURVE",
"964 972 OFFCURVE",
"834 970 OFFCURVE",
"752 852 OFFCURVE",
"708 852 OFFCURVE",
"600 1004 OFFCURVE",
"406 1004 OFFCURVE",
"404 786 OFFCURVE",
"152 676 OFFCURVE",
"154 386 OFFCURVE",
"376 242 OFFCURVE",
"442 38 OFFCURVE",
"524 38 QCURVE SMOOTH"
);
}
);
width = 1128;
}
);
note = C;
unicode = 0043;
},
{
color = 0;
glyphname = D;
lastChange = "2019-02-10 19:29:10 +0000";
layers = (
{
layerId = "BCBE6FB0-8B5B-4728-88BC-6AD881489723";
paths = (
{
closed = 1;
nodes = (
"628 0 OFFCURVE",
"650 70 QCURVE",
"727 107 OFFCURVE",
"746 74 QCURVE",
"782 77 OFFCURVE",
"846 112 OFFCURVE",
"868 142 QCURVE SMOOTH",
"885 167 OFFCURVE",
"926 200 OFFCURVE",
"954 214 QCURVE SMOOTH",
"991 233 OFFCURVE",
"1034 305 OFFCURVE",
"1036 383 OFFCURVE",
"1056 433 OFFCURVE",
"1114 485 OFFCURVE",
"1120 574 OFFCURVE",
"1077 636 OFFCURVE",
"1070 692 OFFCURVE",
"1119 835 OFFCURVE",
"1070 1023 OFFCURVE",
"1079 1181 OFFCURVE",
"1036 1317 OFFCURVE",
"1055 1430 OFFCURVE",
"1042 1535 OFFCURVE",
"978 1616 OFFCURVE",
"885 1645 OFFCURVE",
"791 1605 OFFCURVE",
"737 1522 OFFCURVE",
"730 1442 OFFCURVE",
"738 1322 OFFCURVE",
"707 1239 OFFCURVE",
"692 1182 OFFCURVE",
"682 1141 OFFCURVE",
"653 1058 OFFCURVE",
"564 1058 OFFCURVE",
"546 1060 QCURVE",
"381 1070 OFFCURVE",
"292 932 QCURVE",
"248 869 OFFCURVE",
"188 836 QCURVE",
"160 818 LINE",
"78 755 OFFCURVE",
"64 660 QCURVE SMOOTH",
"44 548 OFFCURVE",
"58 454 QCURVE",
"70 343 OFFCURVE",
"170 288 QCURVE",
"181 283 OFFCURVE",
"208 269 OFFCURVE",
"218 266 QCURVE SMOOTH",
"261 251 OFFCURVE",
"286 198 QCURVE",
"301 148 OFFCURVE",
"324 118 QCURVE",
"444 4 OFFCURVE",
"526 2 QCURVE SMOOTH"
);
},
{
closed = 1;
nodes = (
"720 416 OFFCURVE",
"638 459 OFFCURVE",
"584 526 OFFCURVE",
"584 556 OFFCURVE",
"640 610 OFFCURVE",
"694 611 OFFCURVE",
"851 534 OFFCURVE",
"852 509 OFFCURVE",
"838 482 OFFCURVE",
"800 460 OFFCURVE",
"768 416 OFFCURVE",
"750 416 QCURVE SMOOTH"
);
},
{
closed = 1;
nodes = (
"1143 27 OFFCURVE",
"1203 91 OFFCURVE",
"1206 155 OFFCURVE",
"1145 234 OFFCURVE",
"1053 237 OFFCURVE",
"1006 160 OFFCURVE",
"1008 94 OFFCURVE",
"1081 28 OFFCURVE",
"1108 28 QCURVE"
);
}
);
width = 1194;
},
{
layerId = "2A439511-CA4B-4C8E-8DEB-A9BDC8F58CF8";
paths = (
{
closed = 1;
nodes = (
"1078 1154 OFFCURVE",
"1072 1208 OFFCURVE",
"1058 1262 CURVE",
"1042 1302 OFFCURVE",
"1040 1348 OFFCURVE",
"1046 1392 CURVE",
"1052 1418 OFFCURVE",
"1052 1450 OFFCURVE",
"1048 1480 CURVE SMOOTH",
"1036 1592 OFFCURVE",
"934 1664 OFFCURVE",
"838 1626 CURVE",
"774 1598 OFFCURVE",
"738 1540 OFFCURVE",
"732 1466 CURVE SMOOTH",
"730 1442 OFFCURVE",
"732 1416 OFFCURVE",
"732 1392 CURVE",
"736 1344 OFFCURVE",
"730 1300 OFFCURVE",
"714 1256 CURVE SMOOTH",
"702 1222 OFFCURVE",
"694 1190 OFFCURVE",
"684 1158 CURVE",
"682 1144 OFFCURVE",
"676 1126 OFFCURVE",
"670 1110 CURVE",
"658 1074 OFFCURVE",
"634 1058 OFFCURVE",
"598 1058 CURVE SMOOTH",
"582 1058 OFFCURVE",
"564 1058 OFFCURVE",
"546 1060 CURVE",
"442 1066 OFFCURVE",
"354 1028 OFFCURVE",
"292 932 CURVE",
"264 892 OFFCURVE",
"228 858 OFFCURVE",
"188 836 CURVE",
"160 818 LINE",
"108 778 OFFCURVE",
"74 726 OFFCURVE",
"64 660 CURVE SMOOTH",
"52 592 OFFCURVE",
"48 522 OFFCURVE",
"58 454 CURVE",
"66 380 OFFCURVE",
"104 324 OFFCURVE",
"170 288 CURVE",
"184 282 OFFCURVE",
"200 272 OFFCURVE",
"218 266 CURVE SMOOTH",
"246 256 OFFCURVE",
"270 232 OFFCURVE",
"286 198 CURVE",
"294 172 OFFCURVE",
"306 142 OFFCURVE",
"324 118 CURVE",
"362 54 OFFCURVE",
"416 16 OFFCURVE",
"490 6 CURVE SMOOTH",
"534 0 OFFCURVE",
"576 10 OFFCURVE",
"614 30 CURVE",
"656 50 OFFCURVE",
"700 68 OFFCURVE",
"746 74 CURVE",
"794 78 OFFCURVE",
"838 102 OFFCURVE",
"868 142 CURVE SMOOTH",
"892 176 OFFCURVE",
"918 196 OFFCURVE",
"954 214 CURVE SMOOTH",
"1004 240 OFFCURVE",
"1034 290 OFFCURVE",
"1036 350 CURVE SMOOTH",
"1036 394 OFFCURVE",
"1048 426 OFFCURVE",
"1078 454 CURVE SMOOTH",
"1128 498 OFFCURVE",
"1126 566 OFFCURVE",
"1096 608 CURVE SMOOTH",
"1070 646 OFFCURVE",
"1066 682 OFFCURVE",
"1082 722 CURVE",
"1106 796 OFFCURVE",
"1108 874 OFFCURVE",
"1088 948 CURVE SMOOTH",
"1076 998 OFFCURVE",
"1072 1048 OFFCURVE",
"1076 1098 CURVE"
);
},
{
closed = 1;
nodes = (
"688 608 OFFCURVE",
"696 608 OFFCURVE",
"706 604 CURVE",
"746 586 OFFCURVE",
"792 568 OFFCURVE",
"832 546 CURVE SMOOTH",
"850 536 OFFCURVE",
"854 512 OFFCURVE",
"842 498 CURVE",
"824 474 OFFCURVE",
"800 454 OFFCURVE",
"780 432 CURVE",
"762 418 OFFCURVE",
"740 414 OFFCURVE",
"718 420 CURVE",
"670 438 OFFCURVE",
"628 468 OFFCURVE",
"596 510 CURVE SMOOTH",
"582 528 OFFCURVE",
"584 552 OFFCURVE",
"598 572 CURVE",
"622 596 OFFCURVE",
"650 610 OFFCURVE",
"690 608 CURVE"
);
},
{
closed = 1;
nodes = (
"1206 186 OFFCURVE",
"1162 234 OFFCURVE",
"1100 234 CURVE",
"1048 238 OFFCURVE",
"1010 198 OFFCURVE",
"1008 146 CURVE SMOOTH",
"1004 86 OFFCURVE",
"1052 28 OFFCURVE",
"1108 28 CURVE",
"1158 24 OFFCURVE",
"1202 68 OFFCURVE",
"1206 122 CURVE"
);
}
);
width = 1194;
},
{
layerId = "0BD0D975-F19E-4ACA-9A31-41147C737F0B";
width = 600;
}
);
note = D;
unicode = 0044;
},
{
color = 0;
glyphname = E;
lastChange = "2019-02-10 19:10:17 +0000";
layers = (
{
layerId = "BCBE6FB0-8B5B-4728-88BC-6AD881489723";
paths = (
{
closed = 1;
nodes = (
"443 -34 OFFCURVE",
"506 -10 OFFCURVE",
"548 -10 OFFCURVE",
"627 -38 OFFCURVE",
"667 -38 OFFCURVE",
"718 -12 OFFCURVE",
"740 38 OFFCURVE",
"750 36 OFFCURVE",
"779 21 OFFCURVE",
"826 4 OFFCURVE",
"896 6 OFFCURVE",
"956 54 OFFCURVE",
"974 134 OFFCURVE",
"994 150 OFFCURVE",
"1060 150 OFFCURVE",
"1112 190 OFFCURVE",
"1112 269 OFFCURVE",
"1070 316 OFFCURVE",
"1015 316 OFFCURVE",
"964 286 OFFCURVE",
"932 224 OFFCURVE",
"924 224 OFFCURVE",
"866 236 OFFCURVE",
"794 220 OFFCURVE",
"740 152 OFFCURVE",
"715 140 OFFCURVE",
"674 141 OFFCURVE",
"628 194 OFFCURVE",
"628 254 OFFCURVE",
"662 288 OFFCURVE",
"697 288 OFFCURVE",
"744 273 OFFCURVE",
"776 273 OFFCURVE",
"836 296 OFFCURVE",
"868 358 QCURVE SMOOTH",
"878 377 OFFCURVE",
"878 388 QCURVE",
"884 390 OFFCURVE",
"920 398 QCURVE SMOOTH",
"949 402 OFFCURVE",
"960 408 QCURVE",
"964 410 OFFCURVE",
"982 420 QCURVE SMOOTH",
"997 428 OFFCURVE",
"1032 445 OFFCURVE",
"1046 450 QCURVE",
"1078 469 OFFCURVE",
"1110 514 OFFCURVE",
"1110 544 QCURVE SMOOTH",
"1110 578 OFFCURVE",
"1119 634 OFFCURVE",
"1130 690 QCURVE SMOOTH",
"1141 741 OFFCURVE",
"1108 834 OFFCURVE",
"1034 898 OFFCURVE",
"984 908 QCURVE",
"932 908 LINE SMOOTH",
"902 908 OFFCURVE",
"854 934 OFFCURVE",
"826 960 QCURVE SMOOTH",
"810 976 OFFCURVE",
"774 1009 OFFCURVE",
"754 1022 QCURVE SMOOTH",
"691 1061 OFFCURVE",
"560 1046 OFFCURVE",
"514 992 QCURVE",
"476 954 OFFCURVE",
"460 918 QCURVE",
"450 908 OFFCURVE",
"440 891 OFFCURVE",
"440 878 QCURVE",
"433 856 OFFCURVE",
"393 841 OFFCURVE",
"280 850 OFFCURVE",
"239 848 OFFCURVE",
"94 724 OFFCURVE",
"39 532 OFFCURVE",
"40 438 OFFCURVE",
"102 340 OFFCURVE",
"206 296 OFFCURVE",
"210 264 OFFCURVE",
"184 144 OFFCURVE",
"296 -36 OFFCURVE",
"414 -34 QCURVE SMOOTH"
);
},
{
closed = 1;
nodes = (
"700 640 LINE",
"744 647 OFFCURVE",
"822 599 OFFCURVE",
"858 554 QCURVE",
"858 524 OFFCURVE",
"868 512 QCURVE",
"868 504 OFFCURVE",
"852 492 OFFCURVE",
"836 492 QCURVE SMOOTH",
"826 492 LINE",
"794 500 OFFCURVE",
"743 500 OFFCURVE",
"710 492 QCURVE",
"692 492 OFFCURVE",
"674 495 OFFCURVE",
"660 502 QCURVE",
"621 514 OFFCURVE",
"576 531 OFFCURVE",
"556 544 QCURVE",
"541 551 OFFCURVE",
"524 577 OFFCURVE",
"524 596 OFFCURVE",
"549 628 OFFCURVE",
"564 628 QCURVE",
"587 636 OFFCURVE",
"629 640 OFFCURVE",
"660 640 QCURVE SMOOTH"
);
}
);
width = 1192;
},
{
layerId = "2A439511-CA4B-4C8E-8DEB-A9BDC8F58CF8";
paths = (
{
closed = 1;
nodes = (
"910 398 OFFCURVE",
"942 398 OFFCURVE",
"960 408 CURVE",
"984 420 OFFCURVE",
"1016 440 OFFCURVE",
"1046 450 CURVE",
"1086 474 OFFCURVE",
"1110 502 OFFCURVE",
"1110 544 CURVE SMOOTH",
"1110 596 OFFCURVE",
"1120 640 OFFCURVE",
"1130 690 CURVE SMOOTH",
"1152 794 OFFCURVE",
"1086 888 OFFCURVE",
"984 908 CURVE",
"932 908 LINE SMOOTH",
"888 908 OFFCURVE",
"858 930 OFFCURVE",
"826 960 CURVE SMOOTH",
"804 982 OFFCURVE",
"784 1002 OFFCURVE",
"754 1022 CURVE SMOOTH",
"670 1074 OFFCURVE",
"576 1064 OFFCURVE",
"514 992 CURVE",
"494 972 OFFCURVE",
"474 950 OFFCURVE",
"460 918 CURVE",
"450 908 OFFCURVE",
"440 898 OFFCURVE",
"440 878 CURVE",
"430 848 OFFCURVE",
"400 836 OFFCURVE",
"380 848 CURVE",
"326 848 LINE SMOOTH",
"242 848 OFFCURVE",
"168 814 OFFCURVE",
"116 734 CURVE",
"98 680 OFFCURVE",
"74 628 OFFCURVE",
"54 576 CURVE",
"22 482 OFFCURVE",
"44 408 OFFCURVE",
"116 348 CURVE",
"138 336 OFFCURVE",
"148 326 OFFCURVE",
"158 316 CURVE",
"188 294 OFFCURVE",
"198 274 OFFCURVE",
"198 244 CURVE SMOOTH",
"198 160 LINE",
"212 66 OFFCURVE",
"272 -16 OFFCURVE",
"368 -26 CURVE",
"410 -38 OFFCURVE",
"440 -38 OFFCURVE",
"484 -16 CURVE",
"524 -8 OFFCURVE",
"556 -8 OFFCURVE",
"598 -26 CURVE",
"640 -48 OFFCURVE",
"680 -38 OFFCURVE",
"710 -8 CURVE SMOOTH",
"724 6 OFFCURVE",
"734 26 OFFCURVE",
"744 36 CURVE",
"764 26 OFFCURVE",
"784 26 OFFCURVE",
"794 16 CURVE",
"868 -16 OFFCURVE",
"942 16 OFFCURVE",
"960 86 CURVE",
"972 110 OFFCURVE",
"972 130 OFFCURVE",
"984 140 CURVE",
"994 150 OFFCURVE",
"1006 150 OFFCURVE",
"1006 150 CURVE",
"1026 150 OFFCURVE",
"1046 150 OFFCURVE",
"1066 160 CURVE",
"1100 170 OFFCURVE",
"1120 212 OFFCURVE",
"1110 244 CURVE",
"1110 286 OFFCURVE",
"1076 316 OFFCURVE",
"1036 316 CURVE SMOOTH",
"1006 316 OFFCURVE",
"984 294 OFFCURVE",
"960 274 CURVE",
"952 264 OFFCURVE",
"942 244 OFFCURVE",
"932 224 CURVE",
"878 224 LINE",
"826 234 OFFCURVE",
"784 212 OFFCURVE",
"754 170 CURVE",
"744 160 OFFCURVE",
"734 140 OFFCURVE",
"700 140 CURVE SMOOTH",
"700 140 OFFCURVE",
"690 140 OFFCURVE",
"680 150 CURVE",
"640 170 OFFCURVE",
"628 190 OFFCURVE",
"628 234 CURVE",
"640 274 OFFCURVE",
"660 294 OFFCURVE",
"690 286 CURVE",
"710 286 OFFCURVE",
"734 274 OFFCURVE",
"744 274 CURVE SMOOTH",
"794 274 OFFCURVE",
"826 286 OFFCURVE",
"858 326 CURVE",
"868 348 OFFCURVE",
"868 370 OFFCURVE",
"878 388 CURVE"
);
},
{
closed = 1;
nodes = (
"700 640 LINE",
"764 650 OFFCURVE",
"816 606 OFFCURVE",
"858 554 CURVE",
"858 544 OFFCURVE",
"858 524 OFFCURVE",
"868 512 CURVE",
"868 502 OFFCURVE",
"858 492 OFFCURVE",
"836 492 CURVE SMOOTH",
"826 492 LINE",
"784 502 OFFCURVE",
"754 502 OFFCURVE",
"710 492 CURVE",
"690 492 OFFCURVE",
"680 492 OFFCURVE",
"660 502 CURVE",
"628 512 OFFCURVE",
"586 524 OFFCURVE",
"556 544 CURVE",
"534 554 OFFCURVE",
"524 576 OFFCURVE",
"524 586 CURVE",
"534 618 OFFCURVE",
"544 628 OFFCURVE",
"564 628 CURVE",
"598 640 OFFCURVE",
"628 640 OFFCURVE",
"660 640 CURVE SMOOTH"
);
}
);
width = 1192;
},
{
layerId = "0BD0D975-F19E-4ACA-9A31-41147C737F0B";
width = 600;
}
);
note = E;
unicode = 0045;
},
{
color = 0;
glyphname = F;
lastChange = "2019-02-10 19:10:17 +0000";
layers = (
{
layerId = "BCBE6FB0-8B5B-4728-88BC-6AD881489723";
paths = (
{
closed = 1;
nodes = (
"546 1264 OFFCURVE",
"672 1264 OFFCURVE",
"791 1386 OFFCURVE",
"793 1514 OFFCURVE",
"695 1636 OFFCURVE",
"578 1636 OFFCURVE",
"487 1578 OFFCURVE",
"454 1490 OFFCURVE",
"424 1441 OFFCURVE",
"402 1428 OFFCURVE",
"328 1436 OFFCURVE",
"240 1440 OFFCURVE",
"143 1344 OFFCURVE",
"140 1268 QCURVE",
"134 1242 OFFCURVE",
"140 1214 QCURVE",
"140 1148 OFFCURVE",
"110 1078 QCURVE",
"48 980 LINE SMOOTH",
"10 921 OFFCURVE",
"6 798 OFFCURVE",
"40 738 QCURVE",
"57 701 OFFCURVE",
"86 658 QCURVE",
"149 539 OFFCURVE",
"251 470 OFFCURVE",
"282 444 OFFCURVE",
"282 418 OFFCURVE",
"246 364 OFFCURVE",
"220 286 OFFCURVE",
"220 244 OFFCURVE",
"280 145 OFFCURVE",
"284 137 OFFCURVE",
"301 110 OFFCURVE",
"357 9 OFFCURVE",
"403 -24 OFFCURVE",
"444 -22 OFFCURVE",
"500 63 OFFCURVE",
"499 117 OFFCURVE",
"479 198 OFFCURVE",
"479 248 OFFCURVE",
"492 282 OFFCURVE",
"522 294 QCURVE SMOOTH",
"539 300 OFFCURVE",
"575 311 OFFCURVE",
"586 320 QCURVE",
"633 345 OFFCURVE",
"684 432 OFFCURVE",
"684 520 OFFCURVE",
"636 630 OFFCURVE",
"548 700 OFFCURVE",
"548 718 QCURVE SMOOTH",
"548 736 OFFCURVE",
"628 758 OFFCURVE",
"668 812 OFFCURVE",
"671 860 OFFCURVE",
"634 930 OFFCURVE",
"586 930 OFFCURVE",
"548 914 OFFCURVE",
"522 914 OFFCURVE",
"488 948 OFFCURVE",
"460 1158 OFFCURVE",
"464 1202 OFFCURVE",
"508 1270 OFFCURVE"
);
}
);
width = 746;
},
{
layerId = "2A439511-CA4B-4C8E-8DEB-A9BDC8F58CF8";
paths = (
{
closed = 1;
nodes = (
"568 1270 LINE SMOOTH",
"590 1270 OFFCURVE",
"608 1268 OFFCURVE",
"624 1270 CURVE SMOOTH",
"666 1274 OFFCURVE",
"704 1292 OFFCURVE",
"734 1322 CURVE SMOOTH",
"796 1386 OFFCURVE",
"808 1494 OFFCURVE",
"754 1566 CURVE",
"704 1638 OFFCURVE",
"608 1656 OFFCURVE",
"536 1606 CURVE",
"500 1584 OFFCURVE",
"476 1550 OFFCURVE",
"460 1514 CURVE",
"450 1498 OFFCURVE",
"444 1482 OFFCURVE",
"440 1466 CURVE",
"420 1434 OFFCURVE",
"412 1426 OFFCURVE",
"378 1432 CURVE",
"354 1434 OFFCURVE",
"334 1440 OFFCURVE",
"314 1440 CURVE SMOOTH",
"216 1440 OFFCURVE",
"144 1370 OFFCURVE",
"140 1268 CURVE",
"136 1250 OFFCURVE",
"136 1234 OFFCURVE",
"140 1214 CURVE",
"140 1166 OFFCURVE",
"128 1120 OFFCURVE",
"110 1078 CURVE",
"48 980 LINE SMOOTH",
"-2 902 OFFCURVE",
"-6 818 OFFCURVE",
"40 738 CURVE",
"54 708 OFFCURVE",
"70 682 OFFCURVE",
"86 658 CURVE",
"126 582 OFFCURVE",
"176 520 OFFCURVE",
"246 472 CURVE",
"252 470 OFFCURVE",
"254 468 OFFCURVE",
"262 462 CURVE",
"284 444 OFFCURVE",
"286 424 OFFCURVE",
"270 398 CURVE",
"264 384 OFFCURVE",
"254 374 OFFCURVE",
"250 360 CURVE",
"216 310 OFFCURVE",
"216 256 OFFCURVE",
"250 202 CURVE SMOOTH",
"262 182 OFFCURVE",
"274 156 OFFCURVE",
"286 132 CURVE",
"308 100 OFFCURVE",
"324 64 OFFCURVE",
"346 32 CURVE",
"354 16 OFFCURVE",
"366 2 OFFCURVE",
"378 -8 CURVE",
"412 -30 OFFCURVE",
"452 -22 OFFCURVE",
"474 10 CURVE",
"484 26 OFFCURVE",
"490 46 OFFCURVE",
"490 60 CURVE SMOOTH",
"490 114 OFFCURVE",
"496 170 OFFCURVE",
"484 220 CURVE SMOOTH",
"474 264 OFFCURVE",
"482 278 OFFCURVE",
"522 294 CURVE SMOOTH",
"544 302 OFFCURVE",
"568 306 OFFCURVE",
"586 320 CURVE",
"682 370 OFFCURVE",
"712 486 OFFCURVE",
"656 582 CURVE",
"640 606 OFFCURVE",
"618 628 OFFCURVE",
"598 652 CURVE",
"586 668 OFFCURVE",
"570 680 OFFCURVE",
"562 698 CURVE",
"546 720 OFFCURVE",
"552 738 OFFCURVE",
"576 746 CURVE SMOOTH",
"594 752 OFFCURVE",
"616 756 OFFCURVE",
"634 770 CURVE SMOOTH",
"662 792 OFFCURVE",
"672 818 OFFCURVE",
"666 854 CURVE",
"662 890 OFFCURVE",
"640 914 OFFCURVE",
"608 920 CURVE",
"592 922 OFFCURVE",
"576 922 OFFCURVE",
"562 920 CURVE",
"550 920 OFFCURVE",
"540 918 OFFCURVE",
"530 918 CURVE",
"516 914 OFFCURVE",
"508 920 OFFCURVE",
"500 932 CURVE",
"498 942 OFFCURVE",
"492 946 OFFCURVE",
"492 956 CURVE",
"482 1014 OFFCURVE",
"472 1070 OFFCURVE",
"464 1130 CURVE SMOOTH",
"460 1164 OFFCURVE",
"466 1196 OFFCURVE",
"476 1226 CURVE SMOOTH",
"490 1266 OFFCURVE",
"498 1270 OFFCURVE",
"540 1270 CURVE SMOOTH"
);
}
);
width = 746;
},
{
layerId = "0BD0D975-F19E-4ACA-9A31-41147C737F0B";
width = 600;
}
);
note = F;
unicode = 0046;
},
{
color = 0;
glyphname = G;
lastChange = "2019-02-10 19:10:17 +0000";
layers = (
{
layerId = "BCBE6FB0-8B5B-4728-88BC-6AD881489723";
paths = (
{
closed = 1;
nodes = (
"672 -440 OFFCURVE",
"750 -317 OFFCURVE",
"802 -274 OFFCURVE",
"845 -258 OFFCURVE",
"876 -246 OFFCURVE",
"940 -203 OFFCURVE",
"986 -116 OFFCURVE",
"986 -73 OFFCURVE",
"980 -32 OFFCURVE",
"963 58 OFFCURVE",
"964 103 OFFCURVE",
"946 139 OFFCURVE",
"946 158 OFFCURVE",
"965 185 OFFCURVE",
"1002 248 OFFCURVE",
"996 292 OFFCURVE",
"952 342 OFFCURVE",
"900 366 OFFCURVE",
"900 398 OFFCURVE",
"924 445 OFFCURVE",
"924 466 QCURVE SMOOTH",
"924 495 OFFCURVE",
"943 557 OFFCURVE",
"962 580 QCURVE",
"989 605 OFFCURVE",
"989 661 OFFCURVE",
"962 692 QCURVE",
"958 692 OFFCURVE",
"949 706 OFFCURVE",
"944 706 QCURVE",
"921 721 OFFCURVE",
"918 764 OFFCURVE",
"936 790 QCURVE",
"940 800 OFFCURVE",
"944 822 QCURVE SMOOTH",
"948 850 OFFCURVE",
"954 860 QCURVE",
"960 939 OFFCURVE",
"875 1052 OFFCURVE",
"798 1070 QCURVE",
"765 1070 OFFCURVE",
"715 1062 OFFCURVE",
"694 1046 QCURVE",
"663 1037 OFFCURVE",
"632 1016 QCURVE",
"617 1012 OFFCURVE",
"588 1004 OFFCURVE",
"562 1007 OFFCURVE",
"548 1016 QCURVE",
"540 1016 OFFCURVE",
"526 1024 QCURVE SMOOTH",
"520 1026 OFFCURVE",
"510 1030 OFFCURVE",
"506 1030 QCURVE",
"492 1037 OFFCURVE",
"453 1046 OFFCURVE",
"444 1046 QCURVE SMOOTH",
"404 1046 OFFCURVE",
"297 1005 OFFCURVE",
"266 966 QCURVE SMOOTH",
"235 928 OFFCURVE",
"187 886 OFFCURVE",
"150 872 QCURVE",
"94 832 OFFCURVE",
"47 731 OFFCURVE",
"56 662 QCURVE",
"75 597 OFFCURVE",
"56 516 QCURVE",
"39 487 OFFCURVE",
"56 452 QCURVE",
"65 407 OFFCURVE",
"112 346 OFFCURVE",
"150 328 QCURVE",
"187 314 OFFCURVE",
"248 270 OFFCURVE",
"286 234 QCURVE",
"324 201 OFFCURVE",
"400 159 OFFCURVE",
"444 152 QCURVE",
"516 152 LINE",
"543 142 OFFCURVE",
"568 113 OFFCURVE",
"578 86 QCURVE",
"578 56 OFFCURVE",
"582 17 OFFCURVE",
"590 -36 OFFCURVE",
"588 -72 OFFCURVE",
"484 -154 OFFCURVE",
"429 -256 OFFCURVE",
"432 -331 OFFCURVE",
"548 -440 OFFCURVE",
"612 -440 QCURVE SMOOTH"
);
},
{
closed = 1;
nodes = (
"627 560 OFFCURVE",
"548 596 OFFCURVE",
"528 614 OFFCURVE",
"510 636 OFFCURVE",
"513 672 OFFCURVE",
"583 726 OFFCURVE",
"632 723 OFFCURVE",
"668 707 OFFCURVE",
"715 691 OFFCURVE",
"779 665 OFFCURVE",
"784 637 OFFCURVE",
"750 607 OFFCURVE",
"729 597 OFFCURVE",
"712 592 OFFCURVE",
"702 576 OFFCURVE",
"666 560 OFFCURVE",
"636 556 QCURVE"
);
}
);
width = 1036;
},
{
layerId = "2A439511-CA4B-4C8E-8DEB-A9BDC8F58CF8";
paths = (
{
closed = 1;
nodes = (
"360 1046 OFFCURVE",
"306 1016 OFFCURVE",
"266 966 CURVE SMOOTH",
"232 924 OFFCURVE",
"204 892 OFFCURVE",
"150 872 CURVE",
"76 820 OFFCURVE",
"44 756 OFFCURVE",
"56 662 CURVE",
"68 620 OFFCURVE",
"68 568 OFFCURVE",
"56 516 CURVE",
"44 496 OFFCURVE",
"44 476 OFFCURVE",
"56 452 CURVE",
"68 390 OFFCURVE",
"100 352 OFFCURVE",
"150 328 CURVE",
"204 308 OFFCURVE",
"242 276 OFFCURVE",
"286 234 CURVE",
"330 196 OFFCURVE",
"380 162 OFFCURVE",
"444 152 CURVE",
"516 152 LINE",
"554 138 OFFCURVE",
"566 120 OFFCURVE",
"578 86 CURVE",
"578 56 OFFCURVE",
"578 24 OFFCURVE",
"590 4 CURVE",
"590 -58 OFFCURVE",
"578 -98 OFFCURVE",
"524 -132 CURVE",
"494 -148 OFFCURVE",
"486 -174 OFFCURVE",
"462 -194 CURVE",
"444 -216 OFFCURVE",
"432 -236 OFFCURVE",
"432 -266 CURVE SMOOTH",
"432 -318 OFFCURVE",
"454 -360 OFFCURVE",
"486 -392 CURVE",
"548 -442 OFFCURVE",
"620 -456 OFFCURVE",
"682 -412 CURVE",
"706 -392 OFFCURVE",
"726 -370 OFFCURVE",
"736 -352 CURVE",
"756 -300 OFFCURVE",
"798 -276 OFFCURVE",
"840 -258 CURVE",
"850 -258 OFFCURVE",
"870 -246 OFFCURVE",
"882 -246 CURVE",
"912 -224 OFFCURVE",
"944 -194 OFFCURVE",
"962 -148 CURVE",
"976 -118 OFFCURVE",
"984 -80 OFFCURVE",
"976 -48 CURVE",
"976 -6 OFFCURVE",
"962 38 OFFCURVE",
"962 80 CURVE",
"954 152 OFFCURVE",
"936 138 OFFCURVE",
"976 212 CURVE",
"1008 264 OFFCURVE",
"984 308 OFFCURVE",
"944 338 CURVE",
"944 338 OFFCURVE",
"936 352 OFFCURVE",
"924 352 CURVE",
"900 370 OFFCURVE",
"900 384 OFFCURVE",
"900 402 CURVE",
"912 422 OFFCURVE",
"924 444 OFFCURVE",
"924 466 CURVE SMOOTH",
"924 506 OFFCURVE",
"936 548 OFFCURVE",
"962 580 CURVE",
"998 610 OFFCURVE",
"998 650 OFFCURVE",
"962 692 CURVE",
"954 692 OFFCURVE",
"954 706 OFFCURVE",
"944 706 CURVE",
"912 726 OFFCURVE",
"912 756 OFFCURVE",
"936 790 CURVE",
"944 810 OFFCURVE",
"944 840 OFFCURVE",
"954 860 CURVE",
"962 966 OFFCURVE",
"900 1046 OFFCURVE",
"798 1070 CURVE",
"768 1070 OFFCURVE",
"726 1070 OFFCURVE",
"694 1046 CURVE",
"672 1040 OFFCURVE",
"652 1030 OFFCURVE",
"632 1016 CURVE",
"602 1008 OFFCURVE",
"578 996 OFFCURVE",
"548 1016 CURVE",
"536 1016 OFFCURVE",
"516 1030 OFFCURVE",
"506 1030 CURVE",
"486 1040 OFFCURVE",
"454 1046 OFFCURVE",
"444 1046 CURVE SMOOTH"
);
},
{
closed = 1;
nodes = (
"620 726 OFFCURVE",
"632 726 OFFCURVE",
"640 714 CURVE",
"682 706 OFFCURVE",
"714 692 OFFCURVE",
"756 674 CURVE",
"788 662 OFFCURVE",
"788 642 OFFCURVE",
"768 620 CURVE",
"744 602 OFFCURVE",
"736 602 OFFCURVE",
"714 590 CURVE",
"672 548 OFFCURVE",
"632 560 OFFCURVE",
"578 580 CURVE",
"554 590 OFFCURVE",
"548 602 OFFCURVE",
"524 620 CURVE",
"506 632 OFFCURVE",
"506 650 OFFCURVE",
"524 674 CURVE SMOOTH",
"548 706 OFFCURVE",
"566 726 OFFCURVE",
"620 726 CURVE"
);
}
);
width = 1036;
},
{
layerId = "0BD0D975-F19E-4ACA-9A31-41147C737F0B";
width = 600;
}
);
note = G;
unicode = 0047;
},
{
color = 0;
glyphname = H;
lastChange = "2019-02-10 19:10:17 +0000";
layers = (
{
layerId = "BCBE6FB0-8B5B-4728-88BC-6AD881489723";
paths = (
{
closed = 1;
nodes = (
"672 550 OFFCURVE",
"680 550 OFFCURVE",
"680 540 CURVE",
"710 510 OFFCURVE",
"720 480 OFFCURVE",
"730 452 CURVE SMOOTH",
"740 422 OFFCURVE",
"750 392 OFFCURVE",
"760 372 CURVE",
"788 334 OFFCURVE",
"818 314 OFFCURVE",
"868 324 CURVE SMOOTH",
"916 334 OFFCURVE",
"946 372 OFFCURVE",
"956 412 CURVE",
"956 422 OFFCURVE",
"966 432 OFFCURVE",
"956 442 CURVE",
"956 500 OFFCURVE",
"966 550 OFFCURVE",
"994 598 CURVE",
"1004 608 OFFCURVE",
"1004 618 OFFCURVE",
"1004 618 CURVE",
"1024 696 OFFCURVE",
"994 766 OFFCURVE",
"946 804 CURVE",
"916 824 OFFCURVE",
"886 844 OFFCURVE",
"858 844 CURVE SMOOTH",
"798 844 OFFCURVE",
"760 864 OFFCURVE",
"740 922 CURVE",
"720 962 OFFCURVE",
"680 980 OFFCURVE",
"632 980 CURVE SMOOTH",
"612 980 OFFCURVE",
"602 970 OFFCURVE",
"582 970 CURVE",
"534 962 OFFCURVE",
"524 962 OFFCURVE",
"504 1010 CURVE",
"504 1020 OFFCURVE",
"504 1030 OFFCURVE",
"494 1050 CURVE",
"484 1088 OFFCURVE",
"474 1128 OFFCURVE",
"466 1168 CURVE",
"446 1206 OFFCURVE",
"446 1256 OFFCURVE",
"446 1304 CURVE",
"456 1334 OFFCURVE",
"456 1374 OFFCURVE",
"446 1402 CURVE",
"426 1472 OFFCURVE",
"358 1540 OFFCURVE",
"270 1530 CURVE SMOOTH",
"190 1520 OFFCURVE",
"132 1462 OFFCURVE",
"122 1382 CURVE",
"122 1294 LINE",
"132 1186 OFFCURVE",
"82 1088 OFFCURVE",
"54 990 CURVE",
"54 980 LINE",
"14 942 OFFCURVE",
"14 892 OFFCURVE",
"34 834 CURVE SMOOTH",
"44 804 OFFCURVE",
"44 774 OFFCURVE",
"54 746 CURVE",
"64 686 OFFCURVE",
"82 638 OFFCURVE",
"102 588 CURVE",
"122 560 OFFCURVE",
"142 530 OFFCURVE",
"152 500 CURVE",
"180 442 OFFCURVE",
"200 382 OFFCURVE",
"190 314 CURVE",
"190 274 OFFCURVE",
"200 226 OFFCURVE",
"220 196 CURVE",
"260 128 OFFCURVE",
"298 58 OFFCURVE",
"348 0 CURVE",
"358 -20 OFFCURVE",
"368 -30 OFFCURVE",
"376 -40 CURVE",
"426 -88 OFFCURVE",
"494 -68 OFFCURVE",
"514 -10 CURVE",
"524 10 OFFCURVE",
"524 20 OFFCURVE",
"524 40 CURVE",
"534 98 OFFCURVE",
"534 156 OFFCURVE",
"524 216 CURVE",
"514 256 OFFCURVE",
"524 284 OFFCURVE",
"544 314 CURVE",
"574 344 LINE",
"602 382 OFFCURVE",
"622 432 OFFCURVE",
"632 490 CURVE",
"642 510 OFFCURVE",
"642 530 OFFCURVE",
"652 560 CURVE"
);
},
{
closed = 1;
nodes = (
"906 108 OFFCURVE",
"936 128 OFFCURVE",
"956 148 CURVE",
"956 156 OFFCURVE",
"966 176 OFFCURVE",
"956 186 CURVE",
"956 216 OFFCURVE",
"936 246 OFFCURVE",
"906 256 CURVE",
"878 274 OFFCURVE",
"838 264 OFFCURVE",
"818 246 CURVE",
"798 216 OFFCURVE",
"788 186 OFFCURVE",
"798 156 CURVE SMOOTH",
"808 128 OFFCURVE",
"838 108 OFFCURVE",
"878 108 CURVE SMOOTH"
);
}
);
width = 1048;
},
{
layerId = "2A439511-CA4B-4C8E-8DEB-A9BDC8F58CF8";
paths = (
{
closed = 1;
nodes = (
"672 550 OFFCURVE",
"680 550 OFFCURVE",
"680 540 CURVE",
"710 510 OFFCURVE",
"720 480 OFFCURVE",
"730 452 CURVE SMOOTH",
"740 422 OFFCURVE",
"750 392 OFFCURVE",
"760 372 CURVE",
"788 334 OFFCURVE",
"818 314 OFFCURVE",
"868 324 CURVE SMOOTH",
"916 334 OFFCURVE",
"946 372 OFFCURVE",
"956 412 CURVE",
"956 422 OFFCURVE",
"966 432 OFFCURVE",
"956 442 CURVE",
"956 500 OFFCURVE",
"966 550 OFFCURVE",
"994 598 CURVE",
"1004 608 OFFCURVE",
"1004 618 OFFCURVE",
"1004 618 CURVE",
"1024 696 OFFCURVE",
"994 766 OFFCURVE",
"946 804 CURVE",
"916 824 OFFCURVE",
"886 844 OFFCURVE",
"858 844 CURVE SMOOTH",
"798 844 OFFCURVE",
"760 864 OFFCURVE",
"740 922 CURVE",
"720 962 OFFCURVE",
"680 980 OFFCURVE",
"632 980 CURVE SMOOTH",
"612 980 OFFCURVE",
"602 970 OFFCURVE",
"582 970 CURVE",
"534 962 OFFCURVE",
"524 962 OFFCURVE",
"504 1010 CURVE",
"504 1020 OFFCURVE",
"504 1030 OFFCURVE",
"494 1050 CURVE",
"484 1088 OFFCURVE",
"474 1128 OFFCURVE",
"466 1168 CURVE",
"446 1206 OFFCURVE",
"446 1256 OFFCURVE",
"446 1304 CURVE",
"456 1334 OFFCURVE",
"456 1374 OFFCURVE",
"446 1402 CURVE",
"426 1472 OFFCURVE",
"358 1540 OFFCURVE",
"270 1530 CURVE SMOOTH",
"190 1520 OFFCURVE",
"132 1462 OFFCURVE",
"122 1382 CURVE",
"122 1294 LINE",
"132 1186 OFFCURVE",
"82 1088 OFFCURVE",
"54 990 CURVE",
"54 980 LINE",
"14 942 OFFCURVE",
"14 892 OFFCURVE",
"34 834 CURVE SMOOTH",
"44 804 OFFCURVE",
"44 774 OFFCURVE",
"54 746 CURVE",
"64 686 OFFCURVE",
"82 638 OFFCURVE",
"102 588 CURVE",
"122 560 OFFCURVE",
"142 530 OFFCURVE",
"152 500 CURVE",
"180 442 OFFCURVE",
"200 382 OFFCURVE",
"190 314 CURVE",
"190 274 OFFCURVE",
"200 226 OFFCURVE",
"220 196 CURVE",
"260 128 OFFCURVE",
"298 58 OFFCURVE",
"348 0 CURVE",
"358 -20 OFFCURVE",
"368 -30 OFFCURVE",
"376 -40 CURVE",
"426 -88 OFFCURVE",
"494 -68 OFFCURVE",
"514 -10 CURVE",
"524 10 OFFCURVE",
"524 20 OFFCURVE",
"524 40 CURVE",
"534 98 OFFCURVE",
"534 156 OFFCURVE",
"524 216 CURVE",
"514 256 OFFCURVE",
"524 284 OFFCURVE",
"544 314 CURVE",
"574 344 LINE",
"602 382 OFFCURVE",
"622 432 OFFCURVE",
"632 490 CURVE",
"642 510 OFFCURVE",
"642 530 OFFCURVE",
"652 560 CURVE"
);
},
{
closed = 1;
nodes = (
"906 108 OFFCURVE",
"936 128 OFFCURVE",
"956 148 CURVE",
"956 156 OFFCURVE",
"966 176 OFFCURVE",
"956 186 CURVE",
"956 216 OFFCURVE",
"936 246 OFFCURVE",
"906 256 CURVE",
"878 274 OFFCURVE",
"838 264 OFFCURVE",
"818 246 CURVE",
"798 216 OFFCURVE",
"788 186 OFFCURVE",
"798 156 CURVE SMOOTH",
"808 128 OFFCURVE",
"838 108 OFFCURVE",
"878 108 CURVE SMOOTH"
);
}
);
width = 1048;
},
{
layerId = "0BD0D975-F19E-4ACA-9A31-41147C737F0B";
width = 600;
}
);
note = H;
unicode = 0048;
},
{
color = 1;
glyphname = I;
lastChange = "2019-02-10 19:10:17 +0000";
layers = (
{
layerId = "BCBE6FB0-8B5B-4728-88BC-6AD881489723";
paths = (
{
closed = 1;
nodes = (
"344 1058 OFFCURVE",
"434 1179 OFFCURVE",
"434 1274 OFFCURVE",
"338 1380 OFFCURVE",
"250 1382 OFFCURVE",
"196 1354 OFFCURVE",
"166 1324 OFFCURVE",
"96 1300 OFFCURVE",
"45 1298 OFFCURVE",
"12 1264 OFFCURVE",
"12 1210 OFFCURVE",
"40 1166 OFFCURVE",
"130 1140 OFFCURVE",
"188 1086 OFFCURVE",
"230 1088 OFFCURVE",
"252 1058 OFFCURVE",
"298 1058 QCURVE SMOOTH"
);
},
{
closed = 1;
nodes = (
"433 -66 OFFCURVE",
"477 -5 OFFCURVE",
"456 176 OFFCURVE",
"468 198 OFFCURVE",
"524 226 OFFCURVE",
"574 332 OFFCURVE",
"576 424 OFFCURVE",
"512 545 OFFCURVE",
"506 566 OFFCURVE",
"482 702 OFFCURVE",
"436 788 OFFCURVE",
"396 932 OFFCURVE",
"306 986 OFFCURVE",
"258 986 OFFCURVE",
"222 942 OFFCURVE",
"192 932 OFFCURVE",
"158 884 OFFCURVE",
"48 825 OFFCURVE",
"48 778 OFFCURVE",
"86 680 OFFCURVE",
"82 520 OFFCURVE",
"172 422 OFFCURVE",
"209 303 OFFCURVE",
"208 282 OFFCURVE",
"186 214 OFFCURVE",
"186 152 OFFCURVE",
"226 70 OFFCURVE",
"243 44 OFFCURVE",
"282 -22 OFFCURVE",
"346 -66 OFFCURVE",
"378 -66 QCURVE SMOOTH"
);
}
);
width = 620;
},
{
layerId = "2A439511-CA4B-4C8E-8DEB-A9BDC8F58CF8";
paths = (
{
closed = 1;
nodes = (
"434 1320 OFFCURVE",
"340 1418 OFFCURVE",
"222 1364 CURVE",
"170 1344 OFFCURVE",
"128 1310 OFFCURVE",
"64 1298 CURVE",
"32 1298 OFFCURVE",
"24 1270 OFFCURVE",
"12 1238 CURVE",
"12 1206 OFFCURVE",
"24 1184 OFFCURVE",
"54 1162 CURVE",
"64 1162 OFFCURVE",
"76 1152 OFFCURVE",
"86 1152 CURVE",
"118 1140 OFFCURVE",
"150 1122 OFFCURVE",
"182 1102 CURVE SMOOTH",
"200 1090 OFFCURVE",
"212 1080 OFFCURVE",
"234 1080 CURVE",
"264 1056 OFFCURVE",
"298 1056 OFFCURVE",
"330 1068 CURVE",
"392 1102 OFFCURVE",
"434 1162 OFFCURVE",
"434 1226 CURVE SMOOTH"
);
},
{
closed = 1;
nodes = (
"188 194 LINE",
"186 150 OFFCURVE",
"194 120 OFFCURVE",
"216 86 CURVE SMOOTH",
"236 54 OFFCURVE",
"256 24 OFFCURVE",
"276 -12 CURVE",
"314 -54 OFFCURVE",
"356 -78 OFFCURVE",
"410 -58 CURVE",
"454 -50 OFFCURVE",
"478 2 OFFCURVE",
"468 56 CURVE",
"468 86 LINE",
"460 98 OFFCURVE",
"460 110 OFFCURVE",
"460 120 CURVE",
"452 152 OFFCURVE",
"452 174 OFFCURVE",
"474 204 CURVE",
"494 214 OFFCURVE",
"506 224 OFFCURVE",
"516 232 CURVE",
"562 296 OFFCURVE",
"586 358 OFFCURVE",
"568 434 CURVE",
"558 454 OFFCURVE",
"548 476 OFFCURVE",
"540 498 CURVE",
"520 532 OFFCURVE",
"508 574 OFFCURVE",
"502 614 CURVE",
"492 658 OFFCURVE",
"484 690 OFFCURVE",
"466 734 CURVE",
"446 774 OFFCURVE",
"426 830 OFFCURVE",
"408 884 CURVE SMOOTH",
"398 916 OFFCURVE",
"376 940 OFFCURVE",
"346 960 CURVE",
"318 982 OFFCURVE",
"274 994 OFFCURVE",
"240 966 CURVE",
"218 954 OFFCURVE",
"208 936 OFFCURVE",
"186 926 CURVE",
"174 894 OFFCURVE",
"154 874 OFFCURVE",
"120 864 CURVE SMOOTH",
"56 844 OFFCURVE",
"34 804 OFFCURVE",
"62 740 CURVE",
"72 708 OFFCURVE",
"80 676 OFFCURVE",
"80 644 CURVE",
"78 592 OFFCURVE",
"98 536 OFFCURVE",
"116 494 CURVE",
"136 460 OFFCURVE",
"144 438 OFFCURVE",
"164 420 CURVE",
"194 354 OFFCURVE",
"212 290 OFFCURVE",
"188 216 CURVE"
);
}
);
width = 620;
},
{
layerId = "0BD0D975-F19E-4ACA-9A31-41147C737F0B";
width = 600;
}
);
note = I;
unicode = 0049;
},
{
color = 0;
glyphname = J;
lastChange = "2019-02-10 19:10:17 +0000";
layers = (
{
layerId = "BCBE6FB0-8B5B-4728-88BC-6AD881489723";
paths = (
{
closed = 1;
nodes = (
"454 1112 OFFCURVE",
"546 1212 OFFCURVE",
"544 1300 OFFCURVE",
"474 1394 OFFCURVE",
"378 1395 OFFCURVE",
"275 1291 OFFCURVE",
"276 1187 OFFCURVE",
"362 1112 OFFCURVE",
"416 1112 QCURVE SMOOTH"
);
},
{
closed = 1;
nodes = (
"360 -152 OFFCURVE",
"447 -93 OFFCURVE",
"468 -38 QCURVE",
"474 -25 OFFCURVE",
"478 -2 QCURVE SMOOTH",
"479 1 OFFCURVE",
"488 32 QCURVE",
"488 74 LINE SMOOTH",
"488 110 OFFCURVE",
"528 126 QCURVE",
"533 130 OFFCURVE",
"563 139 OFFCURVE",
"568 144 QCURVE",
"612 174 OFFCURVE",
"632 261 OFFCURVE",
"608 308 QCURVE",
"589 323 OFFCURVE",
"580 338 QCURVE",
"556 359 OFFCURVE",
"548 396 OFFCURVE",
"558 428 QCURVE",
"564 440 OFFCURVE",
"578 468 OFFCURVE",
"586 496 OFFCURVE",
"586 510 QCURVE",
"593 538 OFFCURVE",
"602 588 QCURVE SMOOTH",
"620 672 LINE",
"626 721 OFFCURVE",
"609 796 OFFCURVE",
"580 834 QCURVE",
"555 862 OFFCURVE",
"528 938 OFFCURVE",
"528 976 QCURVE SMOOTH",
"528 990 OFFCURVE",
"515 1019 OFFCURVE",
"508 1026 QCURVE",
"493 1056 OFFCURVE",
"457 1075 OFFCURVE",
"413 1074 OFFCURVE",
"348 1048 OFFCURVE",
"330 978 OFFCURVE",
"322 974 OFFCURVE",
"292 976 OFFCURVE",
"242 954 OFFCURVE",
"222 910 OFFCURVE",
"222 877 OFFCURVE",
"242 824 OFFCURVE",
"245 740 OFFCURVE",
"245 658 OFFCURVE",
"225 551 OFFCURVE",
"225 514 OFFCURVE",
"265 376 OFFCURVE",
"265 218 OFFCURVE",
"182 182 OFFCURVE",
"160 182 OFFCURVE",
"120 198 OFFCURVE",
"63 196 OFFCURVE",
"-6 138 OFFCURVE",
"-6 68 OFFCURVE",
"30 24 QCURVE",
"50 14 LINE SMOOTH",
"57 11 OFFCURVE",
"67 6 OFFCURVE",
"70 2 QCURVE",
"96 -6 OFFCURVE",
"135 -37 OFFCURVE",
"144 -58 QCURVE",
"157 -73 OFFCURVE",
"178 -92 QCURVE SMOOTH",
"248 -156 OFFCURVE",
"300 -154 QCURVE SMOOTH"
);
}
);
width = 690;
},
{
layerId = "2A439511-CA4B-4C8E-8DEB-A9BDC8F58CF8";
paths = (
{
closed = 1;
nodes = (
"568 1218 OFFCURVE",
"558 1310 OFFCURVE",
"498 1362 CURVE SMOOTH",
"446 1410 OFFCURVE",
"374 1402 OFFCURVE",
"326 1350 CURVE",
"262 1292 OFFCURVE",
"262 1190 OFFCURVE",
"326 1138 CURVE SMOOTH",
"374 1098 OFFCURVE",
"456 1098 OFFCURVE",
"508 1160 CURVE"
);
},
{
closed = 1;
nodes = (
"304 976 OFFCURVE",
"296 976 OFFCURVE",
"274 966 CURVE",
"236 954 OFFCURVE",
"214 914 OFFCURVE",
"224 866 CURVE",
"224 854 OFFCURVE",
"236 846 OFFCURVE",
"236 846 CURVE",
"242 824 OFFCURVE",
"242 794 OFFCURVE",
"242 776 CURVE",
"236 722 OFFCURVE",
"236 672 OFFCURVE",
"236 610 CURVE",
"224 562 OFFCURVE",
"236 500 OFFCURVE",
"254 438 CURVE",
"262 420 OFFCURVE",
"262 398 OFFCURVE",
"262 378 CURVE SMOOTH",
"262 266 LINE SMOOTH",
"262 238 OFFCURVE",
"254 204 OFFCURVE",
"214 196 CURVE",
"194 184 OFFCURVE",
"172 184 OFFCURVE",
"152 184 CURVE",
"132 196 OFFCURVE",
"112 196 OFFCURVE",
"82 196 CURVE",
"52 184 OFFCURVE",
"20 166 OFFCURVE",
"0 134 CURVE",
"-10 94 OFFCURVE",
"0 54 OFFCURVE",
"30 24 CURVE",
"52 12 OFFCURVE",
"62 12 OFFCURVE",
"70 2 CURVE",
"102 -8 OFFCURVE",
"132 -28 OFFCURVE",
"144 -58 CURVE",
"162 -80 OFFCURVE",
"184 -98 OFFCURVE",
"202 -118 CURVE",
"304 -188 OFFCURVE",
"426 -150 OFFCURVE",
"468 -38 CURVE",
"478 -16 OFFCURVE",
"478 2 OFFCURVE",
"488 32 CURVE",
"488 74 LINE SMOOTH",
"488 94 OFFCURVE",
"498 114 OFFCURVE",
"528 126 CURVE",
"538 134 OFFCURVE",
"558 134 OFFCURVE",
"568 144 CURVE",
"628 184 OFFCURVE",
"640 246 OFFCURVE",
"608 308 CURVE",
"598 316 OFFCURVE",
"586 328 OFFCURVE",
"580 338 CURVE",
"546 368 OFFCURVE",
"546 388 OFFCURVE",
"558 428 CURVE",
"568 450 OFFCURVE",
"586 480 OFFCURVE",
"586 510 CURVE",
"598 562 OFFCURVE",
"608 622 OFFCURVE",
"620 672 CURVE",
"628 734 OFFCURVE",
"620 782 OFFCURVE",
"580 834 CURVE",
"546 872 OFFCURVE",
"528 926 OFFCURVE",
"528 976 CURVE SMOOTH",
"528 996 OFFCURVE",
"516 1018 OFFCURVE",
"508 1026 CURVE",
"478 1088 OFFCURVE",
"408 1088 OFFCURVE",
"356 1038 CURVE",
"344 1018 OFFCURVE",
"336 996 OFFCURVE",
"326 976 CURVE"
);
}
);
width = 690;
},
{
layerId = "0BD0D975-F19E-4ACA-9A31-41147C737F0B";
width = 600;
}
);
note = J;
unicode = 004A;
},
{
color = 0;
glyphname = K;
lastChange = "2019-02-10 19:10:17 +0000";
layers = (
{
layerId = "BCBE6FB0-8B5B-4728-88BC-6AD881489723";
paths = (
{
closed = 1;
nodes = (
"262 -56 OFFCURVE",
"348 28 OFFCURVE",
"378 206 OFFCURVE",
"419 274 OFFCURVE",
"474 274 OFFCURVE",
"534 226 OFFCURVE",
"578 126 OFFCURVE",
"622 84 OFFCURVE",
"736 16 OFFCURVE",
"796 -48 OFFCURVE",
"887 -33 OFFCURVE",
"910 -28 OFFCURVE",
"960 -42 OFFCURVE",
"1038 -10 OFFCURVE",
"1178 14 OFFCURVE",
"1182 129 OFFCURVE",
"1140 204 OFFCURVE",
"1022 268 OFFCURVE",
"838 500 OFFCURVE",
"742 566 OFFCURVE",
"742 625 OFFCURVE",
"774 656 OFFCURVE",
"938 660 OFFCURVE",
"1146 766 OFFCURVE",
"1191 838 OFFCURVE",
"1191 1010 OFFCURVE",
"1050 1142 OFFCURVE",
"894 1145 OFFCURVE",
"818 1128 OFFCURVE",
"740 1033 OFFCURVE",
"728 914 OFFCURVE",
"710 854 OFFCURVE",
"683 808 OFFCURVE",
"607 770 OFFCURVE",
"482 720 OFFCURVE",
"443 722 OFFCURVE",
"400 822 OFFCURVE",
"376 976 OFFCURVE",
"376 1015 OFFCURVE",
"450 1152 OFFCURVE",
"440 1338 OFFCURVE",
"332 1448 OFFCURVE",
"184 1448 OFFCURVE",
"84 1327 OFFCURVE",
"84 1221 OFFCURVE",
"99 1169 OFFCURVE",
"123 1101 OFFCURVE",
"138 1053 OFFCURVE",
"138 1026 OFFCURVE",
"123 996 OFFCURVE",
"84 901 OFFCURVE",
"84 822 OFFCURVE",
"102 751 OFFCURVE",
"102 698 OFFCURVE",
"90 647 OFFCURVE",
"68 580 OFFCURVE",
"58 537 OFFCURVE",
"58 488 OFFCURVE",
"68 439 OFFCURVE",
"92 334 OFFCURVE",
"90 292 OFFCURVE",
"77 251 OFFCURVE",
"60 192 OFFCURVE",
"52 145 OFFCURVE",
"52 75 OFFCURVE",
"92 -6 OFFCURVE",
"164 -56 OFFCURVE",
"210 -56 QCURVE SMOOTH"
);
}
);
width = 1200;
},
{
layerId = "2A439511-CA4B-4C8E-8DEB-A9BDC8F58CF8";
paths = (
{
closed = 1;
nodes = (
"1122 734 OFFCURVE",
"1190 776 OFFCURVE",
"1190 924 CURVE SMOOTH",
"1190 1054 OFFCURVE",
"1094 1136 OFFCURVE",
"1000 1142 CURVE SMOOTH",
"876 1150 OFFCURVE",
"754 1148 OFFCURVE",
"728 932 CURVE",
"728 900 OFFCURVE",
"702 808 OFFCURVE",
"666 808 CURVE",
"584 756 OFFCURVE",
"494 722 OFFCURVE",
"456 722 CURVE SMOOTH",
"418 722 OFFCURVE",
"376 914 OFFCURVE",
"376 1000 CURVE SMOOTH",
"376 1052 OFFCURVE",
"450 1104 OFFCURVE",
"450 1206 CURVE SMOOTH",
"450 1348 OFFCURVE",
"370 1456 OFFCURVE",
"254 1456 CURVE SMOOTH",
"158 1456 OFFCURVE",
"84 1352 OFFCURVE",
"84 1242 CURVE SMOOTH",
"84 1182 OFFCURVE",
"138 1084 OFFCURVE",
"138 1040 CURVE SMOOTH",
"138 1018 OFFCURVE",
"118 992 OFFCURVE",
"118 976 CURVE",
"98 932 OFFCURVE",
"84 886 OFFCURVE",
"84 842 CURVE SMOOTH",
"84 802 OFFCURVE",
"102 766 OFFCURVE",
"102 724 CURVE SMOOTH",
"102 648 OFFCURVE",
"58 582 OFFCURVE",
"58 516 CURVE SMOOTH",
"58 438 OFFCURVE",
"90 360 OFFCURVE",
"90 306 CURVE SMOOTH",
"90 258 OFFCURVE",
"52 190 OFFCURVE",
"52 120 CURVE SMOOTH",
"52 32 OFFCURVE",
"114 -56 OFFCURVE",
"210 -56 CURVE SMOOTH",
"280 -56 OFFCURVE",
"324 -8 OFFCURVE",
"354 84 CURVE",
"392 152 OFFCURVE",
"374 274 OFFCURVE",
"442 274 CURVE SMOOTH",
"524 274 OFFCURVE",
"546 166 OFFCURVE",
"626 96 CURVE",
"684 52 OFFCURVE",
"744 -14 OFFCURVE",
"804 -34 CURVE SMOOTH",
"854 -52 OFFCURVE",
"908 -26 OFFCURVE",
"956 -36 CURVE",
"960 -38 OFFCURVE",
"1034 -8 OFFCURVE",
"1040 -8 CURVE SMOOTH",
"1114 -8 OFFCURVE",
"1182 24 OFFCURVE",
"1182 88 CURVE SMOOTH",
"1182 140 OFFCURVE",
"1162 180 OFFCURVE",
"1074 258 CURVE",
"1008 310 OFFCURVE",
"876 466 OFFCURVE",
"788 540 CURVE",
"742 564 OFFCURVE",
"742 576 OFFCURVE",
"742 594 CURVE SMOOTH",
"742 638 OFFCURVE",
"770 656 OFFCURVE",
"794 656 CURVE SMOOTH",
"872 656 LINE SMOOTH",
"906 656 OFFCURVE",
"958 676 OFFCURVE",
"986 686 CURVE SMOOTH"
);
}
);
width = 1200;
},
{
layerId = "0BD0D975-F19E-4ACA-9A31-41147C737F0B";
width = 600;
}
);
note = K;
unicode = 004B;
},
{
color = 0;
glyphname = L;
lastChange = "2019-02-10 19:10:17 +0000";
layers = (
{
layerId = "BCBE6FB0-8B5B-4728-88BC-6AD881489723";
paths = (
{
closed = 1;
nodes = (
"209 0 OFFCURVE",
"235 7 OFFCURVE",
"313 98 OFFCURVE",
"329 128 OFFCURVE",
"365 178 OFFCURVE",
"384 236 OFFCURVE",
"379 295 OFFCURVE",
"386 348 OFFCURVE",
"420 394 OFFCURVE",
"452 463 OFFCURVE",
"449 557 OFFCURVE",
"430 641 OFFCURVE",
"399 758 OFFCURVE",
"402 811 OFFCURVE",
"427 839 OFFCURVE",
"437 860 OFFCURVE",
"493 961 OFFCURVE",
"496 1077 OFFCURVE",
"434 1186 OFFCURVE",
"418 1262 OFFCURVE",
"418 1301 OFFCURVE",
"452 1382 OFFCURVE",
"474 1469 OFFCURVE",
"470 1574 OFFCURVE",
"384 1644 OFFCURVE",
"302 1646 OFFCURVE",
"221 1592 OFFCURVE",
"188 1456 OFFCURVE",
"134 1383 OFFCURVE",
"89 1290 OFFCURVE",
"88 1210 OFFCURVE",
"98 1158 OFFCURVE",
"108 1111 OFFCURVE",
"108 1012 OFFCURVE",
"118 918 OFFCURVE",
"150 844 OFFCURVE",
"150 808 OFFCURVE",
"34 640 OFFCURVE",
"34 503 OFFCURVE",
"142 309 OFFCURVE",
"142 243 OFFCURVE",
"106 153 OFFCURVE",
"106 88 OFFCURVE",
"150 0 OFFCURVE",
"186 0 QCURVE"
);
}
);
width = 530;
},
{
layerId = "2A439511-CA4B-4C8E-8DEB-A9BDC8F58CF8";
paths = (
{
closed = 1;
nodes = (
"432 636 OFFCURVE",
"422 682 OFFCURVE",
"414 724 CURVE",
"394 768 OFFCURVE",
"394 802 OFFCURVE",
"422 834 CURVE",
"432 844 OFFCURVE",
"432 854 OFFCURVE",
"442 866 CURVE",
"502 954 OFFCURVE",
"512 1052 OFFCURVE",
"462 1150 CURVE",
"452 1172 OFFCURVE",
"442 1194 OFFCURVE",
"432 1206 CURVE",
"414 1250 OFFCURVE",
"414 1304 OFFCURVE",
"432 1348 CURVE",
"432 1370 OFFCURVE",
"442 1382 OFFCURVE",
"452 1392 CURVE",
"462 1426 OFFCURVE",
"472 1446 OFFCURVE",
"472 1480 CURVE",
"482 1546 OFFCURVE",
"442 1610 OFFCURVE",
"394 1634 CURVE",
"344 1656 OFFCURVE",
"276 1644 OFFCURVE",
"236 1590 CURVE",
"216 1568 OFFCURVE",
"206 1536 OFFCURVE",
"196 1502 CURVE",
"186 1458 OFFCURVE",
"166 1416 OFFCURVE",
"138 1382 CURVE",
"88 1316 OFFCURVE",
"78 1250 OFFCURVE",
"98 1172 CURVE",
"98 1142 OFFCURVE",
"108 1120 OFFCURVE",
"108 1086 CURVE SMOOTH",
"108 1008 OFFCURVE",
"108 944 OFFCURVE",
"138 866 CURVE",
"156 834 OFFCURVE",
"146 812 OFFCURVE",
"128 780 CURVE",
"118 756 OFFCURVE",
"98 746 OFFCURVE",
"88 724 CURVE",
"28 626 OFFCURVE",
"18 516 OFFCURVE",
"78 406 CURVE",
"88 384 OFFCURVE",
"108 374 OFFCURVE",
"118 352 CURVE SMOOTH",
"138 308 OFFCURVE",
"146 274 OFFCURVE",
"138 230 CURVE",
"128 210 OFFCURVE",
"118 198 OFFCURVE",
"118 176 CURVE",
"108 154 OFFCURVE",
"108 132 OFFCURVE",
"108 120 CURVE SMOOTH",
"108 76 OFFCURVE",
"118 34 OFFCURVE",
"156 12 CURVE SMOOTH",
"196 -10 OFFCURVE",
"226 0 OFFCURVE",
"266 34 CURVE",
"294 68 LINE",
"314 98 OFFCURVE",
"324 120 OFFCURVE",
"344 154 CURVE",
"374 188 OFFCURVE",
"384 230 OFFCURVE",
"384 264 CURVE",
"374 330 OFFCURVE",
"394 374 OFFCURVE",
"414 428 CURVE",
"442 484 OFFCURVE",
"452 536 OFFCURVE",
"442 614 CURVE"
);
}
);
width = 530;
},
{
layerId = "0BD0D975-F19E-4ACA-9A31-41147C737F0B";
width = 600;
}
);
note = L;
unicode = 004C;
},
{
color = 0;
glyphname = M;
lastChange = "2019-02-10 19:10:17 +0000";
layers = (
{
layerId = "BCBE6FB0-8B5B-4728-88BC-6AD881489723";
paths = (
{
closed = 1;
nodes = (
"226 -8 OFFCURVE",
"258 4 OFFCURVE",
"318 84 OFFCURVE",
"402 188 QCURVE",
"429 244 OFFCURVE",
"477 329 OFFCURVE",
"506 364 QCURVE SMOOTH",
"516 376 OFFCURVE",
"536 416 QCURVE",
"556 436 OFFCURVE",
"556 448 QCURVE",
"580 479 OFFCURVE",
"616 482 OFFCURVE",
"640 458 QCURVE",
"645 449 OFFCURVE",
"657 432 OFFCURVE",
"662 424 QCURVE SMOOTH",
"688 386 OFFCURVE",
"717 329 OFFCURVE",
"722 292 QCURVE",
"722 272 LINE",
"739 239 OFFCURVE",
"776 210 OFFCURVE",
"806 210 QCURVE",
"828 202 OFFCURVE",
"872 224 OFFCURVE",
"900 250 QCURVE",
"900 260 OFFCURVE",
"906 278 QCURVE SMOOTH",
"910 290 OFFCURVE",
"910 302 QCURVE",
"912 307 OFFCURVE",
"938 342 OFFCURVE",
"961 386 OFFCURVE",
"964 415 OFFCURVE",
"1015 524 OFFCURVE",
"1028 528 OFFCURVE",
"1077 508 OFFCURVE",
"1132 468 OFFCURVE",
"1132 454 OFFCURVE",
"1038 354 OFFCURVE",
"1034 274 OFFCURVE",
"1051 202 OFFCURVE",
"1073 167 OFFCURVE",
"1076 126 OFFCURVE",
"1076 94 QCURVE SMOOTH",
"1076 32 LINE",
"1083 -6 OFFCURVE",
"1137 -50 OFFCURVE",
"1170 -50 QCURVE",
"1206 -50 OFFCURVE",
"1254 -20 OFFCURVE",
"1262 12 QCURVE",
"1272 22 OFFCURVE",
"1272 54 QCURVE SMOOTH",
"1272 88 OFFCURVE",
"1291 140 OFFCURVE",
"1322 196 OFFCURVE",
"1336 226 OFFCURVE",
"1343 292 OFFCURVE",
"1302 385 OFFCURVE",
"1262 416 QCURVE",
"1243 422 OFFCURVE",
"1222 438 QCURVE SMOOTH",
"1212 444 OFFCURVE",
"1180 456 OFFCURVE",
"1179 474 OFFCURVE",
"1207 492 OFFCURVE",
"1224 506 QCURVE SMOOTH",
"1236 514 OFFCURVE",
"1242 520 QCURVE",
"1274 567 OFFCURVE",
"1270 658 OFFCURVE",
"1232 696 QCURVE SMOOTH",
"1220 708 LINE SMOOTH",
"1185 743 OFFCURVE",
"1170 790 QCURVE",
"1162 797 OFFCURVE",
"1158 811 OFFCURVE",
"1158 822 QCURVE",
"1095 903 OFFCURVE",
"1004 874 QCURVE",
"998 874 OFFCURVE",
"977 862 OFFCURVE",
"972 862 QCURVE",
"948 840 OFFCURVE",
"900 839 OFFCURVE",
"868 862 QCURVE SMOOTH",
"853 873 OFFCURVE",
"825 882 OFFCURVE",
"796 888 QCURVE SMOOTH",
"764 894 LINE",
"722 894 OFFCURVE",
"692 924 QCURVE",
"668 941 OFFCURVE",
"619 956 OFFCURVE",
"588 956 QCURVE SMOOTH",
"560 956 OFFCURVE",
"508 966 OFFCURVE",
"464 976 QCURVE",
"439 985 OFFCURVE",
"382 998 OFFCURVE",
"360 998 QCURVE SMOOTH",
"300 998 OFFCURVE",
"226 1005 OFFCURVE",
"184 1018 QCURVE SMOOTH",
"154 1029 OFFCURVE",
"96 1000 OFFCURVE",
"69 939 OFFCURVE",
"80 904 QCURVE",
"80 894 OFFCURVE",
"83 881 OFFCURVE",
"90 874 QCURVE",
"90 870 OFFCURVE",
"94 854 QCURVE SMOOTH",
"96 846 OFFCURVE",
"100 829 OFFCURVE",
"100 822 QCURVE SMOOTH",
"100 798 OFFCURVE",
"102 748 QCURVE SMOOTH",
"104 700 OFFCURVE",
"104 636 OFFCURVE",
"100 604 QCURVE SMOOTH",
"90 520 OFFCURVE",
"90 420 OFFCURVE",
"110 364 QCURVE",
"119 342 OFFCURVE",
"119 284 OFFCURVE",
"110 260 QCURVE",
"80 168 LINE SMOOTH",
"73 146 OFFCURVE",
"70 113 OFFCURVE",
"70 84 QCURVE",
"78 44 OFFCURVE",
"137 -8 OFFCURVE",
"174 -8 QCURVE SMOOTH"
);
}
);
width = 1352;
},
{
layerId = "2A439511-CA4B-4C8E-8DEB-A9BDC8F58CF8";
paths = (
{
closed = 1;
nodes = (
"1200 490 OFFCURVE",
"1220 500 OFFCURVE",
"1242 520 CURVE",
"1284 582 OFFCURVE",
"1284 644 OFFCURVE",
"1232 696 CURVE SMOOTH",
"1220 708 LINE SMOOTH",
"1200 728 OFFCURVE",
"1180 758 OFFCURVE",
"1170 790 CURVE",
"1158 800 OFFCURVE",
"1158 810 OFFCURVE",
"1158 822 CURVE",
"1118 874 OFFCURVE",
"1066 894 OFFCURVE",
"1004 874 CURVE",
"992 874 OFFCURVE",
"982 862 OFFCURVE",
"972 862 CURVE",
"940 832 OFFCURVE",
"910 832 OFFCURVE",
"868 862 CURVE SMOOTH",
"838 884 OFFCURVE",
"806 884 OFFCURVE",
"764 894 CURVE",
"734 894 OFFCURVE",
"712 904 OFFCURVE",
"692 924 CURVE",
"660 946 OFFCURVE",
"630 956 OFFCURVE",
"588 956 CURVE SMOOTH",
"546 956 OFFCURVE",
"506 966 OFFCURVE",
"464 976 CURVE",
"432 988 OFFCURVE",
"390 998 OFFCURVE",
"360 998 CURVE SMOOTH",
"298 998 OFFCURVE",
"246 998 OFFCURVE",
"184 1018 CURVE SMOOTH",
"122 1040 OFFCURVE",
"58 976 OFFCURVE",
"80 904 CURVE",
"80 894 OFFCURVE",
"80 884 OFFCURVE",
"90 874 CURVE",
"90 862 OFFCURVE",
"100 842 OFFCURVE",
"100 822 CURVE SMOOTH",
"100 748 OFFCURVE",
"110 676 OFFCURVE",
"100 604 CURVE SMOOTH",
"90 520 OFFCURVE",
"80 448 OFFCURVE",
"110 364 CURVE",
"122 334 OFFCURVE",
"122 292 OFFCURVE",
"110 260 CURVE",
"80 168 LINE SMOOTH",
"70 136 OFFCURVE",
"70 116 OFFCURVE",
"70 84 CURVE",
"80 32 OFFCURVE",
"122 -8 OFFCURVE",
"174 -8 CURVE",
"214 -20 OFFCURVE",
"256 2 OFFCURVE",
"276 22 CURVE",
"318 84 OFFCURVE",
"360 136 OFFCURVE",
"402 188 CURVE",
"432 250 OFFCURVE",
"464 312 OFFCURVE",
"506 364 CURVE SMOOTH",
"516 376 OFFCURVE",
"526 396 OFFCURVE",
"536 416 CURVE",
"546 426 OFFCURVE",
"556 438 OFFCURVE",
"556 448 CURVE",
"588 490 OFFCURVE",
"608 490 OFFCURVE",
"640 458 CURVE",
"672 406 OFFCURVE",
"712 364 OFFCURVE",
"722 292 CURVE",
"722 272 LINE",
"744 230 OFFCURVE",
"764 210 OFFCURVE",
"806 210 CURVE",
"838 198 OFFCURVE",
"868 220 OFFCURVE",
"900 250 CURVE",
"900 272 OFFCURVE",
"910 282 OFFCURVE",
"910 302 CURVE",
"920 324 OFFCURVE",
"940 344 OFFCURVE",
"952 376 CURVE",
"962 406 OFFCURVE",
"982 448 OFFCURVE",
"992 478 CURVE",
"1004 500 OFFCURVE",
"1014 510 OFFCURVE",
"1024 530 CURVE",
"1086 500 OFFCURVE",
"1096 500 OFFCURVE",
"1138 458 CURVE",
"1086 406 LINE SMOOTH",
"1044 364 OFFCURVE",
"1024 312 OFFCURVE",
"1044 250 CURVE",
"1044 230 OFFCURVE",
"1044 210 OFFCURVE",
"1054 198 CURVE",
"1076 158 OFFCURVE",
"1076 126 OFFCURVE",
"1076 94 CURVE SMOOTH",
"1076 32 LINE",
"1086 -20 OFFCURVE",
"1128 -50 OFFCURVE",
"1170 -50 CURVE",
"1210 -60 OFFCURVE",
"1252 -30 OFFCURVE",
"1262 12 CURVE",
"1272 22 OFFCURVE",
"1272 44 OFFCURVE",
"1272 54 CURVE SMOOTH",
"1272 106 OFFCURVE",
"1294 146 OFFCURVE",
"1314 188 CURVE",
"1324 198 OFFCURVE",
"1336 220 OFFCURVE",
"1336 240 CURVE",
"1346 312 OFFCURVE",
"1314 376 OFFCURVE",
"1262 416 CURVE",
"1232 426 OFFCURVE",
"1210 448 OFFCURVE",
"1180 458 CURVE"
);
}
);
width = 1352;
},
{
layerId = "0BD0D975-F19E-4ACA-9A31-41147C737F0B";
width = 600;
}
);
note = M;
unicode = 004D;
},
{
color = 0;
glyphname = N;
lastChange = "2019-02-10 19:10:17 +0000";
layers = (
{
layerId = "BCBE6FB0-8B5B-4728-88BC-6AD881489723";
paths = (
{
closed = 1;
nodes = (
"226 922 LINE",
"226 942 OFFCURVE",
"218 950 OFFCURVE",
"208 970 CURVE",
"196 982 OFFCURVE",
"186 1002 OFFCURVE",
"168 1014 CURVE",
"146 1036 OFFCURVE",
"102 1036 OFFCURVE",
"80 1014 CURVE SMOOTH",
"50 982 OFFCURVE",
"42 950 OFFCURVE",
"60 922 CURVE",
"72 900 OFFCURVE",
"92 876 OFFCURVE",
"114 870 CURVE",
"132 870 OFFCURVE",
"146 856 OFFCURVE",
"154 848 CURVE",
"154 794 OFFCURVE",
"146 756 OFFCURVE",
"146 702 CURVE SMOOTH",
"146 662 OFFCURVE",
"132 608 OFFCURVE",
"114 568 CURVE SMOOTH",
"80 486 OFFCURVE",
"80 400 OFFCURVE",
"114 316 CURVE",
"132 284 OFFCURVE",
"132 256 OFFCURVE",
"132 224 CURVE SMOOTH",
"132 150 OFFCURVE",
"154 90 OFFCURVE",
"168 14 CURVE",
"168 4 OFFCURVE",
"174 -4 OFFCURVE",
"174 -26 CURVE",
"226 -112 OFFCURVE",
"340 -122 OFFCURVE",
"394 -40 CURVE SMOOTH",
"416 -4 OFFCURVE",
"422 26 OFFCURVE",
"422 54 CURVE",
"434 90 OFFCURVE",
"434 118 OFFCURVE",
"448 150 CURVE",
"456 202 OFFCURVE",
"466 244 OFFCURVE",
"498 284 CURVE",
"516 326 OFFCURVE",
"538 370 OFFCURVE",
"560 410 CURVE",
"570 432 OFFCURVE",
"582 452 OFFCURVE",
"592 474 CURVE",
"602 464 OFFCURVE",
"610 452 OFFCURVE",
"624 452 CURVE",
"696 360 OFFCURVE",
"768 266 OFFCURVE",
"818 162 CURVE",
"830 140 OFFCURVE",
"830 118 OFFCURVE",
"830 90 CURVE",
"818 54 OFFCURVE",
"818 26 OFFCURVE",
"818 4 CURVE",
"830 -46 OFFCURVE",
"884 -80 OFFCURVE",
"934 -80 CURVE SMOOTH",
"988 -80 OFFCURVE",
"1028 -40 OFFCURVE",
"1028 26 CURVE SMOOTH",
"1028 46 OFFCURVE",
"1020 68 OFFCURVE",
"1006 90 CURVE",
"998 118 OFFCURVE",
"998 150 OFFCURVE",
"1006 180 CURVE",
"1038 224 OFFCURVE",
"1038 266 OFFCURVE",
"1028 316 CURVE",
"1028 452 LINE",
"1038 526 OFFCURVE",
"1020 586 OFFCURVE",
"998 650 CURVE",
"978 680 OFFCURVE",
"954 722 OFFCURVE",
"934 762 CURVE",
"902 848 OFFCURVE",
"862 876 OFFCURVE",
"768 876 CURVE SMOOTH",
"736 876 OFFCURVE",
"718 876 OFFCURVE",
"696 910 CURVE",
"654 942 OFFCURVE",
"602 950 OFFCURVE",
"548 922 CURVE",
"516 900 OFFCURVE",
"476 900 OFFCURVE",
"434 910 CURVE",
"382 928 OFFCURVE",
"334 928 OFFCURVE",
"268 922 CURVE"
);
}
);
width = 1086;
},
{
layerId = "2A439511-CA4B-4C8E-8DEB-A9BDC8F58CF8";
paths = (
{
closed = 1;
nodes = (
"226 922 LINE",
"226 942 OFFCURVE",
"218 950 OFFCURVE",
"208 970 CURVE",
"196 982 OFFCURVE",
"186 1002 OFFCURVE",
"168 1014 CURVE",
"146 1036 OFFCURVE",
"102 1036 OFFCURVE",
"80 1014 CURVE SMOOTH",
"50 982 OFFCURVE",
"42 950 OFFCURVE",
"60 922 CURVE",
"72 900 OFFCURVE",
"92 876 OFFCURVE",
"114 870 CURVE",
"132 870 OFFCURVE",
"146 856 OFFCURVE",
"154 848 CURVE",
"154 794 OFFCURVE",
"146 756 OFFCURVE",
"146 702 CURVE SMOOTH",
"146 662 OFFCURVE",
"132 608 OFFCURVE",
"114 568 CURVE SMOOTH",
"80 486 OFFCURVE",
"80 400 OFFCURVE",
"114 316 CURVE",
"132 284 OFFCURVE",
"132 256 OFFCURVE",
"132 224 CURVE SMOOTH",
"132 150 OFFCURVE",
"154 90 OFFCURVE",
"168 14 CURVE",
"168 4 OFFCURVE",
"174 -4 OFFCURVE",
"174 -26 CURVE",
"226 -112 OFFCURVE",
"340 -122 OFFCURVE",
"394 -40 CURVE SMOOTH",
"416 -4 OFFCURVE",
"422 26 OFFCURVE",
"422 54 CURVE",
"434 90 OFFCURVE",
"434 118 OFFCURVE",
"448 150 CURVE",
"456 202 OFFCURVE",
"466 244 OFFCURVE",
"498 284 CURVE",
"516 326 OFFCURVE",
"538 370 OFFCURVE",
"560 410 CURVE",
"570 432 OFFCURVE",
"582 452 OFFCURVE",
"592 474 CURVE",
"602 464 OFFCURVE",
"610 452 OFFCURVE",
"624 452 CURVE",
"696 360 OFFCURVE",
"768 266 OFFCURVE",
"818 162 CURVE",
"830 140 OFFCURVE",
"830 118 OFFCURVE",
"830 90 CURVE",
"818 54 OFFCURVE",
"818 26 OFFCURVE",
"818 4 CURVE",
"830 -46 OFFCURVE",
"884 -80 OFFCURVE",
"934 -80 CURVE SMOOTH",
"988 -80 OFFCURVE",
"1028 -40 OFFCURVE",
"1028 26 CURVE SMOOTH",
"1028 46 OFFCURVE",
"1020 68 OFFCURVE",
"1006 90 CURVE",
"998 118 OFFCURVE",
"998 150 OFFCURVE",
"1006 180 CURVE",
"1038 224 OFFCURVE",
"1038 266 OFFCURVE",
"1028 316 CURVE",
"1028 452 LINE",
"1038 526 OFFCURVE",
"1020 586 OFFCURVE",
"998 650 CURVE",
"978 680 OFFCURVE",
"954 722 OFFCURVE",
"934 762 CURVE",
"902 848 OFFCURVE",
"862 876 OFFCURVE",
"768 876 CURVE SMOOTH",
"736 876 OFFCURVE",
"718 876 OFFCURVE",
"696 910 CURVE",
"654 942 OFFCURVE",
"602 950 OFFCURVE",
"548 922 CURVE",
"516 900 OFFCURVE",
"476 900 OFFCURVE",
"434 910 CURVE",
"382 928 OFFCURVE",
"334 928 OFFCURVE",
"268 922 CURVE"
);
}
);
width = 1086;
},
{
layerId = "0BD0D975-F19E-4ACA-9A31-41147C737F0B";
width = 600;
}
);
note = N;
unicode = 004E;
},
{
color = 4;
glyphname = O;
lastChange = "2019-02-10 19:14:01 +0000";
layers = (
{
layerId = "BCBE6FB0-8B5B-4728-88BC-6AD881489723";
paths = (
{
closed = 1;
nodes = (
"563 -70 OFFCURVE",
"702 14 OFFCURVE",
"838 17 OFFCURVE",
"943 107 OFFCURVE",
"946 251 OFFCURVE",
"1076 287 OFFCURVE",
"1142 350 OFFCURVE",
"1140 382 OFFCURVE",
"1160 464 OFFCURVE",
"1161 588 OFFCURVE",
"1096 688 OFFCURVE",
"1094 706 OFFCURVE",
"1099 774 OFFCURVE",
"1095 891 OFFCURVE",
"982 1036 OFFCURVE",
"846 1040 OFFCURVE",
"696 990 OFFCURVE",
"630 990 OFFCURVE",
"474 1063 OFFCURVE",
"328 1062 OFFCURVE",
"210 994 OFFCURVE",
"119 827 OFFCURVE",
"20 703 OFFCURVE",
"20 524 OFFCURVE",
"213 208 OFFCURVE",
"213 90 OFFCURVE",
"356 -70 OFFCURVE",
"492 -70 QCURVE SMOOTH"
);
},
{
closed = 1;
nodes = (
"689 356 OFFCURVE",
"569 460 OFFCURVE",
"568 558 OFFCURVE",
"629 626 OFFCURVE",
"746 628 OFFCURVE",
"820 518 OFFCURVE",
"822 387 OFFCURVE",
"785 356 OFFCURVE",
"760 356 QCURVE SMOOTH"
);
}
);
width = 1204;
},
{
layerId = "2A439511-CA4B-4C8E-8DEB-A9BDC8F58CF8";
paths = (
{
closed = 1;
nodes = (
"1100 816 OFFCURVE",
"1086 848 OFFCURVE",
"1086 872 CURVE",
"1062 970 OFFCURVE",
"1006 1020 OFFCURVE",
"896 1040 CURVE",
"848 1040 OFFCURVE",
"800 1028 OFFCURVE",
"738 1008 CURVE",
"676 984 OFFCURVE",
"632 988 OFFCURVE",
"566 1020 CURVE SMOOTH",
"558 1024 OFFCURVE",
"556 1022 OFFCURVE",
"544 1028 CURVE SMOOTH",
"402 1100 OFFCURVE",
"240 1054 OFFCURVE",
"178 930 CURVE SMOOTH",
"176 926 OFFCURVE",
"174 924 OFFCURVE",
"166 908 CURVE",
"140 864 OFFCURVE",
"106 818 OFFCURVE",
"80 776 CURVE",
"8 686 OFFCURVE",
"8 586 OFFCURVE",
"56 486 CURVE",
"94 420 OFFCURVE",
"128 352 OFFCURVE",
"166 276 CURVE SMOOTH",
"178 252 OFFCURVE",
"190 220 OFFCURVE",
"204 196 CURVE",
"214 154 OFFCURVE",
"214 108 OFFCURVE",
"238 76 CURVE",
"298 -36 OFFCURVE",
"422 -92 OFFCURVE",
"554 -58 CURVE",
"580 -48 OFFCURVE",
"616 -36 OFFCURVE",
"652 -12 CURVE",
"690 -2 OFFCURVE",
"724 18 OFFCURVE",
"762 18 CURVE SMOOTH",
"788 18 OFFCURVE",
"800 32 OFFCURVE",
"822 32 CURVE",
"896 52 OFFCURVE",
"944 96 OFFCURVE",
"944 162 CURVE SMOOTH",
"944 232 OFFCURVE",
"970 262 OFFCURVE",
"1042 286 CURVE",
"1090 298 OFFCURVE",
"1138 330 OFFCURVE",
"1138 386 CURVE",
"1164 476 OFFCURVE",
"1176 564 OFFCURVE",
"1128 640 CURVE",
"1102 686 OFFCURVE",
"1090 706 OFFCURVE",
"1100 768 CURVE"
);
},
{
closed = 1;
nodes = (
"820 416 LINE SMOOTH",
"820 372 OFFCURVE",
"786 346 OFFCURVE",
"720 360 CURVE",
"674 372 OFFCURVE",
"624 400 OFFCURVE",
"594 448 CURVE",
"562 474 OFFCURVE",
"564 518 OFFCURVE",
"580 562 CURVE",
"614 634 OFFCURVE",
"708 652 OFFCURVE",
"770 592 CURVE",
"802 548 OFFCURVE",
"820 502 OFFCURVE",
"820 446 CURVE SMOOTH"
);
},
{
closed = 1;
nodes = (
"960 719 OFFCURVE",
"1015 772 OFFCURVE",
"1014 840 CURVE SMOOTH",
"1013 908 OFFCURVE",
"960 963 OFFCURVE",
"892 962 CURVE SMOOTH",
"824 961 OFFCURVE",
"769 908 OFFCURVE",
"770 840 CURVE SMOOTH",
"771 772 OFFCURVE",
"824 717 OFFCURVE",
"892 718 CURVE SMOOTH"
);
},
{
closed = 1;
nodes = (
"464 747 OFFCURVE",
"519 800 OFFCURVE",
"518 868 CURVE SMOOTH",
"517 936 OFFCURVE",
"464 991 OFFCURVE",
"396 990 CURVE SMOOTH",
"328 989 OFFCURVE",
"273 936 OFFCURVE",
"274 868 CURVE SMOOTH",
"275 800 OFFCURVE",
"328 745 OFFCURVE",
"396 746 CURVE SMOOTH"
);
},
{
closed = 1;
nodes = (
"280 489 OFFCURVE",
"335 542 OFFCURVE",
"334 610 CURVE SMOOTH",
"333 678 OFFCURVE",
"280 733 OFFCURVE",
"212 732 CURVE SMOOTH",
"144 731 OFFCURVE",
"89 678 OFFCURVE",
"90 610 CURVE SMOOTH",
"91 542 OFFCURVE",
"144 487 OFFCURVE",
"212 488 CURVE SMOOTH"
);
},
{
closed = 1;
nodes = (
"868 57 OFFCURVE",
"923 110 OFFCURVE",
"922 178 CURVE SMOOTH",
"921 246 OFFCURVE",
"868 301 OFFCURVE",
"800 300 CURVE SMOOTH",
"732 299 OFFCURVE",
"677 246 OFFCURVE",
"678 178 CURVE SMOOTH",
"679 110 OFFCURVE",
"732 55 OFFCURVE",
"800 56 CURVE SMOOTH"
);
},
{
closed = 1;
nodes = (
"522 -3 OFFCURVE",
"577 50 OFFCURVE",
"576 118 CURVE SMOOTH",
"575 186 OFFCURVE",
"522 241 OFFCURVE",
"454 240 CURVE SMOOTH",
"386 239 OFFCURVE",
"331 186 OFFCURVE",
"332 118 CURVE SMOOTH",
"333 50 OFFCURVE",
"386 -5 OFFCURVE",
"454 -4 CURVE SMOOTH"
);
}
);
width = 1204;
},
{
layerId = "0BD0D975-F19E-4ACA-9A31-41147C737F0B";
paths = (
{
closed = 1;
nodes = (
"563 -70 OFFCURVE",
"702 14 OFFCURVE",
"838 17 OFFCURVE",
"943 107 OFFCURVE",
"946 251 OFFCURVE",
"1076 287 OFFCURVE",
"1142 350 OFFCURVE",
"1140 382 OFFCURVE",
"1102 468 OFFCURVE",
"1103 592 OFFCURVE",
"976 660 OFFCURVE",
"974 678 OFFCURVE",
"1059 774 OFFCURVE",
"1055 891 OFFCURVE",
"982 996 OFFCURVE",
"846 1000 OFFCURVE",
"676 910 OFFCURVE",
"640 910 OFFCURVE",
"476 1012 OFFCURVE",
"330 1011 OFFCURVE",
"212 943 OFFCURVE",
"119 827 OFFCURVE",
"20 703 OFFCURVE",
"20 524 OFFCURVE",
"213 208 OFFCURVE",
"213 90 OFFCURVE",
"356 -70 OFFCURVE",
"492 -70 QCURVE SMOOTH"
);
},
{
closed = 1;
nodes = (
"684 316 OFFCURVE",
"490 456 OFFCURVE",
"489 554 OFFCURVE",
"658 706 OFFCURVE",
"734 700 OFFCURVE",
"898 474 OFFCURVE",
"896 390 OFFCURVE",
"780 316 OFFCURVE",
"756 316 QCURVE SMOOTH"
);
}
);
width = 1204;
}
);
note = O;
unicode = 004F;
},
{
color = 0;
glyphname = P;
lastChange = "2019-02-10 19:10:17 +0000";
layers = (
{
layerId = "BCBE6FB0-8B5B-4728-88BC-6AD881489723";
paths = (
{
closed = 1;
nodes = (
"352 -282 OFFCURVE",
"352 -282 OFFCURVE",
"352 -272 CURVE",
"362 -272 OFFCURVE",
"362 -260 OFFCURVE",
"372 -260 CURVE",
"436 -208 OFFCURVE",
"468 -134 OFFCURVE",
"488 -48 CURVE",
"488 -38 OFFCURVE",
"488 -18 OFFCURVE",
"500 -6 CURVE",
"510 26 OFFCURVE",
"542 46 OFFCURVE",
"574 56 CURVE",
"594 56 OFFCURVE",
"626 56 OFFCURVE",
"648 68 CURVE",
"710 68 OFFCURVE",
"774 100 OFFCURVE",
"806 152 CURVE",
"848 204 OFFCURVE",
"890 236 OFFCURVE",
"944 278 CURVE SMOOTH",
"986 310 OFFCURVE",
"1018 364 OFFCURVE",
"1028 426 CURVE",
"1038 470 OFFCURVE",
"1060 512 OFFCURVE",
"1092 544 CURVE SMOOTH",
"1102 554 OFFCURVE",
"1112 576 OFFCURVE",
"1112 586 CURVE",
"1134 628 OFFCURVE",
"1124 680 OFFCURVE",
"1092 712 CURVE SMOOTH",
"1070 734 OFFCURVE",
"1050 734 OFFCURVE",
"1018 744 CURVE",
"996 744 OFFCURVE",
"974 744 OFFCURVE",
"954 754 CURVE",
"944 754 OFFCURVE",
"932 766 OFFCURVE",
"932 776 CURVE",
"922 798 OFFCURVE",
"922 818 OFFCURVE",
"912 840 CURVE",
"912 860 OFFCURVE",
"900 892 OFFCURVE",
"890 924 CURVE",
"858 1008 OFFCURVE",
"796 1050 OFFCURVE",
"700 1062 CURVE",
"658 1062 OFFCURVE",
"604 1050 OFFCURVE",
"574 1030 CURVE",
"520 1008 OFFCURVE",
"478 988 OFFCURVE",
"426 988 CURVE",
"372 976 OFFCURVE",
"330 946 OFFCURVE",
"288 902 CURVE",
"266 872 OFFCURVE",
"246 850 OFFCURVE",
"214 840 CURVE",
"150 808 OFFCURVE",
"118 754 OFFCURVE",
"118 692 CURVE SMOOTH",
"118 650 OFFCURVE",
"108 618 OFFCURVE",
"76 596 CURVE",
"24 554 OFFCURVE",
"12 500 OFFCURVE",
"66 438 CURVE",
"86 406 OFFCURVE",
"98 374 OFFCURVE",
"76 342 CURVE",
"54 258 OFFCURVE",
"54 184 OFFCURVE",
"86 100 CURVE",
"98 56 OFFCURVE",
"108 14 OFFCURVE",
"98 -28 CURVE",
"98 -80 LINE",
"108 -144 OFFCURVE",
"128 -198 OFFCURVE",
"172 -240 CURVE SMOOTH",
"182 -250 OFFCURVE",
"192 -250 OFFCURVE",
"202 -260 CURVE SMOOTH",
"224 -282 OFFCURVE",
"234 -302 OFFCURVE",
"214 -324 CURVE",
"202 -346 OFFCURVE",
"192 -376 OFFCURVE",
"192 -408 CURVE",
"202 -450 OFFCURVE",
"246 -494 OFFCURVE",
"288 -494 CURVE SMOOTH",
"340 -494 OFFCURVE",
"372 -450 OFFCURVE",
"382 -408 CURVE",
"382 -388 OFFCURVE",
"372 -356 OFFCURVE",
"362 -334 CURVE",
"362 -324 OFFCURVE",
"352 -314 OFFCURVE",
"340 -292 CURVE"
);
},
{
closed = 1;
nodes = (
"320 586 OFFCURVE",
"362 618 OFFCURVE",
"404 650 CURVE",
"426 660 OFFCURVE",
"446 660 OFFCURVE",
"468 660 CURVE",
"510 650 OFFCURVE",
"552 628 OFFCURVE",
"584 596 CURVE SMOOTH",
"604 576 OFFCURVE",
"604 554 OFFCURVE",
"604 522 CURVE",
"584 480 OFFCURVE",
"530 438 OFFCURVE",
"488 448 CURVE",
"426 458 OFFCURVE",
"362 490 OFFCURVE",
"298 512 CURVE",
"298 512 OFFCURVE",
"288 522 OFFCURVE",
"276 532 CURVE"
);
}
);
width = 1152;
},
{
layerId = "2A439511-CA4B-4C8E-8DEB-A9BDC8F58CF8";
paths = (
{
closed = 1;
nodes = (
"352 -282 OFFCURVE",
"352 -282 OFFCURVE",
"352 -272 CURVE",
"362 -272 OFFCURVE",
"362 -260 OFFCURVE",
"372 -260 CURVE",
"436 -208 OFFCURVE",
"468 -134 OFFCURVE",
"488 -48 CURVE",
"488 -38 OFFCURVE",
"488 -18 OFFCURVE",
"500 -6 CURVE",
"510 26 OFFCURVE",
"542 46 OFFCURVE",
"574 56 CURVE",
"594 56 OFFCURVE",
"626 56 OFFCURVE",
"648 68 CURVE",
"710 68 OFFCURVE",
"774 100 OFFCURVE",
"806 152 CURVE",
"848 204 OFFCURVE",
"890 236 OFFCURVE",
"944 278 CURVE SMOOTH",
"986 310 OFFCURVE",
"1018 364 OFFCURVE",
"1028 426 CURVE",
"1038 470 OFFCURVE",
"1060 512 OFFCURVE",
"1092 544 CURVE SMOOTH",
"1102 554 OFFCURVE",
"1112 576 OFFCURVE",
"1112 586 CURVE",
"1134 628 OFFCURVE",
"1124 680 OFFCURVE",
"1092 712 CURVE SMOOTH",
"1070 734 OFFCURVE",
"1050 734 OFFCURVE",
"1018 744 CURVE",
"996 744 OFFCURVE",
"974 744 OFFCURVE",
"954 754 CURVE",
"944 754 OFFCURVE",
"932 766 OFFCURVE",
"932 776 CURVE",
"922 798 OFFCURVE",
"922 818 OFFCURVE",
"912 840 CURVE",
"912 860 OFFCURVE",
"900 892 OFFCURVE",
"890 924 CURVE",
"858 1008 OFFCURVE",
"796 1050 OFFCURVE",
"700 1062 CURVE",
"658 1062 OFFCURVE",
"604 1050 OFFCURVE",
"574 1030 CURVE",
"520 1008 OFFCURVE",
"478 988 OFFCURVE",
"426 988 CURVE",
"372 976 OFFCURVE",
"330 946 OFFCURVE",
"288 902 CURVE",
"266 872 OFFCURVE",
"246 850 OFFCURVE",
"214 840 CURVE",
"150 808 OFFCURVE",
"118 754 OFFCURVE",
"118 692 CURVE SMOOTH",
"118 650 OFFCURVE",
"108 618 OFFCURVE",
"76 596 CURVE",
"24 554 OFFCURVE",
"12 500 OFFCURVE",
"66 438 CURVE",
"86 406 OFFCURVE",
"98 374 OFFCURVE",
"76 342 CURVE",
"54 258 OFFCURVE",
"54 184 OFFCURVE",
"86 100 CURVE",
"98 56 OFFCURVE",
"108 14 OFFCURVE",
"98 -28 CURVE",
"98 -80 LINE",
"108 -144 OFFCURVE",
"128 -198 OFFCURVE",
"172 -240 CURVE SMOOTH",
"182 -250 OFFCURVE",
"192 -250 OFFCURVE",
"202 -260 CURVE SMOOTH",
"224 -282 OFFCURVE",
"234 -302 OFFCURVE",
"214 -324 CURVE",
"202 -346 OFFCURVE",
"192 -376 OFFCURVE",
"192 -408 CURVE",
"202 -450 OFFCURVE",
"246 -494 OFFCURVE",
"288 -494 CURVE SMOOTH",
"340 -494 OFFCURVE",
"372 -450 OFFCURVE",
"382 -408 CURVE",
"382 -388 OFFCURVE",
"372 -356 OFFCURVE",
"362 -334 CURVE",
"362 -324 OFFCURVE",
"352 -314 OFFCURVE",
"340 -292 CURVE"
);
},
{
closed = 1;
nodes = (
"320 586 OFFCURVE",
"362 618 OFFCURVE",
"404 650 CURVE",
"426 660 OFFCURVE",
"446 660 OFFCURVE",
"468 660 CURVE",
"510 650 OFFCURVE",
"552 628 OFFCURVE",
"584 596 CURVE SMOOTH",
"604 576 OFFCURVE",
"604 554 OFFCURVE",
"604 522 CURVE",
"584 480 OFFCURVE",
"530 438 OFFCURVE",
"488 448 CURVE",
"426 458 OFFCURVE",
"362 490 OFFCURVE",
"298 512 CURVE",
"298 512 OFFCURVE",
"288 522 OFFCURVE",
"276 532 CURVE"
);
}
);
width = 1152;
},
{
layerId = "0BD0D975-F19E-4ACA-9A31-41147C737F0B";
width = 600;
}
);
note = P;
unicode = 0050;
},
{
color = 0;
glyphname = Q;
lastChange = "2019-02-10 19:10:17 +0000";
layers = (
{
layerId = "BCBE6FB0-8B5B-4728-88BC-6AD881489723";
paths = (
{
closed = 1;
nodes = (
"680 -286 OFFCURVE",
"690 -306 OFFCURVE",
"700 -336 CURVE",
"732 -408 OFFCURVE",
"782 -440 OFFCURVE",
"854 -430 CURVE",
"906 -418 OFFCURVE",
"958 -368 OFFCURVE",
"958 -296 CURVE",
"968 -276 OFFCURVE",
"968 -244 OFFCURVE",
"958 -214 CURVE",
"958 -162 OFFCURVE",
"948 -122 OFFCURVE",
"968 -70 CURVE",
"978 -18 OFFCURVE",
"978 22 OFFCURVE",
"968 74 CURVE",
"968 116 OFFCURVE",
"968 156 OFFCURVE",
"978 198 CURVE",
"988 270 OFFCURVE",
"988 352 OFFCURVE",
"958 424 CURVE",
"948 454 OFFCURVE",
"948 484 OFFCURVE",
"968 506 CURVE",
"978 526 OFFCURVE",
"978 536 OFFCURVE",
"988 546 CURVE",
"998 588 OFFCURVE",
"998 618 OFFCURVE",
"978 650 CURVE",
"968 660 OFFCURVE",
"958 660 OFFCURVE",
"958 670 CURVE",
"926 690 OFFCURVE",
"916 710 OFFCURVE",
"916 752 CURVE",
"906 804 OFFCURVE",
"886 844 OFFCURVE",
"834 866 CURVE",
"824 876 LINE",
"804 876 OFFCURVE",
"782 896 OFFCURVE",
"762 916 CURVE",
"742 978 OFFCURVE",
"690 998 OFFCURVE",
"640 998 CURVE",
"608 1008 OFFCURVE",
"578 1020 OFFCURVE",
"546 1030 CURVE",
"536 1040 OFFCURVE",
"526 1040 OFFCURVE",
"506 1050 CURVE",
"474 1060 OFFCURVE",
"444 1060 OFFCURVE",
"402 1050 CURVE",
"342 1030 OFFCURVE",
"300 988 OFFCURVE",
"270 916 CURVE SMOOTH",
"228 814 OFFCURVE",
"228 824 OFFCURVE",
"156 794 CURVE",
"84 752 OFFCURVE",
"54 680 OFFCURVE",
"54 598 CURVE SMOOTH",
"54 556 OFFCURVE",
"64 516 OFFCURVE",
"64 474 CURVE",
"74 382 OFFCURVE",
"116 320 OFFCURVE",
"188 280 CURVE SMOOTH",
"228 258 OFFCURVE",
"260 228 OFFCURVE",
"290 188 CURVE SMOOTH",
"352 104 OFFCURVE",
"424 74 OFFCURVE",
"516 84 CURVE",
"526 94 OFFCURVE",
"546 94 OFFCURVE",
"556 94 CURVE SMOOTH",
"588 94 OFFCURVE",
"608 74 OFFCURVE",
"618 44 CURVE",
"628 32 OFFCURVE",
"628 22 OFFCURVE",
"640 2 CURVE",
"650 -28 OFFCURVE",
"650 -60 OFFCURVE",
"660 -80 CURVE",
"680 -132 OFFCURVE",
"690 -172 OFFCURVE",
"680 -214 CURVE"
);
},
{
closed = 1;
nodes = (
"762 578 OFFCURVE",
"762 568 OFFCURVE",
"752 568 CURVE",
"712 546 OFFCURVE",
"680 526 OFFCURVE",
"640 506 CURVE",
"598 496 OFFCURVE",
"568 506 OFFCURVE",
"536 536 CURVE SMOOTH",
"516 556 OFFCURVE",
"516 588 OFFCURVE",
"536 608 CURVE SMOOTH",
"568 640 OFFCURVE",
"598 670 OFFCURVE",
"640 690 CURVE",
"650 700 OFFCURVE",
"670 700 OFFCURVE",
"690 690 CURVE",
"722 660 OFFCURVE",
"752 640 OFFCURVE",
"772 588 CURVE"
);
}
);
width = 1076;
},
{
layerId = "2A439511-CA4B-4C8E-8DEB-A9BDC8F58CF8";
paths = (
{
closed = 1;
nodes = (
"680 -286 OFFCURVE",
"690 -306 OFFCURVE",
"700 -336 CURVE",
"732 -408 OFFCURVE",
"782 -440 OFFCURVE",
"854 -430 CURVE",
"906 -418 OFFCURVE",
"958 -368 OFFCURVE",
"958 -296 CURVE",
"968 -276 OFFCURVE",
"968 -244 OFFCURVE",
"958 -214 CURVE",
"958 -162 OFFCURVE",
"948 -122 OFFCURVE",
"968 -70 CURVE",
"978 -18 OFFCURVE",
"978 22 OFFCURVE",
"968 74 CURVE",
"968 116 OFFCURVE",
"968 156 OFFCURVE",
"978 198 CURVE",
"988 270 OFFCURVE",
"988 352 OFFCURVE",
"958 424 CURVE",
"948 454 OFFCURVE",
"948 484 OFFCURVE",
"968 506 CURVE",
"978 526 OFFCURVE",
"978 536 OFFCURVE",
"988 546 CURVE",
"998 588 OFFCURVE",
"998 618 OFFCURVE",
"978 650 CURVE",
"968 660 OFFCURVE",
"958 660 OFFCURVE",
"958 670 CURVE",
"926 690 OFFCURVE",
"916 710 OFFCURVE",
"916 752 CURVE",
"906 804 OFFCURVE",
"886 844 OFFCURVE",
"834 866 CURVE",
"824 876 LINE",
"804 876 OFFCURVE",
"782 896 OFFCURVE",
"762 916 CURVE",
"742 978 OFFCURVE",
"690 998 OFFCURVE",
"640 998 CURVE",
"608 1008 OFFCURVE",
"578 1020 OFFCURVE",
"546 1030 CURVE",
"536 1040 OFFCURVE",
"526 1040 OFFCURVE",
"506 1050 CURVE",
"474 1060 OFFCURVE",
"444 1060 OFFCURVE",
"402 1050 CURVE",
"342 1030 OFFCURVE",
"300 988 OFFCURVE",
"270 916 CURVE SMOOTH",
"228 814 OFFCURVE",
"228 824 OFFCURVE",
"156 794 CURVE",
"84 752 OFFCURVE",
"54 680 OFFCURVE",
"54 598 CURVE SMOOTH",
"54 556 OFFCURVE",
"64 516 OFFCURVE",
"64 474 CURVE",
"74 382 OFFCURVE",
"116 320 OFFCURVE",
"188 280 CURVE SMOOTH",
"228 258 OFFCURVE",
"260 228 OFFCURVE",
"290 188 CURVE SMOOTH",
"352 104 OFFCURVE",
"424 74 OFFCURVE",
"516 84 CURVE",
"526 94 OFFCURVE",
"546 94 OFFCURVE",
"556 94 CURVE SMOOTH",
"588 94 OFFCURVE",
"608 74 OFFCURVE",
"618 44 CURVE",
"628 32 OFFCURVE",
"628 22 OFFCURVE",
"640 2 CURVE",
"650 -28 OFFCURVE",
"650 -60 OFFCURVE",
"660 -80 CURVE",
"680 -132 OFFCURVE",
"690 -172 OFFCURVE",
"680 -214 CURVE"
);
},
{
closed = 1;
nodes = (
"762 578 OFFCURVE",
"762 568 OFFCURVE",
"752 568 CURVE",
"712 546 OFFCURVE",
"680 526 OFFCURVE",
"640 506 CURVE",
"598 496 OFFCURVE",
"568 506 OFFCURVE",
"536 536 CURVE SMOOTH",
"516 556 OFFCURVE",
"516 588 OFFCURVE",
"536 608 CURVE SMOOTH",
"568 640 OFFCURVE",
"598 670 OFFCURVE",
"640 690 CURVE",
"650 700 OFFCURVE",
"670 700 OFFCURVE",
"690 690 CURVE",
"722 660 OFFCURVE",
"752 640 OFFCURVE",
"772 588 CURVE"
);
}
);
width = 1076;
},
{
layerId = "0BD0D975-F19E-4ACA-9A31-41147C737F0B";
width = 600;
}
);
note = Q;
unicode = 0051;
},
{
color = 0;
glyphname = R;
lastChange = "2019-02-10 19:10:17 +0000";
layers = (
{
layerId = "BCBE6FB0-8B5B-4728-88BC-6AD881489723";
paths = (
{
closed = 1;
nodes = (
"76 1074 OFFCURVE",
"44 1042 OFFCURVE",
"54 1000 CURVE",
"54 960 OFFCURVE",
"96 928 OFFCURVE",
"138 928 CURVE SMOOTH",
"180 928 OFFCURVE",
"210 960 OFFCURVE",
"200 1000 CURVE",
"200 1042 OFFCURVE",
"168 1084 OFFCURVE",
"116 1084 CURVE"
);
},
{
closed = 1;
nodes = (
"168 172 OFFCURVE",
"180 110 OFFCURVE",
"190 48 CURVE",
"200 38 OFFCURVE",
"210 16 OFFCURVE",
"210 -4 CURVE",
"272 -76 OFFCURVE",
"386 -76 OFFCURVE",
"428 16 CURVE SMOOTH",
"438 38 OFFCURVE",
"448 58 OFFCURVE",
"448 78 CURVE SMOOTH",
"448 142 OFFCURVE",
"458 204 OFFCURVE",
"458 266 CURVE SMOOTH",
"458 286 OFFCURVE",
"458 306 OFFCURVE",
"470 328 CURVE",
"510 390 OFFCURVE",
"532 452 OFFCURVE",
"542 524 CURVE",
"542 556 LINE SMOOTH",
"542 596 OFFCURVE",
"562 628 OFFCURVE",
"594 648 CURVE",
"614 670 OFFCURVE",
"634 680 OFFCURVE",
"656 660 CURVE",
"708 628 OFFCURVE",
"760 586 OFFCURVE",
"770 524 CURVE",
"770 494 OFFCURVE",
"780 462 OFFCURVE",
"800 442 CURVE",
"832 400 OFFCURVE",
"874 380 OFFCURVE",
"924 400 CURVE",
"976 410 OFFCURVE",
"1008 442 OFFCURVE",
"1018 494 CURVE",
"1018 514 OFFCURVE",
"1018 534 OFFCURVE",
"1008 556 CURVE",
"998 596 OFFCURVE",
"1008 628 OFFCURVE",
"1018 660 CURVE SMOOTH",
"1028 690 OFFCURVE",
"1038 710 OFFCURVE",
"1038 742 CURVE",
"1060 846 OFFCURVE",
"998 950 OFFCURVE",
"894 970 CURVE",
"810 970 LINE SMOOTH",
"780 970 OFFCURVE",
"738 970 OFFCURVE",
"708 980 CURVE",
"666 1000 OFFCURVE",
"624 1000 OFFCURVE",
"584 970 CURVE",
"542 950 OFFCURVE",
"510 950 OFFCURVE",
"470 970 CURVE",
"428 980 OFFCURVE",
"386 980 OFFCURVE",
"344 980 CURVE",
"262 970 OFFCURVE",
"210 918 OFFCURVE",
"180 846 CURVE",
"180 814 OFFCURVE",
"168 794 OFFCURVE",
"168 762 CURVE SMOOTH",
"168 710 OFFCURVE",
"158 670 OFFCURVE",
"128 628 CURVE",
"66 524 OFFCURVE",
"66 420 OFFCURVE",
"138 328 CURVE",
"158 296 OFFCURVE",
"168 276 OFFCURVE",
"158 234 CURVE"
);
}
);
width = 1082;
},
{
layerId = "2A439511-CA4B-4C8E-8DEB-A9BDC8F58CF8";
paths = (
{
closed = 1;
nodes = (
"76 1074 OFFCURVE",
"44 1042 OFFCURVE",
"54 1000 CURVE",
"54 960 OFFCURVE",
"96 928 OFFCURVE",
"138 928 CURVE SMOOTH",
"180 928 OFFCURVE",
"210 960 OFFCURVE",
"200 1000 CURVE",
"200 1042 OFFCURVE",
"168 1084 OFFCURVE",
"116 1084 CURVE"
);
},
{
closed = 1;
nodes = (
"168 172 OFFCURVE",
"180 110 OFFCURVE",
"190 48 CURVE",
"200 38 OFFCURVE",
"210 16 OFFCURVE",
"210 -4 CURVE",
"272 -76 OFFCURVE",
"386 -76 OFFCURVE",
"428 16 CURVE SMOOTH",
"438 38 OFFCURVE",
"448 58 OFFCURVE",
"448 78 CURVE SMOOTH",
"448 142 OFFCURVE",
"458 204 OFFCURVE",
"458 266 CURVE SMOOTH",
"458 286 OFFCURVE",
"458 306 OFFCURVE",
"470 328 CURVE",
"510 390 OFFCURVE",
"532 452 OFFCURVE",
"542 524 CURVE",
"542 556 LINE SMOOTH",
"542 596 OFFCURVE",
"562 628 OFFCURVE",
"594 648 CURVE",
"614 670 OFFCURVE",
"634 680 OFFCURVE",
"656 660 CURVE",
"708 628 OFFCURVE",
"760 586 OFFCURVE",
"770 524 CURVE",
"770 494 OFFCURVE",
"780 462 OFFCURVE",
"800 442 CURVE",
"832 400 OFFCURVE",
"874 380 OFFCURVE",
"924 400 CURVE",
"976 410 OFFCURVE",
"1008 442 OFFCURVE",
"1018 494 CURVE",
"1018 514 OFFCURVE",
"1018 534 OFFCURVE",
"1008 556 CURVE",
"998 596 OFFCURVE",
"1008 628 OFFCURVE",
"1018 660 CURVE SMOOTH",
"1028 690 OFFCURVE",
"1038 710 OFFCURVE",
"1038 742 CURVE",
"1060 846 OFFCURVE",
"998 950 OFFCURVE",
"894 970 CURVE",
"810 970 LINE SMOOTH",
"780 970 OFFCURVE",
"738 970 OFFCURVE",
"708 980 CURVE",
"666 1000 OFFCURVE",
"624 1000 OFFCURVE",
"584 970 CURVE",
"542 950 OFFCURVE",
"510 950 OFFCURVE",
"470 970 CURVE",
"428 980 OFFCURVE",
"386 980 OFFCURVE",
"344 980 CURVE",
"262 970 OFFCURVE",
"210 918 OFFCURVE",
"180 846 CURVE",
"180 814 OFFCURVE",
"168 794 OFFCURVE",
"168 762 CURVE SMOOTH",
"168 710 OFFCURVE",
"158 670 OFFCURVE",
"128 628 CURVE",
"66 524 OFFCURVE",
"66 420 OFFCURVE",
"138 328 CURVE",
"158 296 OFFCURVE",
"168 276 OFFCURVE",
"158 234 CURVE"
);
}
);
width = 1082;
},
{
layerId = "0BD0D975-F19E-4ACA-9A31-41147C737F0B";
width = 600;
}
);
note = R;
unicode = 0052;
},
{
color = 4;
glyphname = S;
lastChange = "2019-02-10 19:10:17 +0000";
layers = (
{
layerId = "BCBE6FB0-8B5B-4728-88BC-6AD881489723";
paths = (
{
closed = 1;
nodes = (
"512 -42 OFFCURVE",
"622 16 OFFCURVE",
"648 16 QCURVE SMOOTH",
"656 16 OFFCURVE",
"669 12 OFFCURVE",
"678 12 QCURVE",
"686 12 OFFCURVE",
"704 26 OFFCURVE",
"714 26 QCURVE SMOOTH",
"745 26 OFFCURVE",
"792 56 OFFCURVE",
"828 112 OFFCURVE",
"828 148 QCURVE SMOOTH",
"828 159 OFFCURVE",
"818 174 OFFCURVE",
"818 188 QCURVE SMOOTH",
"818 236 OFFCURVE",
"862 327 OFFCURVE",
"862 436 OFFCURVE",
"778 493 OFFCURVE",
"662 516 OFFCURVE",
"642 530 OFFCURVE",
"598 660 OFFCURVE",
"498 720 OFFCURVE",
"432 736 OFFCURVE",
"432 802 OFFCURVE",
"464 828 OFFCURVE",
"526 828 OFFCURVE",
"607 715 OFFCURVE",
"722 713 OFFCURVE",
"790 781 OFFCURVE",
"790 893 OFFCURVE",
"722 962 OFFCURVE",
"585 962 OFFCURVE",
"528 1026 OFFCURVE",
"482 1026 QCURVE SMOOTH",
"448 1026 OFFCURVE",
"386 976 OFFCURVE",
"358 976 QCURVE",
"334 976 OFFCURVE",
"255 1008 OFFCURVE",
"230 1008 QCURVE SMOOTH",
"140 1008 OFFCURVE",
"29 898 OFFCURVE",
"40 828 QCURVE SMOOTH",
"52 754 OFFCURVE",
"178 644 OFFCURVE",
"212 617 OFFCURVE",
"212 602 QCURVE SMOOTH",
"212 580 OFFCURVE",
"204 542 OFFCURVE",
"204 512 QCURVE",
"204 404 OFFCURVE",
"352 280 OFFCURVE",
"448 280 OFFCURVE",
"533 302 OFFCURVE",
"564 302 OFFCURVE",
"582 285 OFFCURVE",
"582 272 QCURVE SMOOTH",
"582 220 OFFCURVE",
"372 167 OFFCURVE",
"372 84 QCURVE SMOOTH",
"372 42 OFFCURVE",
"439 -42 OFFCURVE",
"492 -42 QCURVE SMOOTH"
);
},
{
closed = 1;
nodes = (
"266 12 OFFCURVE",
"332 78 OFFCURVE",
"332 168 OFFCURVE",
"262 230 OFFCURVE",
"174 230 OFFCURVE",
"106 162 OFFCURVE",
"106 72 OFFCURVE",
"170 12 OFFCURVE",
"220 12 QCURVE SMOOTH"
);
}
);
width = 904;
},
{
layerId = "2A439511-CA4B-4C8E-8DEB-A9BDC8F58CF8";
paths = (
{
closed = 1;
nodes = (
"210 566 OFFCURVE",
"202 546 OFFCURVE",
"204 512 CURVE",
"204 384 OFFCURVE",
"300 280 OFFCURVE",
"414 280 CURVE SMOOTH",
"480 280 OFFCURVE",
"522 302 OFFCURVE",
"550 302 CURVE SMOOTH",
"566 302 OFFCURVE",
"582 288 OFFCURVE",
"582 272 CURVE SMOOTH",
"582 174 OFFCURVE",
"372 222 OFFCURVE",
"372 84 CURVE SMOOTH",
"372 22 OFFCURVE",
"430 -42 OFFCURVE",
"488 -42 CURVE SMOOTH",
"542 -42 OFFCURVE",
"596 16 OFFCURVE",
"652 16 CURVE SMOOTH",
"662 16 OFFCURVE",
"664 14 OFFCURVE",
"676 12 CURVE",
"686 12 OFFCURVE",
"692 18 OFFCURVE",
"704 24 CURVE",
"766 24 OFFCURVE",
"828 74 OFFCURVE",
"828 148 CURVE SMOOTH",
"828 168 OFFCURVE",
"818 178 OFFCURVE",
"818 188 CURVE SMOOTH",
"818 230 OFFCURVE",
"832 268 OFFCURVE",
"848 302 CURVE SMOOTH",
"858 324 OFFCURVE",
"862 346 OFFCURVE",
"862 368 CURVE SMOOTH",
"862 540 OFFCURVE",
"640 468 OFFCURVE",
"632 560 CURVE",
"600 642 OFFCURVE",
"582 686 OFFCURVE",
"498 716 CURVE",
"472 732 OFFCURVE",
"432 718 OFFCURVE",
"432 776 CURVE SMOOTH",
"432 814 OFFCURVE",
"460 828 OFFCURVE",
"486 828 CURVE SMOOTH",
"534 828 OFFCURVE",
"536 798 OFFCURVE",
"560 776 CURVE",
"580 736 OFFCURVE",
"622 724 OFFCURVE",
"662 714 CURVE",
"736 714 OFFCURVE",
"790 758 OFFCURVE",
"790 842 CURVE SMOOTH",
"790 912 OFFCURVE",
"736 962 OFFCURVE",
"676 962 CURVE SMOOTH",
"638 962 OFFCURVE",
"614 960 OFFCURVE",
"578 974 CURVE",
"534 1018 OFFCURVE",
"516 1026 OFFCURVE",
"482 1026 CURVE SMOOTH",
"428 1026 OFFCURVE",
"404 976 OFFCURVE",
"358 976 CURVE SMOOTH",
"316 976 OFFCURVE",
"272 1008 OFFCURVE",
"230 1008 CURVE SMOOTH",
"114 1008 OFFCURVE",
"40 928 OFFCURVE",
"40 828 CURVE SMOOTH",
"40 764 OFFCURVE",
"86 698 OFFCURVE",
"136 664 CURVE SMOOTH",
"156 650 OFFCURVE",
"194 650 OFFCURVE",
"208 602 CURVE"
);
},
{
closed = 1;
nodes = (
"280 12 OFFCURVE",
"332 64 OFFCURVE",
"332 126 CURVE SMOOTH",
"332 178 OFFCURVE",
"280 230 OFFCURVE",
"220 230 CURVE SMOOTH",
"158 230 OFFCURVE",
"106 178 OFFCURVE",
"106 116 CURVE SMOOTH",
"106 54 OFFCURVE",
"158 12 OFFCURVE",
"220 12 CURVE SMOOTH"
);
}
);
width = 904;
},
{
layerId = "0BD0D975-F19E-4ACA-9A31-41147C737F0B";
width = 600;
}
);
note = S;
unicode = 0053;
},
{
color = 0;
glyphname = T;
lastChange = "2019-02-10 19:10:17 +0000";
layers = (
{
layerId = "BCBE6FB0-8B5B-4728-88BC-6AD881489723";
paths = (
{
closed = 1;
nodes = (
"672 748 OFFCURVE",
"682 768 OFFCURVE",
"682 798 CURVE SMOOTH",
"682 858 OFFCURVE",
"682 908 OFFCURVE",
"652 968 CURVE",
"632 988 OFFCURVE",
"632 1018 OFFCURVE",
"622 1048 CURVE",
"622 1088 OFFCURVE",
"612 1128 OFFCURVE",
"592 1168 CURVE SMOOTH",
"572 1208 OFFCURVE",
"562 1248 OFFCURVE",
"552 1288 CURVE SMOOTH",
"542 1328 OFFCURVE",
"522 1368 OFFCURVE",
"482 1398 CURVE",
"422 1448 OFFCURVE",
"322 1428 OFFCURVE",
"282 1348 CURVE",
"262 1318 OFFCURVE",
"252 1278 OFFCURVE",
"262 1248 CURVE SMOOTH",
"282 1188 OFFCURVE",
"292 1118 OFFCURVE",
"302 1058 CURVE",
"302 1038 OFFCURVE",
"312 1018 OFFCURVE",
"312 998 CURVE",
"342 928 OFFCURVE",
"332 858 OFFCURVE",
"322 788 CURVE",
"322 738 OFFCURVE",
"282 718 OFFCURVE",
"242 728 CURVE",
"232 728 OFFCURVE",
"212 728 OFFCURVE",
"202 738 CURVE",
"142 738 LINE SMOOTH",
"92 738 OFFCURVE",
"52 708 OFFCURVE",
"42 658 CURVE",
"22 618 OFFCURVE",
"42 566 OFFCURVE",
"92 536 CURVE",
"102 526 OFFCURVE",
"122 526 OFFCURVE",
"142 516 CURVE",
"182 506 OFFCURVE",
"202 476 OFFCURVE",
"212 436 CURVE SMOOTH",
"222 396 OFFCURVE",
"242 356 OFFCURVE",
"232 306 CURVE",
"232 286 OFFCURVE",
"242 256 OFFCURVE",
"242 226 CURVE SMOOTH",
"242 126 OFFCURVE",
"322 16 OFFCURVE",
"452 6 CURVE",
"492 -4 OFFCURVE",
"532 -14 OFFCURVE",
"572 -34 CURVE",
"582 -44 OFFCURVE",
"592 -54 OFFCURVE",
"602 -54 CURVE",
"642 -64 OFFCURVE",
"682 -64 OFFCURVE",
"712 -34 CURVE SMOOTH",
"752 6 OFFCURVE",
"752 46 OFFCURVE",
"732 86 CURVE",
"732 96 OFFCURVE",
"722 116 OFFCURVE",
"712 126 CURVE SMOOTH",
"672 166 OFFCURVE",
"662 216 OFFCURVE",
"662 266 CURVE SMOOTH",
"662 296 OFFCURVE",
"652 326 OFFCURVE",
"652 356 CURVE SMOOTH",
"652 376 OFFCURVE",
"652 406 OFFCURVE",
"662 426 CURVE",
"662 446 OFFCURVE",
"672 456 OFFCURVE",
"692 456 CURVE SMOOTH",
"712 456 OFFCURVE",
"732 446 OFFCURVE",
"762 446 CURVE SMOOTH",
"794 446 OFFCURVE",
"834 466 OFFCURVE",
"854 496 CURVE",
"884 546 OFFCURVE",
"924 598 OFFCURVE",
"964 648 CURVE",
"994 678 OFFCURVE",
"994 718 OFFCURVE",
"964 758 CURVE",
"944 788 OFFCURVE",
"914 808 OFFCURVE",
"874 808 CURVE SMOOTH",
"844 808 OFFCURVE",
"814 788 OFFCURVE",
"794 768 CURVE",
"772 758 OFFCURVE",
"752 738 OFFCURVE",
"732 728 CURVE",
"722 718 OFFCURVE",
"702 718 OFFCURVE",
"692 718 CURVE"
);
}
);
width = 996;
},
{
layerId = "2A439511-CA4B-4C8E-8DEB-A9BDC8F58CF8";
paths = (
{
closed = 1;
nodes = (
"672 748 OFFCURVE",
"682 768 OFFCURVE",
"682 798 CURVE SMOOTH",
"682 858 OFFCURVE",
"682 908 OFFCURVE",
"652 968 CURVE",
"632 988 OFFCURVE",
"632 1018 OFFCURVE",
"622 1048 CURVE",
"622 1088 OFFCURVE",
"612 1128 OFFCURVE",
"592 1168 CURVE SMOOTH",
"572 1208 OFFCURVE",
"562 1248 OFFCURVE",
"552 1288 CURVE SMOOTH",
"542 1328 OFFCURVE",
"522 1368 OFFCURVE",
"482 1398 CURVE",
"422 1448 OFFCURVE",
"322 1428 OFFCURVE",
"282 1348 CURVE",
"262 1318 OFFCURVE",
"252 1278 OFFCURVE",
"262 1248 CURVE SMOOTH",
"282 1188 OFFCURVE",
"292 1118 OFFCURVE",
"302 1058 CURVE",
"302 1038 OFFCURVE",
"312 1018 OFFCURVE",
"312 998 CURVE",
"342 928 OFFCURVE",
"332 858 OFFCURVE",
"322 788 CURVE",
"322 738 OFFCURVE",
"282 718 OFFCURVE",
"242 728 CURVE",
"232 728 OFFCURVE",
"212 728 OFFCURVE",
"202 738 CURVE",
"142 738 LINE SMOOTH",
"92 738 OFFCURVE",
"52 708 OFFCURVE",
"42 658 CURVE",
"22 618 OFFCURVE",
"42 566 OFFCURVE",
"92 536 CURVE",
"102 526 OFFCURVE",
"122 526 OFFCURVE",
"142 516 CURVE",
"182 506 OFFCURVE",
"202 476 OFFCURVE",
"212 436 CURVE SMOOTH",
"222 396 OFFCURVE",
"242 356 OFFCURVE",
"232 306 CURVE",
"232 286 OFFCURVE",
"242 256 OFFCURVE",
"242 226 CURVE SMOOTH",
"242 126 OFFCURVE",
"322 16 OFFCURVE",
"452 6 CURVE",
"492 -4 OFFCURVE",
"532 -14 OFFCURVE",
"572 -34 CURVE",
"582 -44 OFFCURVE",
"592 -54 OFFCURVE",
"602 -54 CURVE",
"642 -64 OFFCURVE",
"682 -64 OFFCURVE",
"712 -34 CURVE SMOOTH",
"752 6 OFFCURVE",
"752 46 OFFCURVE",
"732 86 CURVE",
"732 96 OFFCURVE",
"722 116 OFFCURVE",
"712 126 CURVE SMOOTH",
"672 166 OFFCURVE",
"662 216 OFFCURVE",
"662 266 CURVE SMOOTH",
"662 296 OFFCURVE",
"652 326 OFFCURVE",
"652 356 CURVE SMOOTH",
"652 376 OFFCURVE",
"652 406 OFFCURVE",
"662 426 CURVE",
"662 446 OFFCURVE",
"672 456 OFFCURVE",
"692 456 CURVE SMOOTH",
"712 456 OFFCURVE",
"732 446 OFFCURVE",
"762 446 CURVE SMOOTH",
"794 446 OFFCURVE",
"834 466 OFFCURVE",
"854 496 CURVE",
"884 546 OFFCURVE",
"924 598 OFFCURVE",
"964 648 CURVE",
"994 678 OFFCURVE",
"994 718 OFFCURVE",
"964 758 CURVE",
"944 788 OFFCURVE",
"914 808 OFFCURVE",
"874 808 CURVE SMOOTH",
"844 808 OFFCURVE",
"814 788 OFFCURVE",
"794 768 CURVE",
"772 758 OFFCURVE",
"752 738 OFFCURVE",
"732 728 CURVE",
"722 718 OFFCURVE",
"702 718 OFFCURVE",
"692 718 CURVE"
);
}
);
width = 996;
},
{
layerId = "0BD0D975-F19E-4ACA-9A31-41147C737F0B";
width = 600;
}
);
note = T;
unicode = 0054;
},
{
color = 0;
glyphname = U;
lastChange = "2019-02-10 19:10:17 +0000";
layers = (
{
layerId = "BCBE6FB0-8B5B-4728-88BC-6AD881489723";
paths = (
{
closed = 1;
nodes = (
"938 74 OFFCURVE",
"948 96 OFFCURVE",
"948 118 CURVE",
"960 220 OFFCURVE",
"970 310 OFFCURVE",
"1016 400 CURVE",
"1060 512 OFFCURVE",
"1044 612 OFFCURVE",
"966 702 CURVE",
"954 712 OFFCURVE",
"938 736 OFFCURVE",
"926 746 CURVE",
"892 768 OFFCURVE",
"880 794 OFFCURVE",
"896 824 CURVE SMOOTH",
"908 846 OFFCURVE",
"926 856 OFFCURVE",
"934 898 CURVE SMOOTH",
"944 946 OFFCURVE",
"926 960 OFFCURVE",
"926 994 CURVE",
"914 1050 OFFCURVE",
"870 1106 OFFCURVE",
"802 1106 CURVE SMOOTH",
"758 1106 OFFCURVE",
"712 1072 OFFCURVE",
"690 1038 CURVE",
"668 994 OFFCURVE",
"646 960 OFFCURVE",
"612 926 CURVE",
"556 858 OFFCURVE",
"544 780 OFFCURVE",
"556 690 CURVE",
"568 656 OFFCURVE",
"568 634 OFFCURVE",
"568 600 CURVE SMOOTH",
"568 544 OFFCURVE",
"556 478 OFFCURVE",
"544 410 CURVE",
"544 354 OFFCURVE",
"522 298 OFFCURVE",
"500 254 CURVE SMOOTH",
"488 230 OFFCURVE",
"478 220 OFFCURVE",
"466 230 CURVE",
"444 230 OFFCURVE",
"432 242 OFFCURVE",
"432 254 CURVE",
"410 286 OFFCURVE",
"410 320 OFFCURVE",
"422 354 CURVE",
"432 432 OFFCURVE",
"410 500 OFFCURVE",
"376 568 CURVE SMOOTH",
"344 634 OFFCURVE",
"326 700 OFFCURVE",
"316 768 CURVE SMOOTH",
"306 844 OFFCURVE",
"298 858 OFFCURVE",
"276 892 CURVE",
"254 948 OFFCURVE",
"198 982 OFFCURVE",
"142 970 CURVE",
"86 948 OFFCURVE",
"62 914 OFFCURVE",
"52 858 CURVE",
"30 780 OFFCURVE",
"30 712 OFFCURVE",
"52 646 CURVE",
"74 600 OFFCURVE",
"74 544 OFFCURVE",
"74 488 CURVE SMOOTH",
"74 432 OFFCURVE",
"86 376 OFFCURVE",
"118 332 CURVE",
"142 276 OFFCURVE",
"164 220 OFFCURVE",
"164 152 CURVE SMOOTH",
"164 86 OFFCURVE",
"220 18 OFFCURVE",
"310 30 CURVE",
"320 30 OFFCURVE",
"326 26 OFFCURVE",
"348 26 CURVE",
"372 18 LINE",
"372 6 OFFCURVE",
"388 6 OFFCURVE",
"400 6 CURVE",
"456 -50 OFFCURVE",
"488 -60 OFFCURVE",
"556 -16 CURVE",
"578 -4 OFFCURVE",
"612 -4 OFFCURVE",
"646 -16 CURVE",
"702 -38 OFFCURVE",
"758 -50 OFFCURVE",
"814 -38 CURVE",
"836 -26 OFFCURVE",
"868 -22 OFFCURVE",
"892 -22 CURVE",
"902 -46 OFFCURVE",
"892 -60 OFFCURVE",
"904 -82 CURVE",
"904 -94 OFFCURVE",
"914 -116 OFFCURVE",
"926 -128 CURVE SMOOTH",
"960 -162 OFFCURVE",
"1004 -162 OFFCURVE",
"1038 -128 CURVE SMOOTH",
"1060 -106 OFFCURVE",
"1072 -50 OFFCURVE",
"1038 -16 CURVE SMOOTH",
"1026 -4 OFFCURVE",
"1016 6 OFFCURVE",
"994 18 CURVE",
"982 30 OFFCURVE",
"960 40 OFFCURVE",
"938 40 CURVE"
);
}
);
width = 1052;
},
{
layerId = "2A439511-CA4B-4C8E-8DEB-A9BDC8F58CF8";
paths = (
{
closed = 1;
nodes = (
"938 74 OFFCURVE",
"948 96 OFFCURVE",
"948 118 CURVE",
"960 220 OFFCURVE",
"970 310 OFFCURVE",
"1016 400 CURVE",
"1060 512 OFFCURVE",
"1044 612 OFFCURVE",
"966 702 CURVE",
"954 712 OFFCURVE",
"938 736 OFFCURVE",
"926 746 CURVE",
"892 768 OFFCURVE",
"880 794 OFFCURVE",
"896 824 CURVE SMOOTH",
"908 846 OFFCURVE",
"926 856 OFFCURVE",
"934 898 CURVE SMOOTH",
"944 946 OFFCURVE",
"926 960 OFFCURVE",
"926 994 CURVE",
"914 1050 OFFCURVE",
"870 1106 OFFCURVE",
"802 1106 CURVE SMOOTH",
"758 1106 OFFCURVE",
"712 1072 OFFCURVE",
"690 1038 CURVE",
"668 994 OFFCURVE",
"646 960 OFFCURVE",
"612 926 CURVE",
"556 858 OFFCURVE",
"544 780 OFFCURVE",
"556 690 CURVE",
"568 656 OFFCURVE",
"568 634 OFFCURVE",
"568 600 CURVE SMOOTH",
"568 544 OFFCURVE",
"556 478 OFFCURVE",
"544 410 CURVE",
"544 354 OFFCURVE",
"522 298 OFFCURVE",
"500 254 CURVE SMOOTH",
"488 230 OFFCURVE",
"478 220 OFFCURVE",
"466 230 CURVE",
"444 230 OFFCURVE",
"432 242 OFFCURVE",
"432 254 CURVE",
"410 286 OFFCURVE",
"410 320 OFFCURVE",
"422 354 CURVE",
"432 432 OFFCURVE",
"410 500 OFFCURVE",
"376 568 CURVE SMOOTH",
"344 634 OFFCURVE",
"326 700 OFFCURVE",
"316 768 CURVE SMOOTH",
"306 844 OFFCURVE",
"298 858 OFFCURVE",
"276 892 CURVE",
"254 948 OFFCURVE",
"198 982 OFFCURVE",
"142 970 CURVE",
"86 948 OFFCURVE",
"62 914 OFFCURVE",
"52 858 CURVE",
"30 780 OFFCURVE",
"30 712 OFFCURVE",
"52 646 CURVE",
"74 600 OFFCURVE",
"74 544 OFFCURVE",
"74 488 CURVE SMOOTH",
"74 432 OFFCURVE",
"86 376 OFFCURVE",
"118 332 CURVE",
"142 276 OFFCURVE",
"164 220 OFFCURVE",
"164 152 CURVE SMOOTH",
"164 86 OFFCURVE",
"220 18 OFFCURVE",
"310 30 CURVE",
"320 30 OFFCURVE",
"326 26 OFFCURVE",
"348 26 CURVE",
"372 18 LINE",
"372 6 OFFCURVE",
"388 6 OFFCURVE",
"400 6 CURVE",
"456 -50 OFFCURVE",
"488 -60 OFFCURVE",
"556 -16 CURVE",
"578 -4 OFFCURVE",
"612 -4 OFFCURVE",
"646 -16 CURVE",
"702 -38 OFFCURVE",
"758 -50 OFFCURVE",
"814 -38 CURVE",
"836 -26 OFFCURVE",
"868 -22 OFFCURVE",
"892 -22 CURVE",
"902 -46 OFFCURVE",
"892 -60 OFFCURVE",
"904 -82 CURVE",
"904 -94 OFFCURVE",
"914 -116 OFFCURVE",
"926 -128 CURVE SMOOTH",
"960 -162 OFFCURVE",
"1004 -162 OFFCURVE",
"1038 -128 CURVE SMOOTH",
"1060 -106 OFFCURVE",
"1072 -50 OFFCURVE",
"1038 -16 CURVE SMOOTH",
"1026 -4 OFFCURVE",
"1016 6 OFFCURVE",
"994 18 CURVE",
"982 30 OFFCURVE",
"960 40 OFFCURVE",
"938 40 CURVE"
);
}
);
width = 1052;
},
{
layerId = "0BD0D975-F19E-4ACA-9A31-41147C737F0B";
width = 600;
}
);
note = U;
unicode = 0055;
},
{
color = 0;
glyphname = V;
lastChange = "2019-02-10 19:10:17 +0000";
layers = (
{
layerId = "BCBE6FB0-8B5B-4728-88BC-6AD881489723";
paths = (
{
closed = 1;
nodes = (
"944 856 OFFCURVE",
"944 898 OFFCURVE",
"934 950 CURVE",
"914 1002 OFFCURVE",
"872 1042 OFFCURVE",
"810 1042 CURVE SMOOTH",
"758 1042 OFFCURVE",
"706 1002 OFFCURVE",
"696 950 CURVE",
"686 940 OFFCURVE",
"686 918 OFFCURVE",
"686 908 CURVE",
"676 856 OFFCURVE",
"676 816 OFFCURVE",
"676 764 CURVE",
"666 722 OFFCURVE",
"656 692 OFFCURVE",
"634 660 CURVE",
"604 630 OFFCURVE",
"582 598 OFFCURVE",
"562 568 CURVE",
"552 546 OFFCURVE",
"552 536 OFFCURVE",
"542 526 CURVE",
"532 506 OFFCURVE",
"500 506 OFFCURVE",
"490 516 CURVE",
"480 516 OFFCURVE",
"470 526 OFFCURVE",
"458 536 CURVE",
"408 588 OFFCURVE",
"346 640 OFFCURVE",
"314 712 CURVE",
"314 732 OFFCURVE",
"304 742 OFFCURVE",
"294 754 CURVE SMOOTH",
"262 794 OFFCURVE",
"252 836 OFFCURVE",
"272 888 CURVE",
"272 928 LINE SMOOTH",
"272 990 OFFCURVE",
"210 1032 OFFCURVE",
"158 1032 CURVE",
"96 1022 OFFCURVE",
"56 960 OFFCURVE",
"66 898 CURVE",
"76 888 OFFCURVE",
"76 866 OFFCURVE",
"86 856 CURVE",
"96 826 OFFCURVE",
"96 794 OFFCURVE",
"86 764 CURVE",
"56 722 OFFCURVE",
"56 670 OFFCURVE",
"66 618 CURVE",
"66 516 LINE",
"46 360 OFFCURVE",
"118 268 OFFCURVE",
"232 226 CURVE SMOOTH",
"284 206 OFFCURVE",
"314 174 OFFCURVE",
"334 122 CURVE",
"346 102 OFFCURVE",
"366 72 OFFCURVE",
"386 50 CURVE",
"428 -12 OFFCURVE",
"480 -22 OFFCURVE",
"552 -2 CURVE",
"644 20 OFFCURVE",
"706 82 OFFCURVE",
"728 164 CURVE",
"738 246 OFFCURVE",
"768 308 OFFCURVE",
"852 340 CURVE",
"914 360 OFFCURVE",
"954 422 OFFCURVE",
"966 494 CURVE",
"966 536 OFFCURVE",
"954 578 OFFCURVE",
"944 608 CURVE SMOOTH",
"934 640 OFFCURVE",
"924 660 OFFCURVE",
"944 692 CURVE",
"954 732 OFFCURVE",
"954 764 OFFCURVE",
"954 804 CURVE"
);
}
);
width = 1002;
},
{
layerId = "2A439511-CA4B-4C8E-8DEB-A9BDC8F58CF8";
paths = (
{
closed = 1;
nodes = (
"944 856 OFFCURVE",
"944 898 OFFCURVE",
"934 950 CURVE",
"914 1002 OFFCURVE",
"872 1042 OFFCURVE",
"810 1042 CURVE SMOOTH",
"758 1042 OFFCURVE",
"706 1002 OFFCURVE",
"696 950 CURVE",
"686 940 OFFCURVE",
"686 918 OFFCURVE",
"686 908 CURVE",
"676 856 OFFCURVE",
"676 816 OFFCURVE",
"676 764 CURVE",
"666 722 OFFCURVE",
"656 692 OFFCURVE",
"634 660 CURVE",
"604 630 OFFCURVE",
"582 598 OFFCURVE",
"562 568 CURVE",
"552 546 OFFCURVE",
"552 536 OFFCURVE",
"542 526 CURVE",
"532 506 OFFCURVE",
"500 506 OFFCURVE",
"490 516 CURVE",
"480 516 OFFCURVE",
"470 526 OFFCURVE",
"458 536 CURVE",
"408 588 OFFCURVE",
"346 640 OFFCURVE",
"314 712 CURVE",
"314 732 OFFCURVE",
"304 742 OFFCURVE",
"294 754 CURVE SMOOTH",
"262 794 OFFCURVE",
"252 836 OFFCURVE",
"272 888 CURVE",
"272 928 LINE SMOOTH",
"272 990 OFFCURVE",
"210 1032 OFFCURVE",
"158 1032 CURVE",
"96 1022 OFFCURVE",
"56 960 OFFCURVE",
"66 898 CURVE",
"76 888 OFFCURVE",
"76 866 OFFCURVE",
"86 856 CURVE",
"96 826 OFFCURVE",
"96 794 OFFCURVE",
"86 764 CURVE",
"56 722 OFFCURVE",
"56 670 OFFCURVE",
"66 618 CURVE",
"66 516 LINE",
"46 360 OFFCURVE",
"118 268 OFFCURVE",
"232 226 CURVE SMOOTH",
"284 206 OFFCURVE",
"314 174 OFFCURVE",
"334 122 CURVE",
"346 102 OFFCURVE",
"366 72 OFFCURVE",
"386 50 CURVE",
"428 -12 OFFCURVE",
"480 -22 OFFCURVE",
"552 -2 CURVE",
"644 20 OFFCURVE",
"706 82 OFFCURVE",
"728 164 CURVE",
"738 246 OFFCURVE",
"768 308 OFFCURVE",
"852 340 CURVE",
"914 360 OFFCURVE",
"954 422 OFFCURVE",
"966 494 CURVE",
"966 536 OFFCURVE",
"954 578 OFFCURVE",
"944 608 CURVE SMOOTH",
"934 640 OFFCURVE",
"924 660 OFFCURVE",
"944 692 CURVE",
"954 732 OFFCURVE",
"954 764 OFFCURVE",
"954 804 CURVE"
);
}
);
width = 1002;
},
{
layerId = "0BD0D975-F19E-4ACA-9A31-41147C737F0B";
width = 600;
}
);
note = V;
unicode = 0056;
},
{
color = 0;
glyphname = W;
lastChange = "2019-02-10 19:10:17 +0000";
layers = (
{
layerId = "BCBE6FB0-8B5B-4728-88BC-6AD881489723";
paths = (
{
closed = 1;
nodes = (
"1144 16 OFFCURVE",
"1166 16 OFFCURVE",
"1190 16 CURVE",
"1300 -8 OFFCURVE",
"1354 28 OFFCURVE",
"1378 140 CURVE",
"1390 152 OFFCURVE",
"1390 152 OFFCURVE",
"1390 162 CURVE SMOOTH",
"1390 196 OFFCURVE",
"1400 216 OFFCURVE",
"1410 240 CURVE",
"1468 306 OFFCURVE",
"1500 396 OFFCURVE",
"1558 464 CURVE SMOOTH",
"1612 530 OFFCURVE",
"1612 618 OFFCURVE",
"1544 698 CURVE",
"1534 708 OFFCURVE",
"1524 722 OFFCURVE",
"1512 732 CURVE",
"1478 766 OFFCURVE",
"1468 798 OFFCURVE",
"1468 832 CURVE",
"1478 866 OFFCURVE",
"1478 888 OFFCURVE",
"1468 922 CURVE",
"1454 1012 OFFCURVE",
"1378 1080 OFFCURVE",
"1278 1066 CURVE",
"1176 1046 OFFCURVE",
"1110 946 OFFCURVE",
"1132 842 CURVE",
"1144 812 OFFCURVE",
"1156 778 OFFCURVE",
"1176 742 CURVE",
"1200 722 OFFCURVE",
"1210 698 OFFCURVE",
"1210 678 CURVE SMOOTH",
"1210 618 OFFCURVE",
"1200 564 OFFCURVE",
"1166 508 CURVE",
"1156 498 OFFCURVE",
"1144 498 OFFCURVE",
"1132 484 CURVE",
"1110 508 OFFCURVE",
"1100 530 OFFCURVE",
"1100 544 CURVE",
"1076 608 OFFCURVE",
"1042 678 OFFCURVE",
"996 722 CURVE SMOOTH",
"976 742 LINE SMOOTH",
"952 766 OFFCURVE",
"952 798 OFFCURVE",
"952 832 CURVE SMOOTH",
"952 856 OFFCURVE",
"966 876 OFFCURVE",
"966 902 CURVE",
"976 956 OFFCURVE",
"966 1000 OFFCURVE",
"932 1036 CURVE",
"876 1100 OFFCURVE",
"774 1110 OFFCURVE",
"718 1046 CURVE",
"664 990 OFFCURVE",
"618 922 OFFCURVE",
"574 856 CURVE",
"540 822 OFFCURVE",
"540 778 OFFCURVE",
"540 732 CURVE SMOOTH",
"540 708 OFFCURVE",
"540 678 OFFCURVE",
"550 654 CURVE",
"550 618 OFFCURVE",
"540 588 OFFCURVE",
"518 564 CURVE",
"504 530 OFFCURVE",
"474 530 OFFCURVE",
"450 554 CURVE",
"394 598 OFFCURVE",
"370 654 OFFCURVE",
"370 722 CURVE",
"384 742 OFFCURVE",
"384 778 OFFCURVE",
"384 798 CURVE",
"394 866 OFFCURVE",
"350 932 OFFCURVE",
"296 956 CURVE",
"236 976 OFFCURVE",
"182 956 OFFCURVE",
"136 902 CURVE",
"116 876 OFFCURVE",
"92 842 OFFCURVE",
"82 822 CURVE",
"38 766 OFFCURVE",
"26 708 OFFCURVE",
"48 644 CURVE",
"58 598 OFFCURVE",
"58 554 OFFCURVE",
"58 508 CURVE SMOOTH",
"58 430 OFFCURVE",
"92 350 OFFCURVE",
"148 296 CURVE SMOOTH",
"182 262 OFFCURVE",
"206 240 OFFCURVE",
"206 196 CURVE",
"216 172 OFFCURVE",
"226 140 OFFCURVE",
"250 116 CURVE",
"282 72 OFFCURVE",
"416 -18 OFFCURVE",
"484 -18 CURVE",
"584 -28 OFFCURVE",
"684 -18 OFFCURVE",
"788 52 CURVE",
"798 62 OFFCURVE",
"818 72 OFFCURVE",
"842 82 CURVE SMOOTH",
"876 96 OFFCURVE",
"898 82 OFFCURVE",
"898 52 CURVE SMOOTH",
"898 16 OFFCURVE",
"898 -8 OFFCURVE",
"908 -28 CURVE",
"922 -62 OFFCURVE",
"942 -96 OFFCURVE",
"986 -96 CURVE",
"1032 -106 OFFCURVE",
"1066 -82 OFFCURVE",
"1086 -38 CURVE",
"1100 -28 OFFCURVE",
"1110 -8 OFFCURVE",
"1120 28 CURVE"
);
}
);
width = 1626;
},
{
layerId = "2A439511-CA4B-4C8E-8DEB-A9BDC8F58CF8";
paths = (
{
closed = 1;
nodes = (
"1144 16 OFFCURVE",
"1166 16 OFFCURVE",
"1190 16 CURVE",
"1300 -8 OFFCURVE",
"1354 28 OFFCURVE",
"1378 140 CURVE",
"1390 152 OFFCURVE",
"1390 152 OFFCURVE",
"1390 162 CURVE SMOOTH",
"1390 196 OFFCURVE",
"1400 216 OFFCURVE",
"1410 240 CURVE",
"1468 306 OFFCURVE",
"1500 396 OFFCURVE",
"1558 464 CURVE SMOOTH",
"1612 530 OFFCURVE",
"1612 618 OFFCURVE",
"1544 698 CURVE",
"1534 708 OFFCURVE",
"1524 722 OFFCURVE",
"1512 732 CURVE",
"1478 766 OFFCURVE",
"1468 798 OFFCURVE",
"1468 832 CURVE",
"1478 866 OFFCURVE",
"1478 888 OFFCURVE",
"1468 922 CURVE",
"1454 1012 OFFCURVE",
"1378 1080 OFFCURVE",
"1278 1066 CURVE",
"1176 1046 OFFCURVE",
"1110 946 OFFCURVE",
"1132 842 CURVE",
"1144 812 OFFCURVE",
"1156 778 OFFCURVE",
"1176 742 CURVE",
"1200 722 OFFCURVE",
"1210 698 OFFCURVE",
"1210 678 CURVE SMOOTH",
"1210 618 OFFCURVE",
"1200 564 OFFCURVE",
"1166 508 CURVE",
"1156 498 OFFCURVE",
"1144 498 OFFCURVE",
"1132 484 CURVE",
"1110 508 OFFCURVE",
"1100 530 OFFCURVE",
"1100 544 CURVE",
"1076 608 OFFCURVE",
"1042 678 OFFCURVE",
"996 722 CURVE SMOOTH",
"976 742 LINE SMOOTH",
"952 766 OFFCURVE",
"952 798 OFFCURVE",
"952 832 CURVE SMOOTH",
"952 856 OFFCURVE",
"966 876 OFFCURVE",
"966 902 CURVE",
"976 956 OFFCURVE",
"966 1000 OFFCURVE",
"932 1036 CURVE",
"876 1100 OFFCURVE",
"774 1110 OFFCURVE",
"718 1046 CURVE",
"664 990 OFFCURVE",
"618 922 OFFCURVE",
"574 856 CURVE",
"540 822 OFFCURVE",
"540 778 OFFCURVE",
"540 732 CURVE SMOOTH",
"540 708 OFFCURVE",
"540 678 OFFCURVE",
"550 654 CURVE",
"550 618 OFFCURVE",
"540 588 OFFCURVE",
"518 564 CURVE",
"504 530 OFFCURVE",
"474 530 OFFCURVE",
"450 554 CURVE",
"394 598 OFFCURVE",
"370 654 OFFCURVE",
"370 722 CURVE",
"384 742 OFFCURVE",
"384 778 OFFCURVE",
"384 798 CURVE",
"394 866 OFFCURVE",
"350 932 OFFCURVE",
"296 956 CURVE",
"236 976 OFFCURVE",
"182 956 OFFCURVE",
"136 902 CURVE",
"116 876 OFFCURVE",
"92 842 OFFCURVE",
"82 822 CURVE",
"38 766 OFFCURVE",
"26 708 OFFCURVE",
"48 644 CURVE",
"58 598 OFFCURVE",
"58 554 OFFCURVE",
"58 508 CURVE SMOOTH",
"58 430 OFFCURVE",
"92 350 OFFCURVE",
"148 296 CURVE SMOOTH",
"182 262 OFFCURVE",
"206 240 OFFCURVE",
"206 196 CURVE",
"216 172 OFFCURVE",
"226 140 OFFCURVE",
"250 116 CURVE",
"282 72 OFFCURVE",
"416 -18 OFFCURVE",
"484 -18 CURVE",
"584 -28 OFFCURVE",
"684 -18 OFFCURVE",
"788 52 CURVE",
"798 62 OFFCURVE",
"818 72 OFFCURVE",
"842 82 CURVE SMOOTH",
"876 96 OFFCURVE",
"898 82 OFFCURVE",
"898 52 CURVE SMOOTH",
"898 16 OFFCURVE",
"898 -8 OFFCURVE",
"908 -28 CURVE",
"922 -62 OFFCURVE",
"942 -96 OFFCURVE",
"986 -96 CURVE",
"1032 -106 OFFCURVE",
"1066 -82 OFFCURVE",
"1086 -38 CURVE",
"1100 -28 OFFCURVE",
"1110 -8 OFFCURVE",
"1120 28 CURVE"
);
}
);
width = 1626;
},
{
layerId = "0BD0D975-F19E-4ACA-9A31-41147C737F0B";
width = 600;
}
);
note = W;
unicode = 0057;
},
{
color = 4;
glyphname = X;
lastChange = "2019-02-10 19:18:59 +0000";
layers = (
{
layerId = "BCBE6FB0-8B5B-4728-88BC-6AD881489723";
paths = (
{
closed = 1;
nodes = (
"881 -54 OFFCURVE",
"1062 12 OFFCURVE",
"1117 70 OFFCURVE",
"1120 200 OFFCURVE",
"1100 358 OFFCURVE",
"1072 428 OFFCURVE",
"1023 475 OFFCURVE",
"922 552 OFFCURVE",
"852 626 OFFCURVE",
"680 750 OFFCURVE",
"578 807 OFFCURVE",
"428 850 OFFCURVE",
"395 888 OFFCURVE",
"362 980 OFFCURVE",
"236 1059 OFFCURVE",
"124 1052 OFFCURVE",
"0 936 OFFCURVE",
"6 802 OFFCURVE",
"142 676 OFFCURVE",
"170 646 OFFCURVE",
"198 446 OFFCURVE",
"328 286 OFFCURVE",
"524 108 OFFCURVE",
"722 -48 OFFCURVE",
"824 -52 QCURVE SMOOTH"
);
},
{
closed = 1;
nodes = (
"958 692 OFFCURVE",
"1036 808 OFFCURVE",
"1053 911 OFFCURVE",
"1020 996 OFFCURVE",
"957 1046 OFFCURVE",
"866 1063 OFFCURVE",
"794 1031 OFFCURVE",
"744 965 OFFCURVE",
"728 901 OFFCURVE",
"728 844 OFFCURVE",
"747 814 OFFCURVE",
"781 729 OFFCURVE",
"810 690 OFFCURVE",
"904 694 QCURVE"
);
},
{
closed = 1;
nodes = (
"217 -56 OFFCURVE",
"340 56 OFFCURVE",
"331 161 OFFCURVE",
"236 244 OFFCURVE",
"107 235 OFFCURVE",
"14 149 OFFCURVE",
"14 44 OFFCURVE",
"136 -56 OFFCURVE",
"174 -56 QCURVE SMOOTH"
);
}
);
width = 1132;
},
{
layerId = "2A439511-CA4B-4C8E-8DEB-A9BDC8F58CF8";
paths = (
{
closed = 1;
nodes = (
"1114 214 LINE",
"1114 224 OFFCURVE",
"1100 294 OFFCURVE",
"1100 304 CURVE SMOOTH",
"1100 438 OFFCURVE",
"1032 464 OFFCURVE",
"932 542 CURVE",
"910 564 OFFCURVE",
"894 590 OFFCURVE",
"870 612 CURVE",
"826 646 OFFCURVE",
"782 668 OFFCURVE",
"750 700 CURVE",
"672 756 OFFCURVE",
"606 800 OFFCURVE",
"518 822 CURVE",
"450 844 OFFCURVE",
"406 878 OFFCURVE",
"374 944 CURVE",
"352 978 OFFCURVE",
"330 1010 OFFCURVE",
"284 1032 CURVE",
"186 1088 OFFCURVE",
"52 1044 OFFCURVE",
"20 932 CURVE",
"8 878 OFFCURVE",
"8 822 OFFCURVE",
"42 778 CURVE",
"64 756 OFFCURVE",
"86 722 OFFCURVE",
"120 700 CURVE",
"152 668 OFFCURVE",
"174 624 OFFCURVE",
"186 568 CURVE",
"196 458 OFFCURVE",
"262 358 OFFCURVE",
"352 280 CURVE",
"396 236 OFFCURVE",
"428 192 OFFCURVE",
"472 148 CURVE",
"496 114 OFFCURVE",
"528 82 OFFCURVE",
"562 60 CURVE",
"616 4 OFFCURVE",
"682 -28 OFFCURVE",
"760 -40 CURVE SMOOTH",
"848 -52 OFFCURVE",
"938 -28 OFFCURVE",
"1026 -6 CURVE",
"1070 16 OFFCURVE",
"1104 48 OFFCURVE",
"1114 104 CURVE",
"1114 136 OFFCURVE",
"1116 148 OFFCURVE",
"1116 182 CURVE"
);
},
{
closed = 1;
nodes = (
"728 834 OFFCURVE",
"738 812 OFFCURVE",
"750 790 CURVE",
"782 700 OFFCURVE",
"848 678 OFFCURVE",
"926 700 CURVE",
"1026 744 OFFCURVE",
"1070 866 OFFCURVE",
"1036 956 CURVE SMOOTH",
"1014 1010 OFFCURVE",
"970 1044 OFFCURVE",
"916 1054 CURVE SMOOTH",
"848 1066 OFFCURVE",
"804 1044 OFFCURVE",
"760 988 CURVE",
"738 956 OFFCURVE",
"728 910 OFFCURVE",
"728 866 CURVE SMOOTH"
);
},
{
closed = 1;
nodes = (
"262 -52 OFFCURVE",
"330 26 OFFCURVE",
"330 114 CURVE",
"318 192 OFFCURVE",
"262 248 OFFCURVE",
"174 236 CURVE",
"86 236 OFFCURVE",
"30 170 OFFCURVE",
"30 82 CURVE SMOOTH",
"30 4 OFFCURVE",
"98 -52 OFFCURVE",
"174 -52 CURVE SMOOTH"
);
}
);
width = 1132;
},
{
layerId = "0BD0D975-F19E-4ACA-9A31-41147C737F0B";
width = 600;
}
);
note = X;
unicode = 0058;
},
{
color = 0;
glyphname = Y;
lastChange = "2019-02-10 19:10:17 +0000";
layers = (
{
layerId = "BCBE6FB0-8B5B-4728-88BC-6AD881489723";
paths = (
{
closed = 1;
nodes = (
"932 754 OFFCURVE",
"944 860 OFFCURVE",
"934 870 CURVE",
"934 944 OFFCURVE",
"906 980 OFFCURVE",
"842 1000 CURVE",
"780 1032 OFFCURVE",
"722 1008 OFFCURVE",
"680 946 CURVE SMOOTH",
"658 914 OFFCURVE",
"646 896 OFFCURVE",
"626 852 CURVE",
"616 820 OFFCURVE",
"616 798 OFFCURVE",
"606 768 CURVE SMOOTH",
"596 736 OFFCURVE",
"574 714 OFFCURVE",
"554 704 CURVE",
"522 694 OFFCURVE",
"490 714 OFFCURVE",
"480 756 CURVE",
"480 840 LINE SMOOTH",
"480 882 OFFCURVE",
"480 924 OFFCURVE",
"470 966 CURVE SMOOTH",
"448 1062 OFFCURVE",
"374 1124 OFFCURVE",
"290 1114 CURVE",
"218 1114 OFFCURVE",
"154 1040 OFFCURVE",
"144 936 CURVE",
"144 904 OFFCURVE",
"140 888 OFFCURVE",
"140 858 CURVE",
"150 826 OFFCURVE",
"152 794 OFFCURVE",
"164 768 CURVE",
"176 736 OFFCURVE",
"178 694 OFFCURVE",
"156 674 CURVE",
"146 652 OFFCURVE",
"134 642 OFFCURVE",
"122 620 CURVE",
"102 588 OFFCURVE",
"80 558 OFFCURVE",
"60 516 CURVE",
"46 476 OFFCURVE",
"40 434 OFFCURVE",
"40 394 CURVE SMOOTH",
"40 220 OFFCURVE",
"158 56 OFFCURVE",
"312 64 CURVE",
"344 64 OFFCURVE",
"386 74 OFFCURVE",
"416 74 CURVE SMOOTH",
"438 74 OFFCURVE",
"448 86 OFFCURVE",
"470 86 CURVE SMOOTH",
"490 86 OFFCURVE",
"512 64 OFFCURVE",
"512 32 CURVE SMOOTH",
"512 -10 OFFCURVE",
"500 -52 OFFCURVE",
"470 -72 CURVE",
"448 -82 OFFCURVE",
"416 -94 OFFCURVE",
"406 -104 CURVE SMOOTH",
"380 -130 OFFCURVE",
"354 -144 OFFCURVE",
"326 -144 CURVE SMOOTH",
"298 -144 OFFCURVE",
"270 -130 OFFCURVE",
"238 -104 CURVE",
"220 -86 OFFCURVE",
"200 -78 OFFCURVE",
"178 -78 CURVE SMOOTH",
"148 -78 OFFCURVE",
"116 -94 OFFCURVE",
"92 -124 CURVE",
"38 -166 OFFCURVE",
"18 -240 OFFCURVE",
"38 -304 CURVE",
"60 -366 OFFCURVE",
"112 -408 OFFCURVE",
"176 -398 CURVE",
"196 -398 OFFCURVE",
"206 -388 OFFCURVE",
"228 -388 CURVE",
"238 -376 OFFCURVE",
"260 -376 OFFCURVE",
"270 -366 CURVE",
"290 -356 OFFCURVE",
"302 -356 OFFCURVE",
"322 -376 CURVE",
"332 -398 OFFCURVE",
"354 -408 OFFCURVE",
"364 -430 CURVE",
"396 -454 OFFCURVE",
"430 -466 OFFCURVE",
"462 -466 CURVE SMOOTH",
"512 -466 OFFCURVE",
"558 -436 OFFCURVE",
"584 -376 CURVE",
"616 -292 OFFCURVE",
"658 -262 OFFCURVE",
"732 -240 CURVE SMOOTH",
"806 -220 OFFCURVE",
"858 -146 OFFCURVE",
"858 -40 CURVE SMOOTH",
"858 44 OFFCURVE",
"846 60 OFFCURVE",
"900 112 CURVE",
"934 154 OFFCURVE",
"918 138 OFFCURVE",
"942 180 CURVE",
"992 256 OFFCURVE",
"1016 330 OFFCURVE",
"1016 408 CURVE SMOOTH",
"1016 460 OFFCURVE",
"1004 514 OFFCURVE",
"984 568 CURVE SMOOTH",
"952 652 OFFCURVE",
"910 660 OFFCURVE",
"932 732 CURVE"
);
}
);
width = 1060;
},
{
layerId = "2A439511-CA4B-4C8E-8DEB-A9BDC8F58CF8";
paths = (
{
closed = 1;
nodes = (
"932 754 OFFCURVE",
"944 860 OFFCURVE",
"934 870 CURVE",
"934 944 OFFCURVE",
"906 980 OFFCURVE",
"842 1000 CURVE",
"780 1032 OFFCURVE",
"722 1008 OFFCURVE",
"680 946 CURVE SMOOTH",
"658 914 OFFCURVE",
"646 896 OFFCURVE",
"626 852 CURVE",
"616 820 OFFCURVE",
"616 798 OFFCURVE",
"606 768 CURVE SMOOTH",
"596 736 OFFCURVE",
"574 714 OFFCURVE",
"554 704 CURVE",
"522 694 OFFCURVE",
"490 714 OFFCURVE",
"480 756 CURVE",
"480 840 LINE SMOOTH",
"480 882 OFFCURVE",
"480 924 OFFCURVE",
"470 966 CURVE SMOOTH",
"448 1062 OFFCURVE",
"374 1124 OFFCURVE",
"290 1114 CURVE",
"218 1114 OFFCURVE",
"154 1040 OFFCURVE",
"144 936 CURVE",
"144 904 OFFCURVE",
"140 888 OFFCURVE",
"140 858 CURVE",
"150 826 OFFCURVE",
"152 794 OFFCURVE",
"164 768 CURVE",
"176 736 OFFCURVE",
"178 694 OFFCURVE",
"156 674 CURVE",
"146 652 OFFCURVE",
"134 642 OFFCURVE",
"122 620 CURVE",
"102 588 OFFCURVE",
"80 558 OFFCURVE",
"60 516 CURVE",
"46 476 OFFCURVE",
"40 434 OFFCURVE",
"40 394 CURVE SMOOTH",
"40 220 OFFCURVE",
"158 56 OFFCURVE",
"312 64 CURVE",
"344 64 OFFCURVE",
"386 74 OFFCURVE",
"416 74 CURVE SMOOTH",
"438 74 OFFCURVE",
"448 86 OFFCURVE",
"470 86 CURVE SMOOTH",
"490 86 OFFCURVE",
"512 64 OFFCURVE",
"512 32 CURVE SMOOTH",
"512 -10 OFFCURVE",
"500 -52 OFFCURVE",
"470 -72 CURVE",
"448 -82 OFFCURVE",
"416 -94 OFFCURVE",
"406 -104 CURVE SMOOTH",
"380 -130 OFFCURVE",
"354 -144 OFFCURVE",
"326 -144 CURVE SMOOTH",
"298 -144 OFFCURVE",
"270 -130 OFFCURVE",
"238 -104 CURVE",
"220 -86 OFFCURVE",
"200 -78 OFFCURVE",
"178 -78 CURVE SMOOTH",
"148 -78 OFFCURVE",
"116 -94 OFFCURVE",
"92 -124 CURVE",
"38 -166 OFFCURVE",
"18 -240 OFFCURVE",
"38 -304 CURVE",
"60 -366 OFFCURVE",
"112 -408 OFFCURVE",
"176 -398 CURVE",
"196 -398 OFFCURVE",
"206 -388 OFFCURVE",
"228 -388 CURVE",
"238 -376 OFFCURVE",
"260 -376 OFFCURVE",
"270 -366 CURVE",
"290 -356 OFFCURVE",
"302 -356 OFFCURVE",
"322 -376 CURVE",
"332 -398 OFFCURVE",
"354 -408 OFFCURVE",
"364 -430 CURVE",
"396 -454 OFFCURVE",
"430 -466 OFFCURVE",
"462 -466 CURVE SMOOTH",
"512 -466 OFFCURVE",
"558 -436 OFFCURVE",
"584 -376 CURVE",
"616 -292 OFFCURVE",
"658 -262 OFFCURVE",
"732 -240 CURVE SMOOTH",
"806 -220 OFFCURVE",
"858 -146 OFFCURVE",
"858 -40 CURVE SMOOTH",
"858 44 OFFCURVE",
"846 60 OFFCURVE",
"900 112 CURVE",
"934 154 OFFCURVE",
"918 138 OFFCURVE",
"942 180 CURVE",
"992 256 OFFCURVE",
"1016 330 OFFCURVE",
"1016 408 CURVE SMOOTH",
"1016 460 OFFCURVE",
"1004 514 OFFCURVE",
"984 568 CURVE SMOOTH",
"952 652 OFFCURVE",
"910 660 OFFCURVE",
"932 732 CURVE"
);
}
);
width = 1060;
},
{
layerId = "0BD0D975-F19E-4ACA-9A31-41147C737F0B";
width = 600;
}
);
note = Y;
unicode = 0059;
},
{
color = 0;
glyphname = Z;
lastChange = "2019-02-10 19:10:17 +0000";
layers = (
{
layerId = "BCBE6FB0-8B5B-4728-88BC-6AD881489723";
paths = (
{
closed = 1;
nodes = (
"528 752 OFFCURVE",
"516 740 OFFCURVE",
"516 716 CURVE",
"492 670 OFFCURVE",
"458 624 OFFCURVE",
"446 576 CURVE",
"422 518 OFFCURVE",
"388 472 OFFCURVE",
"328 436 CURVE",
"318 436 OFFCURVE",
"306 424 OFFCURVE",
"294 412 CURVE SMOOTH",
"236 354 OFFCURVE",
"188 296 OFFCURVE",
"176 214 CURVE",
"176 156 OFFCURVE",
"166 108 OFFCURVE",
"142 50 CURVE",
"130 -8 OFFCURVE",
"176 -66 OFFCURVE",
"236 -54 CURVE",
"248 -54 LINE",
"282 -44 OFFCURVE",
"328 -44 OFFCURVE",
"364 -44 CURVE SMOOTH",
"400 -44 OFFCURVE",
"434 -44 OFFCURVE",
"458 -32 CURVE",
"528 -20 OFFCURVE",
"574 -32 OFFCURVE",
"622 -102 CURVE",
"656 -184 OFFCURVE",
"726 -196 OFFCURVE",
"808 -160 CURVE",
"808 -148 OFFCURVE",
"820 -148 OFFCURVE",
"832 -136 CURVE",
"866 -114 OFFCURVE",
"902 -124 OFFCURVE",
"936 -136 CURVE",
"972 -160 OFFCURVE",
"1006 -172 OFFCURVE",
"1054 -172 CURVE",
"1124 -160 OFFCURVE",
"1182 -114 OFFCURVE",
"1194 -44 CURVE SMOOTH",
"1206 28 OFFCURVE",
"1182 98 OFFCURVE",
"1136 132 CURVE",
"1076 180 OFFCURVE",
"1030 190 OFFCURVE",
"972 168 CURVE",
"936 156 OFFCURVE",
"914 132 OFFCURVE",
"878 120 CURVE",
"866 108 OFFCURVE",
"844 108 OFFCURVE",
"820 108 CURVE SMOOTH",
"796 108 OFFCURVE",
"774 120 OFFCURVE",
"750 132 CURVE",
"726 156 OFFCURVE",
"714 180 OFFCURVE",
"738 202 CURVE",
"762 226 OFFCURVE",
"784 250 OFFCURVE",
"808 272 CURVE",
"878 330 OFFCURVE",
"924 402 OFFCURVE",
"936 506 CURVE",
"936 554 LINE",
"948 612 OFFCURVE",
"960 646 OFFCURVE",
"996 682 CURVE SMOOTH",
"1018 704 OFFCURVE",
"1042 728 OFFCURVE",
"1066 764 CURVE",
"1100 834 OFFCURVE",
"1088 892 OFFCURVE",
"1054 962 CURVE",
"1006 1020 OFFCURVE",
"936 1044 OFFCURVE",
"866 1020 CURVE",
"844 1008 OFFCURVE",
"820 998 OFFCURVE",
"796 986 CURVE",
"784 986 OFFCURVE",
"762 974 OFFCURVE",
"738 974 CURVE",
"692 998 OFFCURVE",
"632 986 OFFCURVE",
"598 950 CURVE",
"550 962 OFFCURVE",
"528 974 OFFCURVE",
"492 974 CURVE SMOOTH",
"458 974 OFFCURVE",
"434 950 OFFCURVE",
"388 928 CURVE",
"376 950 OFFCURVE",
"364 962 OFFCURVE",
"352 974 CURVE SMOOTH",
"328 998 OFFCURVE",
"306 1020 OFFCURVE",
"282 1032 CURVE",
"188 1090 OFFCURVE",
"72 1032 OFFCURVE",
"36 916 CURVE SMOOTH",
"14 846 OFFCURVE",
"60 728 OFFCURVE",
"118 682 CURVE SMOOTH",
"166 646 OFFCURVE",
"212 646 OFFCURVE",
"270 670 CURVE",
"318 682 OFFCURVE",
"340 716 OFFCURVE",
"364 752 CURVE",
"388 776 OFFCURVE",
"400 798 OFFCURVE",
"410 822 CURVE",
"446 810 OFFCURVE",
"470 810 OFFCURVE",
"504 798 CURVE",
"516 798 OFFCURVE",
"528 786 OFFCURVE",
"540 776 CURVE"
);
}
);
width = 1230;
},
{
layerId = "2A439511-CA4B-4C8E-8DEB-A9BDC8F58CF8";
paths = (
{
closed = 1;
nodes = (
"528 752 OFFCURVE",
"516 740 OFFCURVE",
"516 716 CURVE",
"492 670 OFFCURVE",
"458 624 OFFCURVE",
"446 576 CURVE",
"422 518 OFFCURVE",
"388 472 OFFCURVE",
"328 436 CURVE",
"318 436 OFFCURVE",
"306 424 OFFCURVE",
"294 412 CURVE SMOOTH",
"236 354 OFFCURVE",
"188 296 OFFCURVE",
"176 214 CURVE",
"176 156 OFFCURVE",
"166 108 OFFCURVE",
"142 50 CURVE",
"130 -8 OFFCURVE",
"176 -66 OFFCURVE",
"236 -54 CURVE",
"248 -54 LINE",
"282 -44 OFFCURVE",
"328 -44 OFFCURVE",
"364 -44 CURVE SMOOTH",
"400 -44 OFFCURVE",
"434 -44 OFFCURVE",
"458 -32 CURVE",
"528 -20 OFFCURVE",
"574 -32 OFFCURVE",
"622 -102 CURVE",
"656 -184 OFFCURVE",
"726 -196 OFFCURVE",
"808 -160 CURVE",
"808 -148 OFFCURVE",
"820 -148 OFFCURVE",
"832 -136 CURVE",
"866 -114 OFFCURVE",
"902 -124 OFFCURVE",
"936 -136 CURVE",
"972 -160 OFFCURVE",
"1006 -172 OFFCURVE",
"1054 -172 CURVE",
"1124 -160 OFFCURVE",
"1182 -114 OFFCURVE",
"1194 -44 CURVE SMOOTH",
"1206 28 OFFCURVE",
"1182 98 OFFCURVE",
"1136 132 CURVE",
"1076 180 OFFCURVE",
"1030 190 OFFCURVE",
"972 168 CURVE",
"936 156 OFFCURVE",
"914 132 OFFCURVE",
"878 120 CURVE",
"866 108 OFFCURVE",
"844 108 OFFCURVE",
"820 108 CURVE SMOOTH",
"796 108 OFFCURVE",
"774 120 OFFCURVE",
"750 132 CURVE",
"726 156 OFFCURVE",
"714 180 OFFCURVE",
"738 202 CURVE",
"762 226 OFFCURVE",
"784 250 OFFCURVE",
"808 272 CURVE",
"878 330 OFFCURVE",
"924 402 OFFCURVE",
"936 506 CURVE",
"936 554 LINE",
"948 612 OFFCURVE",
"960 646 OFFCURVE",
"996 682 CURVE SMOOTH",
"1018 704 OFFCURVE",
"1042 728 OFFCURVE",
"1066 764 CURVE",
"1100 834 OFFCURVE",
"1088 892 OFFCURVE",
"1054 962 CURVE",
"1006 1020 OFFCURVE",
"936 1044 OFFCURVE",
"866 1020 CURVE",
"844 1008 OFFCURVE",
"820 998 OFFCURVE",
"796 986 CURVE",
"784 986 OFFCURVE",
"762 974 OFFCURVE",
"738 974 CURVE",
"692 998 OFFCURVE",
"632 986 OFFCURVE",
"598 950 CURVE",
"550 962 OFFCURVE",
"528 974 OFFCURVE",
"492 974 CURVE SMOOTH",
"458 974 OFFCURVE",
"434 950 OFFCURVE",
"388 928 CURVE",
"376 950 OFFCURVE",
"364 962 OFFCURVE",
"352 974 CURVE SMOOTH",
"328 998 OFFCURVE",
"306 1020 OFFCURVE",
"282 1032 CURVE",
"188 1090 OFFCURVE",
"72 1032 OFFCURVE",
"36 916 CURVE SMOOTH",
"14 846 OFFCURVE",
"60 728 OFFCURVE",
"118 682 CURVE SMOOTH",
"166 646 OFFCURVE",
"212 646 OFFCURVE",
"270 670 CURVE",
"318 682 OFFCURVE",
"340 716 OFFCURVE",
"364 752 CURVE",
"388 776 OFFCURVE",
"400 798 OFFCURVE",
"410 822 CURVE",
"446 810 OFFCURVE",
"470 810 OFFCURVE",
"504 798 CURVE",
"516 798 OFFCURVE",
"528 786 OFFCURVE",
"540 776 CURVE"
);
}
);
width = 1230;
},
{
layerId = "0BD0D975-F19E-4ACA-9A31-41147C737F0B";
width = 600;
}
);
note = Z;
unicode = 005A;
},
{
glyphname = .notdef;
lastChange = "2019-02-10 19:13:56 +0000";
layers = (
{
layerId = "BCBE6FB0-8B5B-4728-88BC-6AD881489723";
paths = (
{
closed = 1;
nodes = (
"778 292 OFFCURVE",
"792 300 OFFCURVE",
"806 312 CURVE",
"834 354 OFFCURVE",
"834 396 OFFCURVE",
"798 430 CURVE",
"792 438 LINE",
"778 452 OFFCURVE",
"764 472 OFFCURVE",
"758 492 CURVE",
"750 500 OFFCURVE",
"750 506 OFFCURVE",
"750 514 CURVE",
"722 548 OFFCURVE",
"688 562 OFFCURVE",
"646 548 CURVE",
"640 548 OFFCURVE",
"632 540 OFFCURVE",
"626 540 CURVE",
"604 520 OFFCURVE",
"584 520 OFFCURVE",
"556 540 CURVE SMOOTH",
"536 554 OFFCURVE",
"516 554 OFFCURVE",
"488 562 CURVE",
"466 562 OFFCURVE",
"452 568 OFFCURVE",
"440 582 CURVE",
"418 596 OFFCURVE",
"398 604 OFFCURVE",
"370 604 CURVE SMOOTH",
"342 604 OFFCURVE",
"314 610 OFFCURVE",
"288 616 CURVE",
"266 624 OFFCURVE",
"238 630 OFFCURVE",
"218 630 CURVE SMOOTH",
"176 630 OFFCURVE",
"142 630 OFFCURVE",
"100 644 CURVE SMOOTH",
"58 658 OFFCURVE",
"18 616 OFFCURVE",
"32 568 CURVE",
"32 562 OFFCURVE",
"32 554 OFFCURVE",
"38 548 CURVE",
"38 540 OFFCURVE",
"46 528 OFFCURVE",
"46 514 CURVE SMOOTH",
"46 464 OFFCURVE",
"52 416 OFFCURVE",
"46 368 CURVE SMOOTH",
"38 312 OFFCURVE",
"32 264 OFFCURVE",
"52 210 CURVE",
"58 188 OFFCURVE",
"58 160 OFFCURVE",
"52 140 CURVE SMOOTH",
"32 78 LINE",
"24 58 OFFCURVE",
"24 44 OFFCURVE",
"24 22 CURVE",
"32 -12 OFFCURVE",
"58 -40 OFFCURVE",
"94 -40 CURVE",
"122 -46 OFFCURVE",
"148 -32 OFFCURVE",
"162 -18 CURVE",
"190 22 OFFCURVE",
"218 58 OFFCURVE",
"246 92 CURVE",
"266 134 OFFCURVE",
"288 174 OFFCURVE",
"314 210 CURVE",
"322 216 OFFCURVE",
"328 230 OFFCURVE",
"336 244 CURVE",
"342 250 OFFCURVE",
"350 258 OFFCURVE",
"350 264 CURVE",
"370 292 OFFCURVE",
"384 292 OFFCURVE",
"404 272 CURVE",
"426 236 OFFCURVE",
"452 210 OFFCURVE",
"460 160 CURVE",
"460 146 LINE",
"474 120 OFFCURVE",
"488 106 OFFCURVE",
"516 106 CURVE",
"536 98 OFFCURVE",
"556 112 OFFCURVE",
"578 134 CURVE",
"578 146 OFFCURVE",
"584 154 OFFCURVE",
"584 168 CURVE",
"592 182 OFFCURVE",
"604 196 OFFCURVE",
"612 216 CURVE",
"618 236 OFFCURVE",
"632 264 OFFCURVE",
"640 286 CURVE",
"646 300 OFFCURVE",
"654 306 OFFCURVE",
"660 320 CURVE",
"702 300 OFFCURVE",
"708 300 OFFCURVE",
"736 272 CURVE",
"702 236 LINE",
"674 210 OFFCURVE",
"660 174 OFFCURVE",
"674 134 CURVE",
"674 120 OFFCURVE",
"674 106 OFFCURVE",
"680 98 CURVE",
"694 70 OFFCURVE",
"694 50 OFFCURVE",
"694 30 CURVE SMOOTH",
"694 -12 LINE",
"702 -46 OFFCURVE",
"730 -68 OFFCURVE",
"758 -68 CURVE",
"784 -74 OFFCURVE",
"812 -54 OFFCURVE",
"820 -26 CURVE",
"826 -18 OFFCURVE",
"826 -6 OFFCURVE",
"826 2 CURVE SMOOTH",
"826 36 OFFCURVE",
"840 64 OFFCURVE",
"854 92 CURVE",
"860 98 OFFCURVE",
"868 112 OFFCURVE",
"868 126 CURVE",
"874 174 OFFCURVE",
"854 216 OFFCURVE",
"820 244 CURVE",
"798 250 OFFCURVE",
"784 264 OFFCURVE",
"764 272 CURVE"
);
}
);
width = 898;
},
{
layerId = "2A439511-CA4B-4C8E-8DEB-A9BDC8F58CF8";
paths = (
{
closed = 1;
nodes = (
"778 292 OFFCURVE",
"792 300 OFFCURVE",
"806 312 CURVE",
"834 354 OFFCURVE",
"834 396 OFFCURVE",
"798 430 CURVE",
"792 438 LINE",
"778 452 OFFCURVE",
"764 472 OFFCURVE",
"758 492 CURVE",
"750 500 OFFCURVE",
"750 506 OFFCURVE",
"750 514 CURVE",
"722 548 OFFCURVE",
"688 562 OFFCURVE",
"646 548 CURVE",
"640 548 OFFCURVE",
"632 540 OFFCURVE",
"626 540 CURVE",
"604 520 OFFCURVE",
"584 520 OFFCURVE",
"556 540 CURVE SMOOTH",
"536 554 OFFCURVE",
"516 554 OFFCURVE",
"488 562 CURVE",
"466 562 OFFCURVE",
"452 568 OFFCURVE",
"440 582 CURVE",
"418 596 OFFCURVE",
"398 604 OFFCURVE",
"370 604 CURVE SMOOTH",
"342 604 OFFCURVE",
"314 610 OFFCURVE",
"288 616 CURVE",
"266 624 OFFCURVE",
"238 630 OFFCURVE",
"218 630 CURVE SMOOTH",
"176 630 OFFCURVE",
"142 630 OFFCURVE",
"100 644 CURVE SMOOTH",
"58 658 OFFCURVE",
"18 616 OFFCURVE",
"32 568 CURVE",
"32 562 OFFCURVE",
"32 554 OFFCURVE",
"38 548 CURVE",
"38 540 OFFCURVE",
"46 528 OFFCURVE",
"46 514 CURVE SMOOTH",
"46 464 OFFCURVE",
"52 416 OFFCURVE",
"46 368 CURVE SMOOTH",
"38 312 OFFCURVE",
"32 264 OFFCURVE",
"52 210 CURVE",
"58 188 OFFCURVE",
"58 160 OFFCURVE",
"52 140 CURVE SMOOTH",
"32 78 LINE",
"24 58 OFFCURVE",
"24 44 OFFCURVE",
"24 22 CURVE",
"32 -12 OFFCURVE",
"58 -40 OFFCURVE",
"94 -40 CURVE",
"122 -46 OFFCURVE",
"148 -32 OFFCURVE",
"162 -18 CURVE",
"190 22 OFFCURVE",
"218 58 OFFCURVE",
"246 92 CURVE",
"266 134 OFFCURVE",
"288 174 OFFCURVE",
"314 210 CURVE",
"322 216 OFFCURVE",
"328 230 OFFCURVE",
"336 244 CURVE",
"342 250 OFFCURVE",
"350 258 OFFCURVE",
"350 264 CURVE",
"370 292 OFFCURVE",
"384 292 OFFCURVE",
"404 272 CURVE",
"426 236 OFFCURVE",
"452 210 OFFCURVE",
"460 160 CURVE",
"460 146 LINE",
"474 120 OFFCURVE",
"488 106 OFFCURVE",
"516 106 CURVE",
"536 98 OFFCURVE",
"556 112 OFFCURVE",
"578 134 CURVE",
"578 146 OFFCURVE",
"584 154 OFFCURVE",
"584 168 CURVE",
"592 182 OFFCURVE",
"604 196 OFFCURVE",
"612 216 CURVE",
"618 236 OFFCURVE",
"632 264 OFFCURVE",
"640 286 CURVE",
"646 300 OFFCURVE",
"654 306 OFFCURVE",
"660 320 CURVE",
"702 300 OFFCURVE",
"708 300 OFFCURVE",
"736 272 CURVE",
"702 236 LINE",
"674 210 OFFCURVE",
"660 174 OFFCURVE",
"674 134 CURVE",
"674 120 OFFCURVE",
"674 106 OFFCURVE",
"680 98 CURVE",
"694 70 OFFCURVE",
"694 50 OFFCURVE",
"694 30 CURVE SMOOTH",
"694 -12 LINE",
"702 -46 OFFCURVE",
"730 -68 OFFCURVE",
"758 -68 CURVE",
"784 -74 OFFCURVE",
"812 -54 OFFCURVE",
"820 -26 CURVE",
"826 -18 OFFCURVE",
"826 -6 OFFCURVE",
"826 2 CURVE SMOOTH",
"826 36 OFFCURVE",
"840 64 OFFCURVE",
"854 92 CURVE",
"860 98 OFFCURVE",
"868 112 OFFCURVE",
"868 126 CURVE",
"874 174 OFFCURVE",
"854 216 OFFCURVE",
"820 244 CURVE",
"798 250 OFFCURVE",
"784 264 OFFCURVE",
"764 272 CURVE"
);
}
);
width = 898;
},
{
layerId = "0BD0D975-F19E-4ACA-9A31-41147C737F0B";
width = 600;
}
);
note = .notdef;
},
{
glyphname = at;
lastChange = "2019-02-10 19:13:56 +0000";
layers = (
{
layerId = "BCBE6FB0-8B5B-4728-88BC-6AD881489723";
paths = (
{
closed = 1;
nodes = (
"744 1060 OFFCURVE",
"722 1108 OFFCURVE",
"628 1084 CURVE SMOOTH",
"534 1060 OFFCURVE",
"502 1040 OFFCURVE",
"486 1000 CURVE SMOOTH",
"470 960 OFFCURVE",
"454 958 OFFCURVE",
"420 920 CURVE SMOOTH",
"386 882 OFFCURVE",
"416 786 OFFCURVE",
"494 794 CURVE SMOOTH",
"546 800 OFFCURVE",
"578 848 OFFCURVE",
"590 792 CURVE SMOOTH",
"602 736 OFFCURVE",
"570 748 OFFCURVE",
"538 698 CURVE SMOOTH",
"506 648 OFFCURVE",
"584 612 OFFCURVE",
"546 574 CURVE SMOOTH",
"508 536 OFFCURVE",
"508 434 OFFCURVE",
"614 472 CURVE SMOOTH",
"642 482 OFFCURVE",
"622 514 OFFCURVE",
"694 514 CURVE SMOOTH",
"744 514 OFFCURVE",
"742 552 OFFCURVE",
"776 528 CURVE SMOOTH",
"804 508 OFFCURVE",
"830 512 OFFCURVE",
"846 548 CURVE SMOOTH",
"862 584 OFFCURVE",
"822 588 OFFCURVE",
"876 612 CURVE SMOOTH",
"902 624 OFFCURVE",
"892 698 OFFCURVE",
"842 694 CURVE",
"826 692 OFFCURVE",
"800 676 OFFCURVE",
"802 634 CURVE SMOOTH",
"804 592 OFFCURVE",
"760 606 OFFCURVE",
"754 618 CURVE SMOOTH",
"748 630 OFFCURVE",
"654 662 OFFCURVE",
"716 706 CURVE SMOOTH",
"778 750 OFFCURVE",
"738 776 OFFCURVE",
"800 814 CURVE SMOOTH",
"862 852 OFFCURVE",
"794 994 OFFCURVE",
"764 1032 CURVE"
);
},
{
closed = 1;
nodes = (
"996 884 LINE SMOOTH",
"992 924 OFFCURVE",
"974 972 OFFCURVE",
"900 962 CURVE SMOOTH",
"842 954 OFFCURVE",
"856 870 OFFCURVE",
"862 862 CURVE SMOOTH",
"868 854 OFFCURVE",
"900 806 OFFCURVE",
"888 762 CURVE SMOOTH",
"876 718 OFFCURVE",
"916 702 OFFCURVE",
"916 662 CURVE SMOOTH",
"916 622 OFFCURVE",
"932 604 OFFCURVE",
"944 580 CURVE SMOOTH",
"956 556 OFFCURVE",
"938 458 OFFCURVE",
"1012 460 CURVE SMOOTH",
"1104 462 OFFCURVE",
"1036 596 OFFCURVE",
"1106 580 CURVE SMOOTH",
"1180 564 OFFCURVE",
"1208 536 OFFCURVE",
"1242 564 CURVE SMOOTH",
"1276 592 OFFCURVE",
"1322 550 OFFCURVE",
"1334 618 CURVE SMOOTH",
"1346 688 OFFCURVE",
"1266 678 OFFCURVE",
"1246 694 CURVE SMOOTH",
"1214 720 OFFCURVE",
"1138 718 OFFCURVE",
"1148 750 CURVE SMOOTH",
"1158 782 OFFCURVE",
"1186 774 OFFCURVE",
"1212 778 CURVE SMOOTH",
"1238 782 OFFCURVE",
"1298 848 OFFCURVE",
"1280 894 CURVE SMOOTH",
"1262 940 OFFCURVE",
"1226 960 OFFCURVE",
"1170 950 CURVE SMOOTH",
"1114 940 OFFCURVE",
"1096 876 OFFCURVE",
"1104 836 CURVE SMOOTH",
"1112 796 OFFCURVE",
"1088 812 OFFCURVE",
"1076 792 CURVE SMOOTH",
"1064 772 OFFCURVE",
"1050 736 OFFCURVE",
"1016 780 CURVE SMOOTH",
"982 824 OFFCURVE",
"996 842 OFFCURVE",
"998 862 CURVE"
);
},
{
closed = 1;
nodes = (
"208 732 OFFCURVE",
"166 784 OFFCURVE",
"104 760 CURVE SMOOTH",
"42 736 OFFCURVE",
"62 676 OFFCURVE",
"70 662 CURVE SMOOTH",
"78 648 OFFCURVE",
"126 612 OFFCURVE",
"110 580 CURVE SMOOTH",
"94 548 OFFCURVE",
"78 426 OFFCURVE",
"216 416 CURVE SMOOTH",
"302 410 OFFCURVE",
"314 504 OFFCURVE",
"348 462 CURVE SMOOTH",
"372 432 OFFCURVE",
"324 402 OFFCURVE",
"316 378 CURVE SMOOTH",
"308 354 OFFCURVE",
"276 368 OFFCURVE",
"254 366 CURVE SMOOTH",
"232 364 OFFCURVE",
"192 322 OFFCURVE",
"208 286 CURVE SMOOTH",
"224 250 OFFCURVE",
"276 232 OFFCURVE",
"314 286 CURVE SMOOTH",
"334 316 OFFCURVE",
"340 292 OFFCURVE",
"372 292 CURVE SMOOTH",
"404 292 OFFCURVE",
"450 322 OFFCURVE",
"442 370 CURVE SMOOTH",
"436 402 OFFCURVE",
"452 400 OFFCURVE",
"480 430 CURVE SMOOTH",
"508 460 OFFCURVE",
"492 500 OFFCURVE",
"478 530 CURVE SMOOTH",
"468 552 OFFCURVE",
"480 568 OFFCURVE",
"486 592 CURVE SMOOTH",
"492 616 OFFCURVE",
"502 670 OFFCURVE",
"436 718 CURVE SMOOTH",
"384 756 OFFCURVE",
"404 770 OFFCURVE",
"376 800 CURVE SMOOTH",
"326 852 OFFCURVE",
"256 798 OFFCURVE",
"266 744 CURVE SMOOTH",
"276 690 OFFCURVE",
"264 668 OFFCURVE",
"240 668 CURVE SMOOTH",
"216 668 OFFCURVE",
"222 688 OFFCURVE",
"216 698 CURVE"
);
}
);
width = 1336;
},
{
layerId = "2A439511-CA4B-4C8E-8DEB-A9BDC8F58CF8";
paths = (
{
closed = 1;
nodes = (
"744 1060 OFFCURVE",
"722 1108 OFFCURVE",
"628 1084 CURVE SMOOTH",
"534 1060 OFFCURVE",
"502 1040 OFFCURVE",
"486 1000 CURVE SMOOTH",
"470 960 OFFCURVE",
"454 958 OFFCURVE",
"420 920 CURVE SMOOTH",
"386 882 OFFCURVE",
"416 786 OFFCURVE",
"494 794 CURVE SMOOTH",
"546 800 OFFCURVE",
"578 848 OFFCURVE",
"590 792 CURVE SMOOTH",
"602 736 OFFCURVE",
"570 748 OFFCURVE",
"538 698 CURVE SMOOTH",
"506 648 OFFCURVE",
"584 612 OFFCURVE",
"546 574 CURVE SMOOTH",
"508 536 OFFCURVE",
"508 434 OFFCURVE",
"614 472 CURVE SMOOTH",
"642 482 OFFCURVE",
"622 514 OFFCURVE",
"694 514 CURVE SMOOTH",
"744 514 OFFCURVE",
"742 552 OFFCURVE",
"776 528 CURVE SMOOTH",
"804 508 OFFCURVE",
"830 512 OFFCURVE",
"846 548 CURVE SMOOTH",
"862 584 OFFCURVE",
"822 588 OFFCURVE",
"876 612 CURVE SMOOTH",
"902 624 OFFCURVE",
"892 698 OFFCURVE",
"842 694 CURVE",
"826 692 OFFCURVE",
"800 676 OFFCURVE",
"802 634 CURVE SMOOTH",
"804 592 OFFCURVE",
"760 606 OFFCURVE",
"754 618 CURVE SMOOTH",
"748 630 OFFCURVE",
"654 662 OFFCURVE",
"716 706 CURVE SMOOTH",
"778 750 OFFCURVE",
"738 776 OFFCURVE",
"800 814 CURVE SMOOTH",
"862 852 OFFCURVE",
"794 994 OFFCURVE",
"764 1032 CURVE"
);
},
{
closed = 1;
nodes = (
"996 884 LINE SMOOTH",
"992 924 OFFCURVE",
"974 972 OFFCURVE",
"900 962 CURVE SMOOTH",
"842 954 OFFCURVE",
"856 870 OFFCURVE",
"862 862 CURVE SMOOTH",
"868 854 OFFCURVE",
"900 806 OFFCURVE",
"888 762 CURVE SMOOTH",
"876 718 OFFCURVE",
"916 702 OFFCURVE",
"916 662 CURVE SMOOTH",
"916 622 OFFCURVE",
"932 604 OFFCURVE",
"944 580 CURVE SMOOTH",
"956 556 OFFCURVE",
"938 458 OFFCURVE",
"1012 460 CURVE SMOOTH",
"1104 462 OFFCURVE",
"1036 596 OFFCURVE",
"1106 580 CURVE SMOOTH",
"1180 564 OFFCURVE",
"1208 536 OFFCURVE",
"1242 564 CURVE SMOOTH",
"1276 592 OFFCURVE",
"1322 550 OFFCURVE",
"1334 618 CURVE SMOOTH",
"1346 688 OFFCURVE",
"1266 678 OFFCURVE",
"1246 694 CURVE SMOOTH",
"1214 720 OFFCURVE",
"1138 718 OFFCURVE",
"1148 750 CURVE SMOOTH",
"1158 782 OFFCURVE",
"1186 774 OFFCURVE",
"1212 778 CURVE SMOOTH",
"1238 782 OFFCURVE",
"1298 848 OFFCURVE",
"1280 894 CURVE SMOOTH",
"1262 940 OFFCURVE",
"1226 960 OFFCURVE",
"1170 950 CURVE SMOOTH",
"1114 940 OFFCURVE",
"1096 876 OFFCURVE",
"1104 836 CURVE SMOOTH",
"1112 796 OFFCURVE",
"1088 812 OFFCURVE",
"1076 792 CURVE SMOOTH",
"1064 772 OFFCURVE",
"1050 736 OFFCURVE",
"1016 780 CURVE SMOOTH",
"982 824 OFFCURVE",
"996 842 OFFCURVE",
"998 862 CURVE"
);
},
{
closed = 1;
nodes = (
"208 732 OFFCURVE",
"166 784 OFFCURVE",
"104 760 CURVE SMOOTH",
"42 736 OFFCURVE",
"62 676 OFFCURVE",
"70 662 CURVE SMOOTH",
"78 648 OFFCURVE",
"126 612 OFFCURVE",
"110 580 CURVE SMOOTH",
"94 548 OFFCURVE",
"78 426 OFFCURVE",
"216 416 CURVE SMOOTH",
"302 410 OFFCURVE",
"314 504 OFFCURVE",
"348 462 CURVE SMOOTH",
"372 432 OFFCURVE",
"324 402 OFFCURVE",
"316 378 CURVE SMOOTH",
"308 354 OFFCURVE",
"276 368 OFFCURVE",
"254 366 CURVE SMOOTH",
"232 364 OFFCURVE",
"192 322 OFFCURVE",
"208 286 CURVE SMOOTH",
"224 250 OFFCURVE",
"276 232 OFFCURVE",
"314 286 CURVE SMOOTH",
"334 316 OFFCURVE",
"340 292 OFFCURVE",
"372 292 CURVE SMOOTH",
"404 292 OFFCURVE",
"450 322 OFFCURVE",
"442 370 CURVE SMOOTH",
"436 402 OFFCURVE",
"452 400 OFFCURVE",
"480 430 CURVE SMOOTH",
"508 460 OFFCURVE",
"492 500 OFFCURVE",
"478 530 CURVE SMOOTH",
"468 552 OFFCURVE",
"480 568 OFFCURVE",
"486 592 CURVE SMOOTH",
"492 616 OFFCURVE",
"502 670 OFFCURVE",
"436 718 CURVE SMOOTH",
"384 756 OFFCURVE",
"404 770 OFFCURVE",
"376 800 CURVE SMOOTH",
"326 852 OFFCURVE",
"256 798 OFFCURVE",
"266 744 CURVE SMOOTH",
"276 690 OFFCURVE",
"264 668 OFFCURVE",
"240 668 CURVE SMOOTH",
"216 668 OFFCURVE",
"222 688 OFFCURVE",
"216 698 CURVE"
);
}
);
width = 1336;
},
{
layerId = "0BD0D975-F19E-4ACA-9A31-41147C737F0B";
width = 600;
}
);
note = at;
unicode = 0040;
},
